<svg width="84" height="37" viewBox="0 0 84 37" fill="none" xmlns="http://www.w3.org/2000/svg">
<path d="M61.1968 10.1928C62.7314 11.7665 63.4979 13.8093 63.4962 16.3211V29.4478H56.8505V17.7379C56.8505 16.5694 56.5154 15.629 55.8454 14.9165C55.5276 14.5701 55.1394 14.2958 54.7069 14.1119C54.2744 13.928 53.8075 13.8387 53.3376 13.8501C52.7689 13.8269 52.2027 13.9366 51.6839 14.1707C51.1652 14.4048 50.7082 14.7566 50.3493 15.1984C49.6123 16.1053 49.2429 17.4225 49.2413 19.1499V29.4453H42.5538V17.7379C42.5538 16.5694 42.2196 15.629 41.5512 14.9165C41.2261 14.5675 40.8304 14.2919 40.3903 14.108C39.9502 13.9241 39.476 13.8362 38.9993 13.8501C37.7458 13.8501 36.7652 14.3028 36.0576 15.2082C35.35 16.1135 34.9945 17.4307 34.9912 19.1597V29.4551H28.2989V8.45726H34.9863V10.3815C36.5209 8.68033 38.5866 7.83463 41.1835 7.84444C44.2772 7.84444 46.5652 9.02842 48.0474 11.3964C49.8451 9.02842 52.3194 7.84444 55.4703 7.84444C56.5356 7.81648 57.595 8.01086 58.581 8.4152C59.567 8.81953 60.4579 9.42494 61.1968 10.1928Z" fill="#9966CC"/>
<path d="M83.5931 28.5225C81.8429 29.507 79.8745 30.0387 77.8666 30.0693C75.2191 30.0693 73.164 29.3584 71.7013 27.9366C70.2387 26.5149 69.5073 24.4386 69.5073 21.7079V13.7657H65.7101V8.45613H69.5147V2.27148H76.2021V8.45613H82.3895V13.7657H76.2021V21.0387C76.2021 23.0733 77.1361 24.0905 79.0041 24.0905C80.0766 24.0862 81.1288 23.7978 82.0536 23.2547L83.5931 28.5225Z" fill="#9966CC"/>
<path d="M16.7627 0V10.1312C15.0664 8.59673 12.8928 7.83437 10.242 7.84418C8.88101 7.82351 7.53106 8.0911 6.28087 8.62935C5.03068 9.16759 3.90857 9.96431 2.98827 10.9671C0.996089 13.0557 0 15.717 0 18.951C0 22.2113 0.996089 24.8824 2.98827 26.9644C3.08387 27.0624 3.17948 27.158 3.27753 27.2512L7.35423 22.0201C7.25597 21.8543 7.16677 21.6832 7.08702 21.5078C6.60318 20.6878 6.34504 19.7543 6.33884 18.8023C6.33264 17.8502 6.5786 16.9135 7.05173 16.0873C7.52486 15.2611 8.20829 14.5749 9.03257 14.0984C9.85685 13.6219 10.7926 13.372 11.7447 13.3743C12.7712 13.3844 13.7738 13.6859 14.6356 14.2435C15.4975 14.8011 16.1833 15.5921 16.6132 16.5243L19.3514 14.4259C19.4923 14.299 19.6405 14.1803 19.7951 14.0705C19.9643 14.0705 12.2693 23.6576 12.2693 23.6576L10.2567 20.8655L3.34617 27.3124C4.25611 28.2053 5.33413 28.9087 6.5178 29.3821C7.70148 29.8555 8.9673 30.0893 10.242 30.0702C12.8895 30.0702 15.0631 29.3037 16.7627 27.7708V29.4426H23.4526V0H16.7627Z" fill="#9966CC"/>
<path d="M5.54769 36.1272H5.14811V35.7251C5.0307 35.879 4.87765 36.002 4.70213 36.0836C4.52661 36.1651 4.33389 36.2028 4.14058 36.1933C3.97435 36.195 3.80952 36.1628 3.65612 36.0987C3.50272 36.0347 3.36396 35.9401 3.24826 35.8207C3.00847 35.5586 2.87549 35.2163 2.87549 34.8611C2.87549 34.5058 3.00847 34.1635 3.24826 33.9014C3.36396 33.782 3.50272 33.6874 3.65612 33.6234C3.80952 33.5593 3.97435 33.5271 4.14058 33.5288C4.33389 33.5193 4.52661 33.557 4.70213 33.6385C4.87765 33.7201 5.0307 33.8431 5.14811 33.997V33.5827H5.53788L5.54769 36.1272ZM4.8711 35.5683C5.05489 35.3777 5.15759 35.1233 5.15759 34.8586C5.15759 34.5939 5.05489 34.3395 4.8711 34.149C4.69352 33.9735 4.45395 33.8751 4.20431 33.8751C3.95468 33.8751 3.71511 33.9735 3.53753 34.149C3.44577 34.2434 3.3743 34.3556 3.3275 34.4787C3.28071 34.6018 3.25958 34.7332 3.26542 34.8647C3.25968 34.9955 3.28087 35.1261 3.32767 35.2484C3.37448 35.3707 3.44591 35.4821 3.53753 35.5756C3.71572 35.7499 3.95506 35.8475 4.20431 35.8475C4.45356 35.8475 4.69291 35.7499 4.8711 35.5756V35.5683Z" fill="#121721"/>
<path d="M9.40111 36.1277H9.00889V35.7257C8.89177 35.8799 8.73876 36.0032 8.56318 36.0847C8.38759 36.1663 8.19473 36.2038 8.00136 36.1939C7.83513 36.1956 7.6703 36.1634 7.5169 36.0993C7.3635 36.0353 7.22474 35.9407 7.10904 35.8213C6.86925 35.5592 6.73627 35.2169 6.73627 34.8616C6.73627 34.5064 6.86925 34.1641 7.10904 33.902C7.22474 33.7826 7.3635 33.688 7.5169 33.624C7.6703 33.5599 7.83513 33.5277 8.00136 33.5294C8.19473 33.5195 8.38759 33.5569 8.56318 33.6385C8.73876 33.7201 8.89177 33.8434 9.00889 33.9976V32.4238H9.40111V36.1277ZM8.72452 35.5688C8.90718 35.3777 9.00912 35.1236 9.00912 34.8592C9.00912 34.5948 8.90718 34.3407 8.72452 34.1495C8.54581 33.9744 8.30554 33.8763 8.05529 33.8763C7.80504 33.8763 7.56477 33.9744 7.38605 34.1495C7.29544 34.2447 7.22487 34.3571 7.17855 34.4801C7.13222 34.603 7.11109 34.734 7.1164 34.8653C7.11065 34.9961 7.13184 35.1267 7.17865 35.249C7.22545 35.3713 7.29688 35.4827 7.3885 35.5762C7.4765 35.6648 7.58172 35.7344 7.69766 35.7808C7.8136 35.8272 7.93782 35.8493 8.06264 35.8458C8.18584 35.846 8.30783 35.8216 8.42148 35.774C8.53513 35.7264 8.63815 35.6567 8.72452 35.5688Z" fill="#121721"/>
<path d="M12.0121 36.1284H11.5806L10.4603 33.584H10.8869L11.7963 35.6578L12.7034 33.584H13.1299L12.0121 36.1284Z" fill="#121721"/>
<path d="M16.4246 34.9391H14.2551C14.2583 35.0634 14.2859 35.1857 14.3364 35.2993C14.3868 35.4129 14.4592 35.5154 14.5493 35.601C14.657 35.7002 14.7866 35.7725 14.9276 35.8119C15.0686 35.8513 15.2169 35.8568 15.3604 35.8279C15.5039 35.7989 15.6385 35.7364 15.7532 35.6454C15.8678 35.5544 15.9593 35.4375 16.0201 35.3044L16.3707 35.3877C16.2825 35.6313 16.1195 35.8407 15.9049 35.9858C15.6814 36.1288 15.42 36.2013 15.1548 36.1942C14.9869 36.1963 14.8203 36.1646 14.6649 36.101C14.5095 36.0374 14.3685 35.9432 14.2502 35.824C14.0594 35.6388 13.9282 35.4007 13.8735 35.1405C13.8188 34.8802 13.843 34.6095 13.943 34.363C14.0431 34.1166 14.2144 33.9056 14.4351 33.7572C14.6558 33.6087 14.9158 33.5295 15.1818 33.5296C15.3436 33.5258 15.5045 33.5552 15.6546 33.6159C15.8047 33.6766 15.9408 33.7674 16.0545 33.8826C16.2907 34.1276 16.4233 34.4542 16.4246 34.7945V34.9391ZM14.5934 34.0738C14.4161 34.2119 14.3006 34.4146 14.2723 34.6376H16.0348C16.0127 34.4206 15.9104 34.2196 15.748 34.0738C15.5927 33.9386 15.3926 33.8661 15.1867 33.8704C14.9713 33.8672 14.7615 33.9391 14.5934 34.0738Z" fill="#121721"/>
<path d="M19.7044 33.8283C19.8966 34.0422 19.9969 34.323 19.9839 34.6103V36.1276H19.5941V34.6813C19.6028 34.4723 19.5328 34.2677 19.398 34.1077C19.3345 34.0365 19.2562 33.98 19.1685 33.9423C19.0808 33.9046 18.9859 33.8866 18.8905 33.8896C18.7701 33.8842 18.6499 33.9053 18.5385 33.9515C18.4271 33.9977 18.3272 34.0677 18.2458 34.1568C18.0738 34.3687 17.9865 34.6368 18.0007 34.9093V36.135H17.6085V33.5832H18.0007V34.0072C18.1029 33.8487 18.2451 33.72 18.413 33.6339C18.5808 33.5479 18.7684 33.5075 18.9567 33.517C19.0965 33.5115 19.2358 33.5365 19.3649 33.5903C19.494 33.644 19.6099 33.7252 19.7044 33.8283Z" fill="#121721"/>
<path d="M22.8646 35.9935C22.6953 36.1203 22.4903 36.1906 22.2787 36.1945C22.1672 36.2006 22.0555 36.184 21.9506 36.1457C21.8457 36.1073 21.7496 36.048 21.6683 35.9714C21.5889 35.8868 21.5277 35.7868 21.4885 35.6776C21.4493 35.5684 21.4329 35.4523 21.4404 35.3365V33.9221H20.8912V33.5838H21.4404V32.7773H21.8375V33.5838H22.742V33.9147H21.8375V35.2997C21.829 35.437 21.8738 35.5722 21.9625 35.6772C22.0066 35.7233 22.06 35.7594 22.1192 35.7831C22.1784 35.8068 22.242 35.8175 22.3057 35.8145C22.4623 35.8103 22.6135 35.7562 22.7371 35.6601L22.8646 35.9935Z" fill="#121721"/>
<path d="M26.1419 36.1226H25.7399V35.7108C25.6358 35.8666 25.4929 35.9927 25.3252 36.0765C25.1576 36.1603 24.971 36.199 24.7838 36.1888C24.647 36.194 24.5107 36.1701 24.3839 36.1185C24.2571 36.0669 24.1427 35.9889 24.0484 35.8897C23.8598 35.6743 23.763 35.3936 23.7788 35.1077V33.583H24.1734V35.0293C24.163 35.2374 24.2322 35.4416 24.3671 35.6004C24.4304 35.6718 24.5087 35.7282 24.5965 35.7655C24.6843 35.8028 24.7792 35.8201 24.8745 35.8162C24.9944 35.8217 25.1141 35.8008 25.225 35.7551C25.336 35.7093 25.4356 35.6398 25.5168 35.5514C25.6889 35.3415 25.7763 35.0748 25.7619 34.8038V33.5781H26.1591L26.1419 36.1226Z" fill="#121721"/>
<path d="M29.1497 33.5831L29.1203 33.9606C29.0705 33.9572 29.0205 33.9572 28.9707 33.9606C28.8277 33.9526 28.6849 33.9784 28.5537 34.0359C28.4225 34.0934 28.3067 34.181 28.2157 34.2916C28.0298 34.5397 27.9362 34.8448 27.951 35.1544V36.135H27.5563V33.5831H27.946V34.2058C28.0357 34.0112 28.1796 33.8466 28.3605 33.7318C28.5414 33.617 28.7516 33.5569 28.9658 33.5586C29.0279 33.559 29.0897 33.5672 29.1497 33.5831Z" fill="#121721"/>
<path d="M32.4469 34.9391H30.2701C30.2733 35.0634 30.3009 35.1858 30.3513 35.2993C30.4018 35.4129 30.4742 35.5154 30.5643 35.601C30.6719 35.7002 30.8016 35.7725 30.9425 35.8119C31.0835 35.8513 31.2318 35.8568 31.3753 35.8279C31.5189 35.7989 31.6535 35.7364 31.7681 35.6454C31.8828 35.5544 31.9743 35.4375 32.0351 35.3044L32.3857 35.3877C32.2975 35.6313 32.1345 35.8407 31.9199 35.9858C31.7006 36.1261 31.4448 36.1986 31.1845 36.1942C31.0162 36.1965 30.8492 36.1649 30.6933 36.1013C30.5375 36.0377 30.3961 35.9434 30.2774 35.824C30.0866 35.6388 29.9554 35.4007 29.9007 35.1405C29.846 34.8802 29.8702 34.6095 29.9703 34.363C30.0703 34.1166 30.2417 33.9056 30.4623 33.7572C30.683 33.6087 30.943 33.5295 31.209 33.5296C31.3708 33.5258 31.5318 33.5552 31.6818 33.6159C31.8319 33.6766 31.968 33.7674 32.0817 33.8826C32.3199 34.1265 32.4536 34.4536 32.4543 34.7945L32.4469 34.9391ZM30.6084 34.0836C30.431 34.2217 30.3156 34.4244 30.2872 34.6474H32.0498C32.0288 34.4286 31.9265 34.2257 31.763 34.0787C31.6077 33.9435 31.4075 33.871 31.2016 33.8753C30.9869 33.8711 30.7773 33.9412 30.6084 34.0738V34.0836Z" fill="#121721"/>
<path d="M36.9673 35.9935C36.7979 36.1203 36.593 36.1906 36.3814 36.1945C36.2695 36.2004 36.1575 36.1837 36.0522 36.1454C35.9469 36.107 35.8505 36.0479 35.7686 35.9714C35.6901 35.8863 35.6296 35.7861 35.5909 35.677C35.5521 35.5679 35.5358 35.4521 35.543 35.3365V33.9221H34.9915V33.5838H35.5455V32.7773H35.9401V33.5838H36.8472V33.9148H35.9401V35.2997C35.9326 35.4373 35.9783 35.5724 36.0676 35.6772C36.1113 35.7231 36.1643 35.7591 36.2231 35.7828C36.2819 35.8065 36.3451 35.8173 36.4084 35.8145C36.5658 35.8108 36.7179 35.7567 36.8423 35.6601L36.9673 35.9935Z" fill="#121721"/>
<path d="M39.5806 33.5831L39.5488 33.9606C39.499 33.9571 39.449 33.9571 39.3992 33.9606C39.2566 33.9528 39.1141 33.9787 38.9834 34.0362C38.8526 34.0937 38.7373 34.1812 38.6466 34.2916C38.4608 34.5397 38.3672 34.8448 38.3819 35.1544V36.1349H37.997V33.5831H38.3917V34.2058C38.4809 34.0114 38.6244 33.8469 38.8049 33.7321C38.9853 33.6173 39.1951 33.5571 39.409 33.5586C39.467 33.56 39.5246 33.5682 39.5806 33.5831Z" fill="#121721"/>
<path d="M42.9585 36.1272H42.5688V35.7251C42.4514 35.879 42.2983 36.002 42.1228 36.0836C41.9473 36.1651 41.7545 36.2028 41.5612 36.1933C41.395 36.195 41.2302 36.1628 41.0768 36.0987C40.9234 36.0347 40.7846 35.9401 40.6689 35.8207C40.4291 35.5586 40.2961 35.2163 40.2961 34.8611C40.2961 34.5058 40.4291 34.1635 40.6689 33.9014C40.7846 33.782 40.9234 33.6874 41.0768 33.6234C41.2302 33.5593 41.395 33.5271 41.5612 33.5288C41.7545 33.5193 41.9473 33.557 42.1228 33.6385C42.2983 33.7201 42.4514 33.8431 42.5688 33.997V33.5827H42.9585V36.1272ZM42.2819 35.5683C42.4657 35.3777 42.5684 35.1233 42.5684 34.8586C42.5684 34.5939 42.4657 34.3395 42.2819 34.149C42.1044 33.9735 41.8648 33.8751 41.6152 33.8751C41.3655 33.8751 41.126 33.9735 40.9484 34.149C40.8566 34.2434 40.7851 34.3556 40.7384 34.4787C40.6916 34.6018 40.6704 34.7332 40.6763 34.8647C40.6705 34.9955 40.6917 35.1261 40.7385 35.2484C40.7853 35.3707 40.8568 35.4821 40.9484 35.5756C41.1266 35.7499 41.3659 35.8475 41.6152 35.8475C41.8644 35.8475 42.1038 35.7499 42.2819 35.5756V35.5683Z" fill="#121721"/>
<path d="M45.5671 36.1284H45.1406L44.0203 33.584H44.4468L45.3563 35.6578L46.2609 33.584H46.6874L45.5671 36.1284Z" fill="#121721"/>
<path d="M49.9892 34.9391H47.8148C47.8216 35.1894 47.9263 35.4271 48.1065 35.601C48.2141 35.7002 48.3438 35.7724 48.4847 35.8119C48.6257 35.8513 48.7741 35.8568 48.9176 35.8279C49.0611 35.7989 49.1957 35.7364 49.3104 35.6454C49.425 35.5544 49.5165 35.4375 49.5773 35.3044L49.9279 35.3877C49.8409 35.632 49.6776 35.8417 49.4621 35.9858C49.243 36.1265 48.987 36.199 48.7267 36.1942C48.5588 36.1964 48.3921 36.1648 48.2367 36.1012C48.0813 36.0376 47.9403 35.9433 47.8221 35.824C47.6957 35.6999 47.5966 35.5508 47.5312 35.3862C47.4657 35.2215 47.4354 35.0451 47.4421 34.868C47.4361 34.6929 47.4658 34.5184 47.5292 34.3551C47.5927 34.1918 47.6886 34.0431 47.8112 33.9179C47.9338 33.7928 48.0806 33.6939 48.2426 33.6271C48.4046 33.5604 48.5785 33.5272 48.7536 33.5296C48.9151 33.5259 49.0757 33.5552 49.2253 33.6159C49.375 33.6767 49.5107 33.7674 49.6239 33.8826C49.863 34.1259 49.9968 34.4534 49.9965 34.7945L49.9892 34.9391ZM48.1506 34.0836C47.9741 34.2224 47.8588 34.4248 47.8295 34.6474H49.5945C49.5738 34.428 49.4704 34.2247 49.3052 34.0787C49.151 33.9432 48.9515 33.8706 48.7463 33.8753C48.5308 33.8707 48.3203 33.9409 48.1506 34.0738V34.0836Z" fill="#121721"/>
<path d="M51.1782 36.1277V32.4238H51.568V36.1277H51.1782Z" fill="#121721"/>
<path d="M54.8137 35.3549C54.821 35.4332 54.8471 35.5086 54.8898 35.5748C54.9325 35.6409 54.9904 35.6958 55.0588 35.7348C55.2125 35.8295 55.3908 35.8764 55.5711 35.8696C55.7269 35.8771 55.8811 35.8359 56.0124 35.752C56.0641 35.7177 56.1064 35.671 56.1356 35.6162C56.1647 35.5614 56.1796 35.5002 56.1791 35.4382C56.1791 35.2544 56.0394 35.1342 55.7624 35.073L55.1814 34.943C54.7426 34.8499 54.5219 34.6342 54.5219 34.2959C54.5192 34.1891 54.5414 34.0831 54.587 33.9865C54.6325 33.8899 54.7001 33.8053 54.7842 33.7394C54.9869 33.5909 55.2344 33.5165 55.4853 33.5286C55.7295 33.5198 55.9704 33.5875 56.1742 33.7223C56.3506 33.8422 56.4737 34.0258 56.5174 34.2346L56.1374 34.318C56.1127 34.1813 56.0352 34.0598 55.9217 33.9797C55.7896 33.8883 55.6311 33.8426 55.4706 33.8498C55.3239 33.8407 55.1786 33.8822 55.0588 33.9674C55.0114 34.0013 54.973 34.0463 54.947 34.0984C54.9209 34.1505 54.908 34.2082 54.9093 34.2665C54.907 34.3089 54.9145 34.3512 54.931 34.3903C54.9476 34.4293 54.9729 34.4641 55.0049 34.492C55.0911 34.5541 55.1898 34.5967 55.2941 34.617L55.907 34.7494C56.3433 34.8474 56.5591 35.0681 56.5591 35.4137C56.5639 35.5253 56.5409 35.6365 56.4921 35.737C56.4433 35.8376 56.3703 35.9244 56.2796 35.9897C56.0627 36.1349 55.805 36.2071 55.5442 36.1957C55.2781 36.2047 55.015 36.1366 54.7867 35.9995C54.6899 35.9403 54.608 35.8595 54.5476 35.7634C54.4872 35.6673 54.4499 35.5585 54.4386 35.4456L54.8137 35.3549Z" fill="#121721"/>
<path d="M58.1842 32.6401C58.2091 32.6645 58.229 32.6937 58.2425 32.7259C58.2561 32.7581 58.2631 32.7927 58.2631 32.8276C58.2631 32.8626 58.2561 32.8972 58.2425 32.9294C58.229 32.9616 58.2091 32.9907 58.1842 33.0152C58.1311 33.0646 58.0606 33.0911 57.988 33.0887C57.9529 33.0896 57.9179 33.0836 57.8851 33.071C57.8523 33.0584 57.8223 33.0394 57.7968 33.0152C57.7482 32.9649 57.7209 32.8976 57.7209 32.8276C57.7209 32.7576 57.7482 32.6904 57.7968 32.6401C57.8486 32.5915 57.917 32.5645 57.988 32.5645C58.0591 32.5645 58.1274 32.5915 58.1793 32.6401H58.1842ZM57.7968 36.1283V33.5839H58.194V36.121L57.7968 36.1283Z" fill="#121721"/>
<path d="M63.4058 33.7949C63.496 33.8858 63.5665 33.9943 63.6129 34.1137C63.6593 34.233 63.6806 34.3607 63.6755 34.4886V36.1285H63.2857V34.5646C63.291 34.4746 63.2774 34.3844 63.2458 34.3C63.2141 34.2155 63.1651 34.1387 63.1018 34.0744C63.0401 34.0132 62.9664 33.9654 62.8855 33.9338C62.8046 33.9022 62.718 33.8875 62.6312 33.8905C62.5244 33.8858 62.4179 33.9055 62.3198 33.9479C62.2217 33.9904 62.1346 34.0546 62.0649 34.1356C61.9146 34.3336 61.8398 34.5787 61.8541 34.8269V36.1236H61.4643V34.5646C61.4696 34.4746 61.456 34.3844 61.4244 34.3C61.3927 34.2155 61.3437 34.1387 61.2804 34.0744C61.2199 34.0136 61.1476 33.9659 61.0679 33.9343C60.9882 33.9026 60.9028 33.8877 60.8171 33.8905C60.7106 33.8855 60.6044 33.905 60.5067 33.9475C60.4089 33.99 60.3222 34.0543 60.2533 34.1356C60.1039 34.334 60.03 34.579 60.0449 34.8269V36.1236H59.6552V33.5841H60.0449V33.9714C60.1357 33.8265 60.2635 33.7084 60.4153 33.6295C60.567 33.5507 60.7371 33.5138 60.9078 33.5228C61.0912 33.5198 61.2718 33.5673 61.43 33.6601C61.5802 33.748 61.7 33.8797 61.7732 34.0376C61.8704 33.8727 62.0109 33.7376 62.1794 33.6469C62.3479 33.5562 62.5381 33.5133 62.7292 33.5228C62.8545 33.5203 62.979 33.5432 63.0953 33.5899C63.2115 33.6367 63.3171 33.7064 63.4058 33.7949Z" fill="#121721"/>
<path d="M67.3256 33.9029C67.5654 34.165 67.6983 34.5074 67.6983 34.8626C67.6983 35.2178 67.5654 35.5602 67.3256 35.8223C67.2099 35.9417 67.0711 36.0362 66.9177 36.1003C66.7643 36.1644 66.5995 36.1965 66.4333 36.1949C66.2396 36.2046 66.0464 36.167 65.8705 36.0854C65.6945 36.0039 65.5411 35.8808 65.4233 35.7267V37.0014H65.0335V33.5843H65.4233V33.9912C65.5411 33.8371 65.6945 33.714 65.8705 33.6324C66.0464 33.5509 66.2396 33.5133 66.4333 33.523C66.6 33.5223 66.7652 33.5556 66.9186 33.6209C67.072 33.6863 67.2105 33.7822 67.3256 33.9029ZM67.0437 35.5747C67.1353 35.4812 67.2067 35.3698 67.2535 35.2475C67.3003 35.1252 67.3215 34.9946 67.3158 34.8638C67.3216 34.7323 67.3005 34.6009 67.2537 34.4778C67.2069 34.3547 67.1354 34.2425 67.0437 34.1481C66.8661 33.9726 66.6265 33.8742 66.3769 33.8742C66.1272 33.8742 65.8877 33.9726 65.7101 34.1481C65.5263 34.3386 65.4236 34.593 65.4236 34.8577C65.4236 35.1224 65.5263 35.3768 65.7101 35.5674C65.8883 35.7416 66.1276 35.8392 66.3769 35.8392C66.6261 35.8392 66.8655 35.7416 67.0437 35.5674V35.5747Z" fill="#121721"/>
<path d="M68.8848 36.1277V32.4238H69.2771V36.1277H68.8848Z" fill="#121721"/>
<path d="M71.1254 32.6405C71.1515 32.664 71.1721 32.6928 71.1861 32.7249C71.2 32.757 71.2069 32.7918 71.2063 32.8268C71.2076 32.8621 71.2013 32.8972 71.1877 32.9298C71.1742 32.9623 71.1538 32.9916 71.1279 33.0156C71.1018 33.0403 71.0709 33.0595 71.0373 33.0722C71.0036 33.0848 70.9677 33.0906 70.9318 33.0891C70.8616 33.0906 70.7937 33.0641 70.743 33.0156C70.7062 32.9784 70.6812 32.9312 70.6713 32.8798C70.6613 32.8285 70.6667 32.7753 70.6869 32.7271C70.7071 32.6788 70.7411 32.6376 70.7847 32.6087C70.8283 32.5798 70.8795 32.5644 70.9318 32.5645C70.9675 32.5636 71.003 32.5699 71.0363 32.5829C71.0696 32.596 71.0999 32.6156 71.1254 32.6405ZM70.7381 36.1287V33.5843H71.1328V36.1214L70.7381 36.1287Z" fill="#121721"/>
<path d="M74.8367 36.1279H74.4396V33.9217H73.0766V36.1279H72.6869V33.9217H72.2432V33.5835H72.6869V33.2158C72.6824 33.0981 72.7019 32.9808 72.744 32.8708C72.7861 32.7608 72.8501 32.6606 72.932 32.576C73.0158 32.4937 73.1156 32.4294 73.2252 32.3873C73.3349 32.3451 73.452 32.3259 73.5694 32.3308C73.7352 32.3284 73.8987 32.3707 74.0425 32.4534L73.942 32.7721C73.8358 32.7147 73.717 32.6844 73.5963 32.6838C73.5277 32.6801 73.4591 32.6908 73.3949 32.7153C73.3307 32.7398 73.2724 32.7775 73.2237 32.826C73.1294 32.9304 73.0801 33.0678 73.0864 33.2084V33.5835H74.8465L74.8367 36.1279ZM74.4445 33.0148C74.3958 32.9645 74.3686 32.8972 74.3686 32.8272C74.3686 32.7572 74.3958 32.69 74.4445 32.6397C74.4695 32.6147 74.4994 32.595 74.5323 32.582C74.5652 32.5689 74.6004 32.5627 74.6357 32.5637C74.6714 32.5628 74.707 32.569 74.7403 32.5821C74.7735 32.5951 74.8038 32.6147 74.8294 32.6397C74.8544 32.6639 74.8742 32.6928 74.8877 32.7248C74.9011 32.7568 74.908 32.7913 74.9078 32.826C74.9094 32.8611 74.9035 32.8961 74.8903 32.9286C74.8772 32.9612 74.8573 32.9906 74.8318 33.0148C74.7788 33.0642 74.7082 33.0907 74.6357 33.0883C74.6006 33.0892 74.5656 33.0832 74.5328 33.0706C74.5 33.058 74.47 33.039 74.4445 33.0148Z" fill="#121721"/>
<path d="M78.6219 34.9391H76.4475C76.4498 35.0633 76.4768 35.1857 76.5269 35.2994C76.577 35.413 76.6492 35.5155 76.7392 35.601C76.8469 35.7002 76.9765 35.7725 77.1175 35.8119C77.2585 35.8513 77.4068 35.8568 77.5503 35.8279C77.6938 35.7989 77.8284 35.7364 77.9431 35.6454C78.0578 35.5544 78.1493 35.4375 78.2101 35.3044L78.5606 35.3877C78.4725 35.6313 78.3094 35.8407 78.0949 35.9858C77.8755 36.1261 77.6197 36.1986 77.3594 36.1942C77.1915 36.1967 77.0248 36.1652 76.8693 36.1016C76.7139 36.038 76.5729 35.9436 76.4549 35.824C76.3281 35.7001 76.2287 35.551 76.1628 35.3864C76.097 35.2218 76.0662 35.0452 76.0724 34.868C76.0672 34.6931 76.0973 34.5189 76.1609 34.3559C76.2246 34.1929 76.3206 34.0445 76.4431 33.9195C76.5656 33.7945 76.7121 33.6955 76.8737 33.6285C77.0354 33.5615 77.209 33.5279 77.384 33.5296C77.5458 33.5258 77.7067 33.5552 77.8568 33.6159C78.0069 33.6766 78.143 33.7674 78.2567 33.8826C78.4949 34.1265 78.6285 34.4536 78.6293 34.7945L78.6219 34.9391ZM76.7834 34.0836C76.606 34.2217 76.4906 34.4244 76.4622 34.6474H78.2248C78.2038 34.4286 78.1014 34.2257 77.938 34.0787C77.7828 33.9433 77.5826 33.8707 77.3766 33.8753C77.1619 33.8711 76.9523 33.9412 76.7834 34.0738V34.0836Z" fill="#121721"/>
<path d="M82.2426 36.1277H81.8504V35.7257C81.7332 35.8799 81.5802 36.0032 81.4047 36.0847C81.2291 36.1663 81.0362 36.2038 80.8428 36.1939C80.6766 36.1956 80.5118 36.1634 80.3584 36.0993C80.205 36.0353 80.0662 35.9407 79.9505 35.8213C79.7107 35.5592 79.5778 35.2169 79.5778 34.8616C79.5778 34.5064 79.7107 34.1641 79.9505 33.902C80.0662 33.7826 80.205 33.688 80.3584 33.624C80.5118 33.5599 80.6766 33.5277 80.8428 33.5294C81.0362 33.5195 81.2291 33.5569 81.4047 33.6385C81.5802 33.7201 81.7332 33.8434 81.8504 33.9976V32.4238H82.2426V36.1277ZM81.566 35.5688C81.7082 35.4348 81.8071 35.2612 81.85 35.0705C81.8928 34.8798 81.8777 34.6807 81.8066 34.4986C81.7355 34.3166 81.6115 34.1599 81.4507 34.0488C81.2899 33.9377 81.0996 33.8772 80.9041 33.875C80.7788 33.8718 80.654 33.8943 80.5377 33.9411C80.4213 33.9879 80.3158 34.058 80.2275 34.1471C80.1369 34.2422 80.0664 34.3546 80.02 34.4776C79.9737 34.6006 79.9526 34.7316 79.9579 34.8629C79.9519 34.9939 79.9732 35.1248 80.0204 35.2472C80.0677 35.3695 80.1399 35.4808 80.2324 35.5737C80.32 35.6623 80.4248 35.7319 80.5403 35.7783C80.6558 35.8246 80.7797 35.8468 80.9041 35.8434C81.0271 35.8439 81.149 35.8198 81.2627 35.7727C81.3763 35.7255 81.4794 35.6563 81.566 35.5688Z" fill="#121721"/>
<path d="M83.9243 35.7013C83.9491 35.725 83.9687 35.7535 83.9818 35.7852C83.9949 35.8169 84.0012 35.8509 84.0003 35.8852C84.0012 35.9194 83.9949 35.9535 83.9818 35.9852C83.9687 36.0168 83.9491 36.0454 83.9243 36.069C83.8724 36.1164 83.8046 36.1427 83.7343 36.1427C83.6641 36.1427 83.5963 36.1164 83.5444 36.069C83.5191 36.0456 83.4991 36.0171 83.4855 35.9855C83.472 35.9538 83.4653 35.9196 83.4659 35.8852C83.4653 35.8507 83.472 35.8166 83.4855 35.7849C83.4991 35.7532 83.5191 35.7248 83.5444 35.7013C83.5949 35.6512 83.6632 35.623 83.7343 35.623C83.8055 35.623 83.8738 35.6512 83.9243 35.7013Z" fill="#121721"/>
</svg>
