<svg width="146" height="64" viewBox="0 0 146 64" fill="none" xmlns="http://www.w3.org/2000/svg">
<path d="M105.854 17.631C108.508 20.3532 109.834 23.8866 109.831 28.2313V50.937H98.3358V30.682C98.3358 28.6609 97.7563 27.0341 96.5973 25.8017C96.0477 25.2026 95.3762 24.7281 94.6281 24.41C93.8799 24.0919 93.0723 23.9375 92.2595 23.9573C91.2759 23.917 90.2965 24.1069 89.3991 24.5117C88.5018 24.9166 87.7113 25.5253 87.0906 26.2893C85.8157 27.8581 85.1768 30.1365 85.174 33.1243V50.9327H73.6065V30.682C73.6065 28.6609 73.0285 27.0341 71.8723 25.8017C71.31 25.1981 70.6254 24.7213 69.8642 24.4032C69.103 24.0852 68.2828 23.9331 67.4581 23.9573C65.2899 23.9573 63.5938 24.7403 62.3698 26.3063C61.1458 27.8723 60.5309 30.1506 60.5253 33.1413V50.9497H48.9493V14.629H60.5168V17.9575C63.1712 15.0149 66.7444 13.5521 71.2362 13.569C76.5875 13.569 80.545 15.617 83.109 19.7129C86.2185 15.617 90.4984 13.569 95.9486 13.569C97.7912 13.5207 99.6238 13.8569 101.329 14.5563C103.035 15.2557 104.576 16.3029 105.854 17.631Z" fill="#FDFDFD"/>
<path d="M144.593 49.3369C141.566 51.0398 138.161 51.9595 134.688 52.0124C130.109 52.0124 126.554 50.7827 124.024 48.3235C121.494 45.8642 120.229 42.2729 120.229 37.5494V23.8115H113.661V14.6274H120.241V3.92969H131.809V14.6274H142.511V23.8115H131.809V36.3919C131.809 39.9111 133.424 41.6708 136.656 41.6708C138.511 41.6633 140.331 41.1644 141.93 40.2249L144.593 49.3369Z" fill="#FDFDFD"/>
<path d="M28.995 0V17.5243C26.0607 14.87 22.301 13.5513 17.7159 13.5683C15.3617 13.5326 13.0267 13.9954 10.8642 14.9264C8.70173 15.8575 6.76076 17.2356 5.1689 18.9702C1.72297 22.5828 0 27.1861 0 32.7802C0 38.4195 1.72297 43.0398 5.1689 46.6411C5.33427 46.8107 5.49964 46.976 5.66925 47.1371L12.7208 38.0888C12.5509 37.802 12.3966 37.5061 12.2586 37.2026C11.4217 35.7843 10.9752 34.1697 10.9645 32.5229C10.9538 30.8761 11.3792 29.2558 12.1976 27.8267C13.016 26.3976 14.1981 25.2106 15.6239 24.3864C17.0497 23.5621 18.6683 23.13 20.3152 23.134C22.0908 23.1515 23.8249 23.6728 25.3157 24.6374C26.8065 25.602 27.9928 26.9701 28.7363 28.5825L33.4727 24.953C33.7165 24.7334 33.9727 24.5281 34.2402 24.3382C34.5328 24.3382 21.2226 40.9212 21.2226 40.9212L17.7413 36.0917L5.78798 47.2432C7.36192 48.7875 9.2266 50.0043 11.274 50.8231C13.3215 51.6419 15.511 52.0464 17.7159 52.0133C22.2954 52.0133 26.0551 50.6875 28.995 48.036V50.9278H40.5667V0H28.995Z" fill="#FDFDFD"/>
<path d="M9.59593 62.4911H8.90477V61.7957C8.70169 62.0619 8.43695 62.2747 8.13335 62.4157C7.82975 62.5568 7.4964 62.622 7.16202 62.6056C6.87449 62.6084 6.58938 62.5528 6.32404 62.442C6.0587 62.3312 5.81867 62.1676 5.61856 61.9611C5.20378 61.5077 4.97375 60.9156 4.97375 60.3011C4.97375 59.6867 5.20378 59.0945 5.61856 58.6411C5.81867 58.4346 6.0587 58.271 6.32404 58.1602C6.58938 58.0494 6.87449 57.9938 7.16202 57.9966C7.4964 57.9802 7.82975 58.0454 8.13335 58.1865C8.43695 58.3276 8.70169 58.5403 8.90477 58.8065V58.0899H9.57897L9.59593 62.4911ZM8.42562 61.5244C8.74353 61.1948 8.92118 60.7548 8.92118 60.2969C8.92118 59.839 8.74353 59.3989 8.42562 59.0694C8.11846 58.7659 7.70406 58.5957 7.27226 58.5957C6.84046 58.5957 6.42607 58.7659 6.11891 59.0694C5.96019 59.2327 5.83656 59.4269 5.75562 59.6398C5.67468 59.8527 5.63814 60.0799 5.64824 60.3075C5.6383 60.5337 5.67495 60.7596 5.75591 60.9711C5.83688 61.1827 5.96043 61.3753 6.11891 61.5371C6.42713 61.8385 6.84113 62.0073 7.27226 62.0073C7.7034 62.0073 8.1174 61.8385 8.42562 61.5371V61.5244Z" fill="#FDFDFD"/>
<path d="M16.2614 62.4908H15.583V61.7954C15.3804 62.0621 15.1158 62.2752 14.812 62.4164C14.5083 62.5575 14.1747 62.6224 13.8402 62.6052C13.5527 62.6081 13.2676 62.5524 13.0023 62.4416C12.7369 62.3308 12.4969 62.1672 12.2968 61.9607C11.882 61.5074 11.652 60.9152 11.652 60.3007C11.652 59.6863 11.882 59.0941 12.2968 58.6408C12.4969 58.4343 12.7369 58.2707 13.0023 58.1599C13.2676 58.0491 13.5527 57.9934 13.8402 57.9963C14.1747 57.9791 14.5083 58.044 14.812 58.1851C15.1158 58.3263 15.3804 58.5394 15.583 58.8061V56.084H16.2614V62.4908ZM15.0911 61.524C15.4071 61.1934 15.5834 60.7538 15.5834 60.2965C15.5834 59.8392 15.4071 59.3996 15.0911 59.069C14.782 58.766 14.3664 58.5963 13.9335 58.5963C13.5007 58.5963 13.0851 58.766 12.7759 59.069C12.6192 59.2336 12.4971 59.428 12.417 59.6407C12.3369 59.8534 12.3003 60.08 12.3095 60.3071C12.2996 60.5334 12.3362 60.7593 12.4172 60.9708C12.4981 61.1823 12.6217 61.3749 12.7802 61.5367C12.9324 61.69 13.1144 61.8104 13.3149 61.8906C13.5155 61.9709 13.7303 62.0091 13.9462 62.0031C14.1593 62.0034 14.3704 61.9612 14.5669 61.8789C14.7635 61.7966 14.9417 61.676 15.0911 61.524Z" fill="#FDFDFD"/>
<path d="M20.7777 62.4911H20.0314L18.0936 58.0898H18.8314L20.4046 61.677L21.9735 58.0898H22.7113L20.7777 62.4911Z" fill="#FDFDFD"/>
<path d="M28.4102 60.4347H24.6576C24.663 60.6496 24.7108 60.8613 24.7981 61.0577C24.8854 61.2542 25.0105 61.4315 25.1664 61.5795C25.3526 61.7511 25.5768 61.8761 25.8207 61.9444C26.0646 62.0126 26.3211 62.022 26.5693 61.972C26.8176 61.9219 27.0504 61.8138 27.2488 61.6564C27.4471 61.499 27.6054 61.2968 27.7106 61.0665L28.3169 61.2107C28.1644 61.632 27.8824 61.9942 27.5113 62.2452C27.1245 62.4925 26.6726 62.618 26.2137 62.6056C25.9233 62.6092 25.6352 62.5544 25.3664 62.4444C25.0976 62.3344 24.8537 62.1715 24.6491 61.9654C24.319 61.6449 24.0921 61.2332 23.9974 60.783C23.9028 60.3327 23.9447 59.8645 24.1177 59.4383C24.2908 59.012 24.5872 58.6471 24.9689 58.3902C25.3506 58.1334 25.8003 57.9964 26.2604 57.9967C26.5403 57.9901 26.8187 58.0408 27.0783 58.1458C27.3379 58.2508 27.5733 58.4079 27.7699 58.6072C28.1785 59.0309 28.4079 59.596 28.4102 60.1846V60.4347ZM25.2427 58.938C24.936 59.1769 24.7363 59.5275 24.6872 59.9132H27.736C27.6976 59.5377 27.5207 59.1901 27.2399 58.938C26.9712 58.7041 26.625 58.5786 26.2689 58.586C25.8963 58.5805 25.5335 58.705 25.2427 58.938Z" fill="#FDFDFD"/>
<path d="M34.0832 58.5135C34.4156 58.8835 34.5892 59.3693 34.5666 59.8661V62.4907H33.8924V59.989C33.9074 59.6275 33.7864 59.2735 33.5532 58.9969C33.4434 58.8736 33.3079 58.7758 33.1562 58.7106C33.0046 58.6454 32.8404 58.6143 32.6754 58.6195C32.467 58.6102 32.2592 58.6468 32.0665 58.7266C31.8738 58.8065 31.701 58.9277 31.5602 59.0817C31.2627 59.4482 31.1117 59.9119 31.1362 60.3834V62.5034H30.4578V58.0895H31.1362V58.823C31.3131 58.5489 31.559 58.3262 31.8494 58.1773C32.1397 58.0284 32.4641 57.9586 32.7899 57.975C33.0317 57.9655 33.2726 58.0087 33.4959 58.1017C33.7192 58.1947 33.9196 58.3352 34.0832 58.5135Z" fill="#FDFDFD"/>
<path d="M39.5493 62.2583C39.2564 62.4777 38.9018 62.5994 38.5359 62.606C38.3429 62.6167 38.1498 62.5879 37.9683 62.5216C37.7868 62.4553 37.6207 62.3527 37.48 62.2202C37.3427 62.0738 37.2368 61.9008 37.169 61.712C37.1011 61.5231 37.0728 61.3223 37.0857 61.122V58.6754H36.1359V58.0903H37.0857V56.6953H37.7726V58.0903H39.3373V58.6627H37.7726V61.0584C37.758 61.2957 37.8355 61.5296 37.9889 61.7113C38.0651 61.791 38.1575 61.8535 38.2599 61.8944C38.3623 61.9354 38.4723 61.9539 38.5825 61.9488C38.8534 61.9415 39.1148 61.8479 39.3288 61.6817L39.5493 62.2583Z" fill="#FDFDFD"/>
<path d="M45.2184 62.4832H44.523V61.7709C44.343 62.0405 44.0958 62.2586 43.8058 62.4036C43.5158 62.5486 43.193 62.6155 42.8693 62.5977C42.6327 62.6068 42.3969 62.5654 42.1775 62.4762C41.9582 62.387 41.7603 62.2521 41.5972 62.0804C41.271 61.7078 41.1036 61.2223 41.1308 60.7278V58.0905H41.8135V60.5922C41.7954 60.9521 41.9152 61.3054 42.1485 61.5801C42.2579 61.7036 42.3934 61.8011 42.5452 61.8657C42.6971 61.9302 42.8614 61.9601 43.0262 61.9532C43.2336 61.9627 43.4405 61.9266 43.6325 61.8475C43.8244 61.7684 43.9967 61.6482 44.1371 61.4953C44.4348 61.1322 44.5861 60.6709 44.5612 60.2021V58.082H45.2481L45.2184 62.4832Z" fill="#FDFDFD"/>
<path d="M50.4209 58.0893L50.37 58.7423C50.2839 58.7363 50.1974 58.7363 50.1113 58.7423C49.864 58.7285 49.6168 58.7731 49.3899 58.8725C49.163 58.972 48.9628 59.1235 48.8053 59.3147C48.4838 59.7439 48.3219 60.2716 48.3474 60.8072V62.5033H47.6647V58.0893H48.3389V59.1663C48.494 58.8298 48.7429 58.5451 49.0558 58.3465C49.3687 58.148 49.7323 58.0439 50.1028 58.0469C50.2102 58.0476 50.3171 58.0618 50.4209 58.0893Z" fill="#FDFDFD"/>
<path d="M56.1243 60.4347H52.3589C52.3644 60.6496 52.4121 60.8613 52.4994 61.0577C52.5867 61.2542 52.7119 61.4315 52.8677 61.5795C53.0539 61.7511 53.2782 61.8761 53.522 61.9444C53.7659 62.0126 54.0225 62.022 54.2707 61.972C54.5189 61.9219 54.7517 61.8138 54.9501 61.6564C55.1485 61.499 55.3067 61.2968 55.4119 61.0665L56.0183 61.2107C55.8658 61.632 55.5837 61.9942 55.2126 62.2452C54.8332 62.4878 54.3908 62.6132 53.9405 62.6056C53.6494 62.6096 53.3605 62.5549 53.091 62.4449C52.8215 62.3349 52.5768 62.1718 52.3716 61.9654C52.0415 61.6449 51.8146 61.2332 51.72 60.783C51.6253 60.3327 51.6672 59.8645 51.8403 59.4383C52.0133 59.012 52.3097 58.6471 52.6914 58.3902C53.0731 58.1334 53.5228 57.9964 53.9829 57.9967C54.2629 57.9901 54.5412 58.0408 54.8008 58.1458C55.0604 58.2508 55.2958 58.4079 55.4925 58.6072C55.9045 59.029 56.1357 59.5949 56.137 60.1846L56.1243 60.4347ZM52.944 58.9549C52.6373 59.1938 52.4376 59.5445 52.3886 59.9301H55.4373C55.401 59.5517 55.224 59.2007 54.9412 58.9464C54.6725 58.7125 54.3264 58.5871 53.9702 58.5945C53.5988 58.5873 53.2363 58.7086 52.944 58.938V58.9549Z" fill="#FDFDFD"/>
<path d="M63.9434 62.2583C63.6505 62.4778 63.2959 62.5994 62.93 62.606C62.7364 62.6163 62.5428 62.5874 62.3606 62.5211C62.1785 62.4548 62.0116 62.3524 61.8699 62.2202C61.7342 62.0729 61.6296 61.8997 61.5626 61.711C61.4955 61.5222 61.4674 61.3219 61.4798 61.122V58.6754H60.5258V58.0903H61.4841V56.6953H62.1667V58.0903H63.7356V58.6627H62.1667V61.0584C62.1537 61.2963 62.2327 61.53 62.3872 61.7113C62.4628 61.7907 62.5545 61.853 62.6562 61.8939C62.7579 61.9349 62.8671 61.9536 62.9766 61.9488C63.249 61.9424 63.512 61.8488 63.7272 61.6817L63.9434 62.2583Z" fill="#FDFDFD"/>
<path d="M68.4638 58.0893L68.4087 58.7423C68.3226 58.7362 68.2362 58.7362 68.15 58.7423C67.9034 58.7288 67.657 58.7736 67.4308 58.873C67.2046 58.9725 67.0051 59.1238 66.8483 59.3147C66.5268 59.7439 66.3649 60.2716 66.3903 60.8072V62.5033H65.7246V58.0893H66.4073V59.1663C66.5616 58.8301 66.8098 58.5456 67.122 58.347C67.4342 58.1484 67.797 58.0442 68.167 58.0469C68.2673 58.0493 68.3669 58.0635 68.4638 58.0893Z" fill="#FDFDFD"/>
<path d="M74.3066 62.4911H73.6324V61.7957C73.4293 62.0619 73.1646 62.2747 72.861 62.4157C72.5574 62.5568 72.2241 62.622 71.8897 62.6056C71.6021 62.6084 71.317 62.5528 71.0517 62.442C70.7864 62.3312 70.5463 62.1676 70.3462 61.9611C69.9314 61.5077 69.7014 60.9156 69.7014 60.3011C69.7014 59.6867 69.9314 59.0945 70.3462 58.6411C70.5463 58.4346 70.7864 58.271 71.0517 58.1602C71.317 58.0494 71.6021 57.9938 71.8897 57.9966C72.2241 57.9802 72.5574 58.0454 72.861 58.1865C73.1646 58.3276 73.4293 58.5403 73.6324 58.8065V58.0899H74.3066V62.4911ZM73.1363 61.5244C73.4542 61.1948 73.6319 60.7548 73.6319 60.2969C73.6319 59.839 73.4542 59.3989 73.1363 59.0694C72.8292 58.7659 72.4148 58.5957 71.983 58.5957C71.5512 58.5957 71.1368 58.7659 70.8296 59.0694C70.6709 59.2327 70.5473 59.4269 70.4663 59.6398C70.3854 59.8527 70.3488 60.0799 70.3589 60.3075C70.349 60.5337 70.3856 60.7596 70.4666 60.9711C70.5476 61.1827 70.6711 61.3753 70.8296 61.5371C71.1378 61.8385 71.5518 62.0073 71.983 62.0073C72.4141 62.0073 72.8281 61.8385 73.1363 61.5371V61.5244Z" fill="#FDFDFD"/>
<path d="M78.8187 62.4911H78.0809L76.1431 58.0898H76.8809L78.454 61.677L80.0187 58.0898H80.7565L78.8187 62.4911Z" fill="#FDFDFD"/>
<path d="M86.4675 60.4347H82.7064C82.7182 60.8677 82.8994 61.2787 83.211 61.5795C83.3972 61.7511 83.6215 61.8761 83.8653 61.9443C84.1092 62.0126 84.3657 62.022 84.614 61.972C84.8622 61.9219 85.095 61.8138 85.2934 61.6564C85.4918 61.499 85.65 61.2968 85.7552 61.0665L86.3615 61.2106C86.2112 61.6331 85.9287 61.9959 85.5559 62.2452C85.1768 62.4885 84.7341 62.614 84.2838 62.6056C83.9934 62.6095 83.7051 62.5547 83.4363 62.4447C83.1675 62.3347 82.9236 62.1717 82.7191 61.9654C82.5005 61.7507 82.3291 61.4927 82.2159 61.208C82.1027 60.9232 82.0503 60.6179 82.0619 60.3117C82.0515 60.0089 82.1028 59.707 82.2125 59.4246C82.3222 59.1421 82.4882 58.8848 82.7003 58.6683C82.9124 58.4519 83.1663 58.2807 83.4465 58.1653C83.7267 58.0498 84.0274 57.9925 84.3304 57.9966C84.6098 57.9901 84.8874 58.041 85.1464 58.146C85.4053 58.251 85.6399 58.408 85.8357 58.6072C86.2493 59.028 86.4808 59.5946 86.4803 60.1845L86.4675 60.4347ZM83.2873 58.9549C82.982 59.195 82.7826 59.545 82.7319 59.9301H85.7849C85.749 59.5506 85.5702 59.1989 85.2845 58.9464C85.0178 58.7121 84.6727 58.5865 84.3177 58.5945C83.9449 58.5866 83.5809 58.708 83.2873 58.938V58.9549Z" fill="#FDFDFD"/>
<path d="M88.5244 62.4908V56.084H89.1986V62.4908H88.5244Z" fill="#FDFDFD"/>
<path d="M94.8126 61.1552C94.8253 61.2908 94.8705 61.4213 94.9443 61.5357C95.0181 61.65 95.1184 61.745 95.2366 61.8125C95.5024 61.9762 95.8108 62.0573 96.1228 62.0457C96.3922 62.0585 96.6589 61.9874 96.8861 61.8421C96.9755 61.7828 97.0487 61.7021 97.0991 61.6073C97.1495 61.5126 97.1753 61.4067 97.1744 61.2994C97.1744 60.9814 96.9327 60.7736 96.4536 60.6676L95.4486 60.4429C94.6896 60.2818 94.308 59.9087 94.308 59.3235C94.3032 59.1388 94.3417 58.9555 94.4205 58.7884C94.4993 58.6212 94.6161 58.4749 94.7617 58.361C95.1122 58.104 95.5403 57.9753 95.9744 57.9964C96.3968 57.9811 96.8134 58.0982 97.1659 58.3313C97.4711 58.5387 97.6839 58.8564 97.7596 59.2175L97.1023 59.3617C97.0595 59.1252 96.9255 58.9151 96.7292 58.7765C96.5006 58.6184 96.2266 58.5395 95.949 58.5518C95.6952 58.5362 95.4438 58.608 95.2366 58.7554C95.1546 58.814 95.0882 58.8918 95.0432 58.9819C94.9981 59.0721 94.9757 59.1719 94.978 59.2726C94.9741 59.3459 94.987 59.4192 95.0156 59.4868C95.0443 59.5544 95.0879 59.6145 95.1433 59.6627C95.2925 59.7701 95.4632 59.8439 95.6437 59.879L96.7037 60.1079C97.4585 60.2775 97.8317 60.6592 97.8317 61.257C97.84 61.4501 97.8002 61.6423 97.7158 61.8163C97.6314 61.9902 97.5051 62.1404 97.3483 62.2534C96.973 62.5046 96.5273 62.6294 96.0762 62.6096C95.6159 62.6253 95.1608 62.5075 94.7659 62.2704C94.5984 62.168 94.4569 62.0282 94.3524 61.8619C94.248 61.6957 94.1834 61.5075 94.1638 61.3121L94.8126 61.1552Z" fill="#FDFDFD"/>
<path d="M100.643 56.457C100.686 56.4993 100.72 56.5497 100.744 56.6054C100.767 56.6611 100.779 56.721 100.779 56.7814C100.779 56.8418 100.767 56.9017 100.744 56.9574C100.72 57.0131 100.686 57.0635 100.643 57.1058C100.551 57.1913 100.429 57.237 100.304 57.233C100.243 57.2346 100.182 57.2241 100.126 57.2023C100.069 57.1805 100.017 57.1477 99.9728 57.1058C99.8886 57.0188 99.8416 56.9025 99.8416 56.7814C99.8416 56.6603 99.8886 56.544 99.9728 56.457C100.062 56.373 100.181 56.3262 100.304 56.3262C100.426 56.3262 100.545 56.373 100.634 56.457H100.643ZM99.9728 62.4907V58.0895H100.66V62.478L99.9728 62.4907Z" fill="#FDFDFD"/>
<path d="M109.675 58.4534C109.831 58.6106 109.953 58.7983 110.033 59.0048C110.114 59.2112 110.15 59.432 110.142 59.6534V62.49H109.467V59.7848C109.477 59.6291 109.453 59.4731 109.398 59.3271C109.344 59.181 109.259 59.048 109.149 58.9368C109.042 58.8311 108.915 58.7483 108.775 58.6937C108.635 58.639 108.485 58.6135 108.335 58.6188C108.15 58.6107 107.966 58.6447 107.797 58.7181C107.627 58.7916 107.476 58.9026 107.356 59.0428C107.096 59.3853 106.966 59.8092 106.991 60.2385V62.4815H106.317V59.7848C106.326 59.6291 106.303 59.4731 106.248 59.3271C106.193 59.181 106.108 59.048 105.999 58.9368C105.894 58.8316 105.769 58.7492 105.631 58.6945C105.493 58.6397 105.346 58.614 105.197 58.6188C105.013 58.6101 104.83 58.6438 104.66 58.7173C104.491 58.7908 104.341 58.9022 104.222 59.0428C103.964 59.3858 103.836 59.8098 103.862 60.2385V62.4815H103.188V58.0888H103.862V58.7587C104.019 58.508 104.24 58.3038 104.502 58.1674C104.765 58.0309 105.059 57.9672 105.354 57.9828C105.671 57.9776 105.984 58.0598 106.257 58.2202C106.517 58.3722 106.724 58.6001 106.851 58.8732C107.019 58.5881 107.262 58.3544 107.554 58.1974C107.845 58.0405 108.174 57.9662 108.505 57.9828C108.722 57.9785 108.937 58.0179 109.138 58.0988C109.339 58.1797 109.522 58.3003 109.675 58.4534Z" fill="#FDFDFD"/>
<path d="M116.455 58.6403C116.87 59.0936 117.1 59.6858 117.1 60.3002C117.1 60.9147 116.87 61.5069 116.455 61.9602C116.255 62.1667 116.015 62.3303 115.749 62.4411C115.484 62.5519 115.199 62.6076 114.911 62.6047C114.576 62.6215 114.242 62.5565 113.938 62.4154C113.634 62.2743 113.368 62.0614 113.164 61.7949V63.9997H112.49V58.089H113.164V58.7929C113.368 58.5264 113.634 58.3135 113.938 58.1724C114.242 58.0313 114.576 57.9663 114.911 57.983C115.2 57.9818 115.486 58.0395 115.751 58.1525C116.016 58.2655 116.256 58.4315 116.455 58.6403ZM115.967 61.532C116.126 61.3702 116.249 61.1776 116.33 60.966C116.411 60.7545 116.448 60.5286 116.438 60.3024C116.448 60.0748 116.411 59.8476 116.331 59.6347C116.25 59.4218 116.126 59.2276 115.967 59.0643C115.66 58.7608 115.246 58.5906 114.814 58.5906C114.382 58.5906 113.968 58.7608 113.661 59.0643C113.343 59.3938 113.165 59.8339 113.165 60.2918C113.165 60.7497 113.343 61.1897 113.661 61.5193C113.969 61.8207 114.383 61.9895 114.814 61.9895C115.245 61.9895 115.659 61.8207 115.967 61.5193V61.532Z" fill="#FDFDFD"/>
<path d="M119.152 62.4908V56.084H119.83V62.4908H119.152Z" fill="#FDFDFD"/>
<path d="M123.028 56.4578C123.073 56.4984 123.108 56.5481 123.132 56.6037C123.157 56.6593 123.169 56.7194 123.167 56.78C123.17 56.841 123.159 56.9017 123.135 56.9581C123.112 57.0144 123.077 57.0651 123.032 57.1065C122.987 57.1493 122.933 57.1825 122.875 57.2044C122.817 57.2262 122.755 57.2362 122.693 57.2337C122.571 57.2363 122.454 57.1905 122.366 57.1065C122.302 57.0422 122.259 56.9605 122.242 56.8717C122.225 56.7829 122.234 56.6909 122.269 56.6075C122.304 56.524 122.363 56.4528 122.438 56.4027C122.514 56.3527 122.602 56.3261 122.693 56.3263C122.754 56.3247 122.816 56.3355 122.873 56.3581C122.931 56.3807 122.983 56.4146 123.028 56.4578ZM122.358 62.4914V58.0902H123.04V62.4787L122.358 62.4914Z" fill="#FDFDFD"/>
<path d="M129.447 62.4911H128.76V58.675H126.403V62.4911H125.729V58.675H124.961V58.0899H125.729V57.4539C125.721 57.2503 125.755 57.0474 125.827 56.8572C125.9 56.667 126.011 56.4935 126.153 56.3472C126.298 56.2048 126.47 56.0937 126.66 56.0208C126.849 55.9479 127.052 55.9146 127.255 55.9232C127.542 55.9189 127.825 55.9922 128.073 56.1352L127.9 56.6864C127.716 56.5872 127.51 56.5348 127.302 56.5338C127.183 56.5273 127.064 56.5459 126.953 56.5882C126.842 56.6306 126.741 56.6958 126.657 56.7797C126.494 56.9603 126.409 57.198 126.42 57.4411V58.0899H129.464L129.447 62.4911ZM128.769 57.1062C128.685 57.0192 128.638 56.9029 128.638 56.7818C128.638 56.6607 128.685 56.5444 128.769 56.4574C128.812 56.4142 128.864 56.3802 128.921 56.3576C128.977 56.335 129.038 56.3242 129.1 56.326C129.161 56.3244 129.223 56.3352 129.28 56.3578C129.338 56.3804 129.39 56.4142 129.435 56.4574C129.478 56.4992 129.512 56.5493 129.535 56.6047C129.559 56.6601 129.571 56.7196 129.57 56.7797C129.573 56.8404 129.563 56.9009 129.54 56.9572C129.517 57.0135 129.483 57.0643 129.439 57.1062C129.347 57.1917 129.225 57.2375 129.1 57.2334C129.039 57.235 128.978 57.2246 128.921 57.2027C128.865 57.1809 128.813 57.1481 128.769 57.1062Z" fill="#FDFDFD"/>
<path d="M135.995 60.4347H132.234C132.238 60.6495 132.284 60.8613 132.371 61.0578C132.458 61.2544 132.582 61.4317 132.738 61.5795C132.924 61.7511 133.149 61.8761 133.393 61.9444C133.636 62.0126 133.893 62.022 134.141 61.972C134.389 61.9219 134.622 61.8138 134.821 61.6564C135.019 61.499 135.177 61.2968 135.282 61.0665L135.889 61.2107C135.736 61.632 135.454 61.9942 135.083 62.2452C134.704 62.4878 134.261 62.6132 133.811 62.6056C133.521 62.61 133.232 62.5555 132.963 62.4454C132.694 62.3354 132.45 62.1721 132.246 61.9654C132.027 61.7509 131.855 61.4931 131.741 61.2083C131.627 60.9236 131.574 60.6182 131.585 60.3118C131.576 60.0092 131.628 59.7079 131.738 59.4259C131.848 59.144 132.014 58.8872 132.226 58.671C132.438 58.4548 132.691 58.2836 132.971 58.1677C133.251 58.0519 133.551 57.9937 133.853 57.9967C134.133 57.9901 134.412 58.0408 134.671 58.1458C134.931 58.2508 135.166 58.4079 135.363 58.6072C135.775 59.029 136.006 59.5949 136.007 60.1846L135.995 60.4347ZM132.815 58.9549C132.508 59.1938 132.308 59.5445 132.259 59.9301H135.308C135.272 59.5517 135.094 59.2007 134.812 58.9464C134.543 58.7122 134.197 58.5867 133.841 58.5945C133.469 58.5873 133.107 58.7086 132.815 58.938V58.9549Z" fill="#FDFDFD"/>
<path d="M142.257 62.4908H141.579V61.7954C141.376 62.0621 141.111 62.2752 140.808 62.4164C140.504 62.5575 140.17 62.6224 139.836 62.6052C139.548 62.6081 139.263 62.5524 138.998 62.4416C138.733 62.3308 138.493 62.1672 138.293 61.9607C137.878 61.5074 137.648 60.9152 137.648 60.3007C137.648 59.6863 137.878 59.0941 138.293 58.6408C138.493 58.4343 138.733 58.2707 138.998 58.1599C139.263 58.0491 139.548 57.9934 139.836 57.9963C140.17 57.9791 140.504 58.044 140.808 58.1851C141.111 58.3263 141.376 58.5394 141.579 58.8061V56.084H142.257V62.4908ZM141.087 61.524C141.333 61.2921 141.504 60.9919 141.578 60.662C141.652 60.3322 141.626 59.9877 141.503 59.6728C141.38 59.3579 141.166 59.0869 140.887 58.8947C140.609 58.7025 140.28 58.5978 139.942 58.5941C139.725 58.5886 139.509 58.6275 139.308 58.7084C139.107 58.7894 138.924 58.9106 138.772 59.0648C138.615 59.2294 138.493 59.4238 138.413 59.6365C138.333 59.8492 138.296 60.0758 138.305 60.3029C138.295 60.5296 138.332 60.7559 138.413 60.9676C138.495 61.1793 138.62 61.3717 138.78 61.5325C138.932 61.6856 139.113 61.806 139.313 61.8863C139.512 61.9665 139.727 62.0048 139.942 61.9989C140.155 61.9997 140.366 61.9581 140.562 61.8766C140.759 61.7951 140.937 61.6752 141.087 61.524Z" fill="#FDFDFD"/>
<path d="M145.166 61.7526C145.209 61.7935 145.243 61.8429 145.266 61.8977C145.288 61.9525 145.299 62.0114 145.298 62.0706C145.299 62.1299 145.288 62.1888 145.266 62.2436C145.243 62.2983 145.209 62.3477 145.166 62.3886C145.076 62.4706 144.959 62.516 144.838 62.516C144.716 62.516 144.599 62.4706 144.509 62.3886C144.465 62.3481 144.431 62.2989 144.407 62.2441C144.384 62.1893 144.372 62.1302 144.373 62.0706C144.372 62.0111 144.384 61.9519 144.407 61.8972C144.431 61.8424 144.465 61.7931 144.509 61.7526C144.596 61.6659 144.715 61.6172 144.838 61.6172C144.961 61.6172 145.079 61.6659 145.166 61.7526Z" fill="#FDFDFD"/>
</svg>
