<svg width="24" height="25" viewBox="0 0 24 25" fill="none" xmlns="http://www.w3.org/2000/svg">
<g clip-path="url(#clip0_1065_6240)">
<path d="M24 12.9999C24.0003 10.7067 23.3437 8.46154 22.1077 6.53003C20.8717 4.59852 19.1081 3.0616 17.0258 2.1012C14.9435 1.14081 12.6296 0.797151 10.358 1.11092C8.08647 1.42469 5.95238 2.38275 4.20839 3.87168C2.4644 5.3606 1.18353 7.31805 0.517426 9.5123C-0.148679 11.7065 -0.172134 14.0457 0.44984 16.2529C1.07181 18.46 2.31317 20.4428 4.02696 21.9664C5.74074 23.49 7.85519 24.4906 10.12 24.8499V16.4699H7.12V12.9999H10.12V10.3599C10.12 7.35987 11.92 5.68987 14.66 5.68987C15.558 5.70187 16.453 5.77987 17.34 5.91987V8.91987H15.83C15.5728 8.88584 15.3112 8.91008 15.0647 8.99082C14.8181 9.07156 14.5929 9.20671 14.4056 9.38628C14.2184 9.56585 14.0739 9.78524 13.9829 10.0282C13.8919 10.2712 13.8568 10.5315 13.88 10.7899V12.9999H17.2L16.67 16.4699H13.88V24.8499C16.7012 24.4024 19.2702 22.9632 21.1252 20.791C22.9802 18.6189 23.9996 15.8563 24 12.9999Z" fill="#FDFDFD"/>
</g>
<defs>
<clipPath id="clip0_1065_6240">
<rect width="24" height="25" fill="white"/>
</clipPath>
</defs>
</svg>
