<svg width="24" height="24" viewBox="0 0 24 24" fill="none" xmlns="http://www.w3.org/2000/svg">
<path d="M1.56581 1.66689C-0.315128 3.62063 0.0698354 5.69604 0.0698354 12.0011C0.0698354 17.237 -0.843705 22.4858 3.93742 23.7215C5.4304 24.1055 18.6588 24.1055 20.1498 23.7195C22.1404 23.2059 23.76 21.5912 23.9814 18.7758C24.0124 18.3829 24.0124 5.62623 23.9805 5.22531C23.7451 2.22638 21.8991 0.498035 19.4666 0.147978C18.9091 0.0671955 18.7974 0.04326 15.9371 0.0382734C5.79143 0.04326 3.56742 -0.408524 1.56581 1.66689Z" fill="url(#paint0_linear_1065_5689)"/>
<path d="M12.0355 3.16869C8.41428 3.16869 4.97554 2.84655 3.66208 6.21748C3.11954 7.60973 3.19833 9.41786 3.19833 12.0069C3.19833 14.2788 3.12552 16.414 3.66208 17.7953C4.97255 21.1682 8.43921 20.8451 12.0335 20.8451C15.5012 20.8451 19.0766 21.2061 20.406 17.7953C20.9495 16.3891 20.8697 14.6079 20.8697 12.0069C20.8697 8.55419 21.0602 6.32519 19.3857 4.65169C17.6903 2.95626 15.3975 3.16869 12.0315 3.16869H12.0355ZM11.2437 4.7614C18.7973 4.74943 19.7587 3.90969 19.2282 15.5753C19.0397 19.7012 15.8981 19.2484 12.0365 19.2484C4.99549 19.2484 4.79303 19.0469 4.79303 12.0029C4.79303 4.87709 5.35153 4.76539 11.2437 4.7594V4.7614ZM16.7528 6.22845C16.1674 6.22845 15.6927 6.70317 15.6927 7.28859C15.6927 7.87402 16.1674 8.34874 16.7528 8.34874C17.3383 8.34874 17.813 7.87402 17.813 7.28859C17.813 6.70317 17.3383 6.22845 16.7528 6.22845ZM12.0355 7.46811C9.52928 7.46811 7.49775 9.50064 7.49775 12.0069C7.49775 14.5131 9.52928 16.5447 12.0355 16.5447C14.5418 16.5447 16.5723 14.5131 16.5723 12.0069C16.5723 9.50064 14.5418 7.46811 12.0355 7.46811ZM12.0355 9.06082C15.93 9.06082 15.935 14.953 12.0355 14.953C8.14201 14.953 8.13603 9.06082 12.0355 9.06082Z" fill="white"/>
<defs>
<linearGradient id="paint0_linear_1065_5689" x1="1.6117" y1="22.445" x2="23.8573" y2="3.19176" gradientUnits="userSpaceOnUse">
<stop stop-color="#FFDD55"/>
<stop offset="0.5" stop-color="#FF543E"/>
<stop offset="1" stop-color="#C837AB"/>
</linearGradient>
</defs>
</svg>
