<svg width="24" height="24" viewBox="0 0 24 24" fill="none" xmlns="http://www.w3.org/2000/svg">
<path d="M3.87003 7.7493V16.1493C3.87003 17.1783 4.27881 18.1652 5.00646 18.8929C5.7341 19.6205 6.72099 20.0293 7.75003 20.0293H16.25C17.2791 20.0293 18.266 19.6205 18.9936 18.8929C19.7212 18.1652 20.13 17.1783 20.13 16.1493V7.7493C20.13 6.72026 19.7212 5.73336 18.9936 5.00572C18.266 4.27808 17.2791 3.8693 16.25 3.8693H7.75003C6.72099 3.8693 5.7341 4.27808 5.00646 5.00572C4.27881 5.73336 3.87003 6.72026 3.87003 7.7493ZM2.03003 7.7493C2.03267 6.23307 2.63616 4.7797 3.7083 3.70757C4.78043 2.63543 6.2338 2.03194 7.75003 2.0293H16.25C17.768 2.02929 19.2239 2.63162 20.2982 3.70404C21.3725 4.77646 21.9774 6.23134 21.98 7.7493V16.1493C21.9774 17.6673 21.3725 19.1221 20.2982 20.1946C19.2239 21.267 17.768 21.8693 16.25 21.8693H7.75003C6.2338 21.8667 4.78043 21.2632 3.7083 20.191C2.63616 19.1189 2.03267 17.6655 2.03003 16.1493V7.7493Z" fill="#FDFDFD"/>
<path d="M12.0301 17.2809C10.6374 17.2809 9.30179 16.7276 8.31704 15.7429C7.33228 14.7581 6.77905 13.4225 6.77905 12.0299C6.77905 10.6372 7.33228 9.30159 8.31704 8.31684C9.30179 7.33209 10.6374 6.77886 12.0301 6.77886C13.4227 6.77886 14.7583 7.33209 15.7431 8.31684C16.7278 9.30159 17.2811 10.6372 17.2811 12.0299C17.2811 13.4225 16.7278 14.7581 15.7431 15.7429C14.7583 16.7276 13.4227 17.2809 12.0301 17.2809ZM12.0301 15.4309C12.9318 15.4309 13.7966 15.0726 14.4342 14.435C15.0718 13.7974 15.4301 12.9326 15.4301 12.0309C15.4301 11.1291 15.0718 10.2643 14.4342 9.6267C13.7966 8.98907 12.9318 8.63086 12.0301 8.63086C11.1283 8.63086 10.2635 8.98907 9.62589 9.6267C8.98827 10.2643 8.63005 11.1291 8.63005 12.0309C8.63005 12.9326 8.98827 13.7974 9.62589 14.435C10.2635 15.0726 11.1283 15.4309 12.0301 15.4309ZM17.3301 7.92086C17.6669 7.92086 17.9899 7.78706 18.2281 7.54888C18.4663 7.31071 18.6001 6.98768 18.6001 6.65086C18.6001 6.31403 18.4663 5.99101 18.2281 5.75283C17.9899 5.51466 17.6669 5.38086 17.3301 5.38086C16.9932 5.38086 16.6702 5.51466 16.432 5.75283C16.1939 5.99101 16.0601 6.31403 16.0601 6.65086C16.0601 6.98768 16.1939 7.31071 16.432 7.54888C16.6702 7.78706 16.9932 7.92086 17.3301 7.92086Z" fill="#FDFDFD"/>
</svg>
