<svg width="22" height="22" viewBox="0 0 22 22" fill="none" xmlns="http://www.w3.org/2000/svg">
<path fill-rule="evenodd" clip-rule="evenodd" d="M18.395 18.395H15.275V13.52C15.275 12.365 15.275 10.865 13.655 10.865C12.035 10.865 11.795 12.125 11.795 13.43V18.38H8.69V8.39H11.675V9.755H11.705C12.125 8.975 13.145 8.135 14.66 8.135C17.81 8.135 18.395 10.22 18.395 12.92V18.41V18.395ZM5.165 6.995C4.68761 6.995 4.22977 6.80536 3.89221 6.46779C3.55464 6.13023 3.365 5.67239 3.365 5.195C3.365 4.71761 3.55464 4.25977 3.89221 3.92221C4.22977 3.58464 4.68761 3.395 5.165 3.395C5.64239 3.395 6.10023 3.58464 6.43779 3.92221C6.77536 4.25977 6.965 4.71761 6.965 5.195C6.965 5.67239 6.77536 6.13023 6.43779 6.46779C6.10023 6.80536 5.64239 6.995 5.165 6.995ZM6.725 18.395H3.605V8.375H6.725V18.395ZM20.63 0.5H1.37C1.13926 0.5 0.917974 0.59166 0.754817 0.754817C0.59166 0.917974 0.5 1.13926 0.5 1.37V20.63C0.5 21.11 0.89 21.5 1.37 21.5H20.63C21.11 21.5 21.5 21.11 21.5 20.63V1.37C21.5 1.25575 21.4775 1.14262 21.4338 1.03707C21.3901 0.931512 21.326 0.835604 21.2452 0.754817C21.1644 0.67403 21.0685 0.609946 20.9629 0.566225C20.8574 0.522503 20.7442 0.5 20.63 0.5Z" fill="#FDFDFD"/>
</svg>
