<svg width="209" height="94" viewBox="0 0 209 94" fill="none" xmlns="http://www.w3.org/2000/svg">
<path d="M171.724 15.9274C174.329 18.6002 175.632 22.6292 175.632 28.0175V48.5178H160.782V30.5798C160.782 26.4632 159.446 24.4034 156.774 24.4034C155.372 24.4034 154.245 24.9298 153.39 25.9806C152.536 27.0324 152.109 28.6971 152.109 30.9748V48.5178H137.26V30.5798C137.26 26.4632 135.922 24.4034 133.252 24.4034C131.849 24.4034 130.721 24.9298 129.867 25.9806C129.013 27.0324 128.585 28.6971 128.585 30.9748V48.5178H113.735V12.576H127.862V15.9274C130.534 13.2557 133.93 11.9193 138.048 11.9193C140.457 11.9193 142.624 12.3691 144.553 13.2656C146.48 14.1642 148.057 15.5334 149.283 17.3732C150.729 15.6219 152.48 14.2736 154.54 13.3313C156.599 12.3899 158.854 11.9193 161.308 11.9193C165.645 11.9193 169.117 13.2557 171.724 15.9274Z" fill="white"/>
<path d="M208.552 47.2706C206.319 48.5393 203.272 49.1761 199.418 49.1761C194.381 49.1761 190.504 47.9602 187.789 45.5292C185.071 43.0983 183.714 39.4514 183.714 34.5885V25.3901H178.787V14.5468H183.714V4.49468H198.565V14.5468H205.923V25.3901H198.565V34.4571C198.565 35.5527 198.85 36.4065 199.418 37.0194C199.989 37.6334 200.734 37.9399 201.652 37.9399C202.922 37.9399 204.04 37.6105 205.005 36.9547L208.552 47.2706Z" fill="white"/>
<path d="M68.2918 61.768C64.3374 58.7072 59.7342 59.6893 55.8843 62.4934C55.3281 62.8984 54.7927 63.3322 54.2733 63.784C43.3972 73.273 41.0777 86.587 42.8688 93.5365C42.8688 93.5365 43.6798 86.1352 51.5787 81.1101C56.1948 78.1737 62 78.2374 66.7057 75.5497C70.3148 73.4889 72.0333 68.5633 70.5466 64.7741C70.0988 63.6328 69.3585 62.5939 68.2918 61.768Z" fill="white"/>
<path d="M39.861 50.0167C40.4113 49.6037 40.9477 49.1699 41.4591 48.7102C45.0025 45.5279 46.923 41.2302 44.7528 36.7256C44.1667 35.5096 43.305 34.5703 42.281 33.8936C38.8849 31.6507 33.7095 32.3065 30.9423 35.4061C27.3332 39.4511 26.1868 45.1418 22.3538 49.0445C15.7944 55.7244 8.38708 54.9771 8.38708 54.9771C14.8112 58.1752 28.3163 58.6787 39.861 50.0167Z" fill="white"/>
<path d="M46.7711 25.5263C45.9482 25.0517 45.0894 24.584 44.1839 24.3223C43.7799 24.2058 43.367 24.1302 42.9421 24.1143C41.5689 24.0606 40.0663 24.8198 39.7171 26.1482C39.4056 27.3314 40.0853 28.5782 41.0037 29.3862C41.9221 30.1942 43.0645 30.6947 44.0864 31.3673C47.9294 33.8958 49.7792 39.0901 48.401 43.4793C47.0089 47.9083 42.9938 50.8776 39.7818 54.23C33.1755 61.1298 29.4888 70.4555 22.6766 77.1504C19.6904 80.0868 16.133 82.4282 12.2791 84.0631C10.284 84.9079 8.2073 85.5646 6.08682 86.0174C4.09569 86.4403 1.93242 86.3398 0 86.8035C1.98914 88.4692 5.71367 89.1777 8.21626 89.6832C11.0442 90.2524 13.9459 90.4634 16.8256 90.2842C22.5721 89.926 28.2509 87.9727 32.7148 84.278C37.3737 80.4221 40.4912 75.0756 43.8854 70.0705C47.2796 65.0653 51.2778 60.1108 56.8392 57.7346C59.3657 56.655 62.1907 56.1584 64.8933 56.653C68.9193 57.3903 72.3085 60.283 74.028 63.9299C74.9932 65.9768 76.8948 70.0336 79.8203 68.4883C80.7974 67.9729 81.2701 66.7867 81.2412 65.6822C81.2123 64.5787 80.7715 63.5309 80.3178 62.5239C73.3593 47.1003 61.4294 33.9784 46.7711 25.5263Z" fill="white"/>
<path d="M82.5904 33.876C81.5307 32.3078 80.5038 30.9197 79.8271 30.0848C77.8868 27.627 73.5104 22.8775 64.6663 18.4107C64.6663 18.4107 64.6782 18.3997 64.7111 18.3769C75.5772 11.1278 91.2555 19.76 91.9759 32.5894C92.3819 38.8056 89.2574 43.2157 88.3658 44.3879C87.2036 41.749 85.3657 38.0274 82.5904 33.876ZM100.996 12.2751C91.3152 -0.541344 74.6737 -2.81905 60.3606 3.11154C53.0151 6.15545 46.382 11.079 41.4524 17.3281C41.4524 17.3281 78.439 35.4094 86.313 68.8098C89.934 66.5659 93.0138 64.2305 95.6079 61.8284C95.7323 61.7259 95.8557 61.6135 95.98 61.4891C104.131 53.8599 109.048 43.5839 108.352 32.3118C107.909 25.1533 105.337 18.0216 100.996 12.2751Z" fill="white"/>
</svg>
