<?xml version="1.0" encoding="utf-8"?>
<!-- Generator: Adobe Illustrator 27.3.1, SVG Export Plug-In . SVG Version: 6.00 Build 0)  -->
<svg version="1.1" id="Layer_1" xmlns="http://www.w3.org/2000/svg" xmlns:xlink="http://www.w3.org/1999/xlink" x="0px" y="0px"
	 viewBox="0 0 3000 2000" style="enable-background:new 0 0 3000 2000;" xml:space="preserve">
<style type="text/css">
	.st0{fill:#9427F7;}
</style>
<g>
	<path class="st0" d="M2318.05,642.95c32.07,32.89,48.11,82.5,48.11,148.82v252.35h-182.79V823.31c0-50.67-16.45-76.03-49.34-76.03
		c-17.25,0-31.14,6.48-41.65,19.41c-10.51,12.94-15.76,33.44-15.76,61.47v215.95h-182.79V823.31c0-50.67-16.46-76.03-49.34-76.03
		c-17.27,0-31.14,6.48-41.65,19.41c-10.51,12.94-15.78,33.44-15.78,61.47v215.95h-182.79V601.69h173.89v41.26
		c32.89-32.88,74.68-49.34,125.38-49.34c29.65,0,56.32,5.54,80.07,16.58c23.71,11.06,43.13,27.91,58.22,50.55
		c17.8-21.55,39.35-38.14,64.71-49.74c25.33-11.58,53.1-17.39,83.3-17.39C2243.23,593.61,2285.97,610.07,2318.05,642.95z"/>
	<path class="st0" d="M2771.37,1028.75c-27.49,15.63-64.98,23.46-112.42,23.46c-62.01,0-109.74-14.96-143.16-44.89
		c-33.44-29.93-50.15-74.82-50.15-134.67V759.42h-60.66V625.96h60.66V502.22h182.79v123.74h90.59v133.46h-90.59v111.61
		c0,13.48,3.51,23.99,10.51,31.54c7,7.56,16.18,11.32,27.5,11.32c15.62,0,29.38-4.05,41.25-12.13L2771.37,1028.75z"/>
</g>
<g>
	<path class="st0" d="M1044.91,1207.2c-48.68-37.68-105.34-25.58-152.73,8.93c-6.85,4.99-13.44,10.33-19.83,15.9
		c-133.88,116.79-162.42,280.67-140.38,366.21c0,0,9.99-91.09,107.21-152.94c56.82-36.15,128.27-35.37,186.21-68.45
		c44.42-25.37,65.58-85.99,47.28-132.63C1067.15,1230.15,1058.05,1217.36,1044.91,1207.2z"/>
	<path class="st0" d="M694.96,1062.55c6.78-5.08,13.37-10.42,19.68-16.08c43.62-39.17,67.25-92.06,40.53-147.52
		c-7.21-14.97-17.82-26.53-30.43-34.86c-41.8-27.61-105.5-19.53-139.56,18.63c-44.42,49.78-58.54,119.82-105.72,167.87
		c-80.74,82.22-171.91,73.02-171.91,73.02C386.62,1162.98,552.86,1169.18,694.96,1062.55z"/>
	<path class="st0" d="M780.01,761.1c-10.13-5.84-20.7-11.6-31.84-14.82c-4.97-1.44-10.06-2.36-15.28-2.57
		c-16.9-0.65-35.4,8.69-39.71,25.05c-3.83,14.56,4.53,29.9,15.84,39.85c11.31,9.95,25.37,16.11,37.95,24.38
		c47.3,31.12,70.07,95.07,53.1,149.08c-17.14,54.52-66.56,91.07-106.09,132.34c-81.32,84.91-126.7,199.71-210.55,282.13
		c-36.76,36.13-80.55,64.96-127.98,85.07c-24.57,10.42-50.13,18.5-76.23,24.06c-24.51,5.22-51.13,3.97-74.91,9.67
		c24.48,20.51,70.32,29.24,101.14,35.45c34.8,7.01,70.52,9.61,105.96,7.4c70.73-4.4,140.64-28.45,195.58-73.92
		c57.34-47.47,95.72-113.27,137.5-174.88c41.78-61.61,91-122.6,159.45-151.85c31.1-13.29,65.87-19.4,99.14-13.31
		c49.55,9.07,91.26,44.69,112.43,89.57c11.88,25.2,35.3,75.13,71.3,56.12c12.03-6.35,17.85-20.95,17.49-34.54
		c-0.35-13.59-5.78-26.49-11.37-38.88C1107.29,1026.65,960.44,865.13,780.01,761.1z"/>
	<path class="st0" d="M1447.47,597.99c-119.17-157.76-324-185.8-500.17-112.8c-90.42,37.47-172.07,98.07-232.75,174.99
		c0,0,455.28,222.57,552.19,633.7c44.57-27.63,82.47-56.37,114.41-85.95c1.53-1.25,3.05-2.64,4.58-4.17
		c100.33-93.91,160.86-220.41,152.28-359.15C1532.56,756.51,1500.89,668.72,1447.47,597.99z M1220.91,863.88
		c-13.05-19.3-25.69-36.38-34.02-46.65c-23.88-30.27-77.75-88.72-186.61-143.71c0,0,0.14-0.14,0.55-0.42
		c133.75-89.23,326.74,17.02,335.59,174.95c5,76.5-33.46,130.79-44.43,145.23C1277.7,960.79,1255.07,914.97,1220.91,863.88z"/>
</g>
</svg>
