<svg width="24" height="24" viewBox="0 0 24 24" fill="none" xmlns="http://www.w3.org/2000/svg">
<path d="M12.7457 7.18503C12.3823 6.81336 11.816 6.72879 11.3598 6.97807C10.8825 7.24725 10.4989 7.65593 10.2605 8.14932C10.1603 8.33417 10.0794 8.52884 10.019 8.73025C9.85249 9.2936 9.88909 10.0288 10.3486 10.3968C10.8511 10.8003 11.6986 10.6297 12.1755 10.2183C12.5144 9.91305 12.8073 9.56034 13.0451 9.17116C13.1261 8.81844 13.2037 8.45613 13.2746 8.11259C13.2621 8.09516 13.2511 8.07677 13.2415 8.0576C13.1398 7.73495 12.9709 7.43754 12.7457 7.18503Z" fill="#099045"/>
<path d="M10.3623 0.588434L9.38403 1.28298H14.6147L13.6633 0.608319C12.7124 -0.195211 11.3228 -0.203582 10.3623 0.588434Z" fill="#099045"/>
<path d="M21 10.0036L23.7253 7.73864L21 5.80664V10.0036Z" fill="#099045"/>
<path d="M3.85278 2.15918L3.85707 10.7167L10.3613 16.1223C11.3128 16.9081 12.6882 16.9078 13.6394 16.1217L20.1428 10.7165V2.1441C20.1415 2.1531 20.1244 2.14097 20.0956 2.14076H3.90421C3.88527 2.13959 3.86668 2.14625 3.85278 2.15918ZM8.46936 5.51156C8.61396 5.37073 8.76421 5.23583 8.92013 5.10686C10.3 3.95166 12.1603 3.5502 13.8937 4.03354C15.5719 4.56918 16.7315 6.10284 16.7895 7.86347C16.8523 8.87693 16.522 9.8756 15.8672 10.6517C15.3622 11.2878 14.544 11.5883 13.7474 11.4302C13.4215 11.3626 13.1372 11.1653 12.9599 10.8836C12.9309 10.8325 12.9061 10.7792 12.8859 10.724C12.8364 10.7712 12.7881 10.8209 12.7373 10.8652C12.2686 11.2606 11.6767 11.48 11.0636 11.4857C10.6106 11.4935 10.1687 11.3449 9.81241 11.065C8.98981 10.4067 8.96718 9.26306 9.1978 8.48421C9.27546 8.22484 9.37975 7.97419 9.50898 7.73627C9.83055 7.08746 10.3447 6.55385 10.9812 6.20846C11.7737 5.7972 12.7421 5.95315 13.3655 6.59246C13.4248 6.65542 13.4808 6.7215 13.5331 6.79041C13.5786 6.54613 13.6056 6.39368 13.6066 6.38798C13.6332 6.23717 13.7382 6.11201 13.8822 6.05965C14.0261 6.0073 14.187 6.0357 14.3043 6.13416C14.4216 6.23262 14.4775 6.38618 14.4508 6.537C14.4349 6.62657 14.0597 8.74723 13.6757 10.1985C13.6483 10.2789 13.6552 10.3671 13.6948 10.4423C13.754 10.5243 13.8434 10.5794 13.9433 10.5954C14.431 10.6768 14.9236 10.4812 15.2226 10.0874C15.731 9.47908 15.9858 8.69839 15.934 7.90727C15.8921 6.50583 14.9731 5.2823 13.6388 4.85156C12.1824 4.45094 10.6221 4.79313 9.46707 5.76647C9.32937 5.88077 9.19544 6.00043 9.06696 6.12557C8.4007 6.77366 7.33677 8.11843 7.69527 9.84557C7.93614 11.0522 8.79793 12.0411 9.96031 12.4446C11.9703 13.0858 14.8585 13.163 16.3803 11.2709C16.5298 11.0908 16.7961 11.064 16.9785 11.2106C17.161 11.3573 17.192 11.6231 17.0483 11.8078C15.9231 13.207 14.2107 13.7075 12.5307 13.7075C11.57 13.7031 10.6156 13.5526 9.70021 13.2612C8.23757 12.7718 7.15118 11.5336 6.8563 10.0197C6.53354 8.46574 7.12158 6.82238 8.46923 5.51156H8.46936Z" fill="#099045"/>
<path d="M24 23.5131V8.625L15.042 16.0701L24 23.5131Z" fill="#099045"/>
<path d="M0 8.625V23.5127L8.958 16.0701L0 8.625Z" fill="#099045"/>
<path d="M14.3714 16.627L14.1866 16.7806C12.9177 17.8292 11.0831 17.8295 9.814 16.7812L9.62843 16.627L0.757812 23.9971H23.2421L14.3714 16.627Z" fill="#099045"/>
<path d="M0.274414 7.73864L3.00013 10.0041V5.80664L0.274414 7.73864Z" fill="#099045"/>
</svg>
