<svg width="22" height="18" viewBox="0 0 22 18" fill="none" xmlns="http://www.w3.org/2000/svg">
<path fill-rule="evenodd" clip-rule="evenodd" d="M21.5 1.9499C20.75 2.3999 20 2.5499 19.1 2.6999C19.85 2.0999 20.6 1.1999 20.9 0.299905C20.15 0.749905 19.1 1.1999 18.2 1.3499C17.5419 0.690245 16.6893 0.259358 15.7678 0.1207C14.8464 -0.0179585 13.9048 0.142941 13.0816 0.579703C12.2585 1.01646 11.5974 1.706 11.1956 2.54677C10.7939 3.38754 10.6727 4.3351 10.85 5.2499C9.11739 5.17666 7.41986 4.73787 5.86878 3.96234C4.31771 3.1868 2.94816 2.09204 1.85 0.749905C1.29399 1.72948 1.13962 2.88655 1.41939 3.97763C1.69915 5.06871 2.39123 6.00873 3.35 6.59991C2.6 6.59991 1.85 6.2999 1.4 5.9999C1.4 8.09991 2.9 9.89991 4.85 10.3499C4.20838 10.4975 3.54162 10.4975 2.9 10.3499C3.35 11.9999 5 13.3499 6.95 13.3499C6.04709 14.0611 5.0122 14.5864 3.90512 14.8953C2.79804 15.2043 1.64071 15.2908 0.5 15.1499C2.38953 16.4208 4.5982 17.1352 6.87411 17.2114C9.15003 17.2877 11.4016 16.7229 13.3719 15.5813C15.3423 14.4397 16.9522 12.7674 18.0181 10.755C19.0839 8.74266 19.5627 6.47127 19.4 4.1999C20.15 3.5999 20.9 2.8499 21.5 1.9499Z" fill="#FDFDFD"/>
</svg>
