<svg width="24" height="24" viewBox="0 0 24 24" fill="none" xmlns="http://www.w3.org/2000/svg">
<path d="M0 24L2.064 17.8084C1.01669 16.0469 0.413793 13.9912 0.413793 11.7931C0.413793 5.28 5.69379 0 12.2069 0C18.72 0 24 5.28 24 11.7931C24 18.3062 18.72 23.5862 12.2069 23.5862C10.2252 23.5862 8.35903 23.095 6.72 22.2319L0 24Z" fill="#2CB742"/>
<path d="M19.7309 15.7186C19.1863 14.6895 17.1782 13.5126 17.1782 13.5126C16.7239 13.2536 16.1756 13.2246 15.9166 13.6864C15.9166 13.6864 15.264 14.4689 15.0981 14.5815C14.34 15.095 13.6378 15.0751 12.929 14.3663L11.2817 12.719L9.63434 11.0717C8.92552 10.3628 8.90565 9.66062 9.41917 8.90255C9.53172 8.73662 10.3142 8.08407 10.3142 8.08407C10.776 7.82462 10.747 7.27676 10.488 6.82242C10.488 6.82242 9.31117 4.81428 8.28207 4.26973C7.84427 4.038 7.30676 4.11911 6.95669 4.46918L6.22924 5.19662C3.92152 7.50435 5.05779 10.1096 7.36552 12.4173L9.47462 14.5264L11.5837 16.6355C13.8914 18.9432 16.4967 20.0795 18.8044 17.7718L19.5319 17.0443C19.8819 16.6935 19.9626 16.1559 19.7309 15.7186Z" fill="white"/>
</svg>
