<svg width="276" height="248" viewBox="0 0 276 248" fill="none" xmlns="http://www.w3.org/2000/svg">
<g clip-path="url(#clip0_100_3765)">
<path d="M141.349 0.54029L132.368 2.85619L21.7258 31.3886L12.7453 33.7045C8.3862 34.8339 4.65312 37.6462 2.36501 41.5245C0.0769043 45.4028 -0.579366 50.0304 0.540177 54.392L39.4818 205.399C40.6112 209.758 43.4235 213.491 47.3018 215.779C51.1801 218.067 55.8077 218.724 60.1693 217.604L60.1925 217.598L188.749 184.446L188.773 184.44C193.132 183.311 196.865 180.498 199.153 176.62C201.441 172.742 202.097 168.114 200.978 163.752L162.036 12.7454C160.907 8.38638 158.094 4.65328 154.216 2.36516C150.338 0.0770393 145.71 -0.579246 141.349 0.54029Z" fill="#F2F2F2"/>
<path d="M142.569 5.27425L131.933 8.01728L24.6027 35.6955L13.966 38.4385C10.8618 39.2427 8.20335 41.2455 6.57393 44.0073C4.9445 46.7691 4.47715 50.0645 5.2744 53.1705L44.2161 204.177C45.0203 207.282 47.023 209.94 49.7849 211.57C52.5467 213.199 55.8421 213.666 58.9481 212.869L58.9713 212.863L187.528 179.711L187.552 179.705C190.656 178.901 193.314 176.898 194.944 174.136C196.573 171.374 197.04 168.079 196.243 164.973L157.301 13.9658C156.497 10.8617 154.494 8.20326 151.733 6.57384C148.971 4.94441 145.675 4.47704 142.569 5.27425Z" fill="white"/>
<path d="M134.538 54.1749L69.504 70.9458C68.7776 71.1331 68.0066 71.0242 67.3605 70.6431C66.7145 70.2619 66.2463 69.6397 66.059 68.9133C65.8717 68.187 65.9806 67.4159 66.3617 66.7699C66.7429 66.1238 67.3651 65.6556 68.0914 65.4683L133.125 48.6974C133.851 48.5108 134.622 48.6202 135.267 49.0014C135.913 49.3826 136.381 50.0045 136.568 50.7305C136.755 51.4564 136.646 52.227 136.266 52.8729C135.885 53.5187 135.264 53.987 134.538 54.1749Z" fill="#F2F2F2"/>
<path d="M148.219 60.5041L71.8875 80.1884C71.1612 80.3757 70.3901 80.2668 69.7441 79.8856C69.098 79.5045 68.6298 78.8823 68.4425 78.1559C68.2552 77.4296 68.3641 76.6585 68.7453 76.0125C69.1264 75.3664 69.7486 74.8982 70.475 74.7109L146.806 55.0266C147.533 54.8393 148.304 54.9482 148.95 55.3294C149.596 55.7105 150.064 56.3327 150.251 57.0591C150.439 57.7855 150.33 58.5565 149.948 59.2025C149.567 59.8486 148.945 60.3168 148.219 60.5041Z" fill="#F2F2F2"/>
<path d="M145.22 95.5979L80.1861 112.369C79.8265 112.462 79.452 112.483 79.0843 112.431C78.7165 112.379 78.3626 112.255 78.0427 112.066C77.7228 111.877 77.4432 111.627 77.2198 111.331C76.9965 111.034 76.8338 110.696 76.7411 110.336C76.6483 109.977 76.6273 109.602 76.6793 109.234C76.7312 108.867 76.8551 108.513 77.0438 108.193C77.2326 107.873 77.4825 107.593 77.7793 107.37C78.076 107.147 78.4139 106.984 78.7736 106.891L143.807 90.1204C144.167 90.0276 144.541 90.0066 144.909 90.0586C145.277 90.1105 145.631 90.2344 145.951 90.4231C146.271 90.6118 146.55 90.8617 146.774 91.1585C146.997 91.4553 147.16 91.7932 147.252 92.1528C147.345 92.5125 147.366 92.8869 147.314 93.2547C147.262 93.6225 147.138 93.9764 146.95 94.2963C146.761 94.6162 146.511 94.8958 146.214 95.1191C145.917 95.3424 145.58 95.5051 145.22 95.5979Z" fill="#F2F2F2"/>
<path d="M158.901 101.928L82.57 121.612C82.2104 121.705 81.8359 121.726 81.4682 121.674C81.1004 121.622 80.7465 121.498 80.4266 121.309C80.1067 121.121 79.8271 120.871 79.6037 120.574C79.3804 120.277 79.2177 119.939 79.125 119.58C79.0323 119.22 79.0113 118.846 79.0632 118.478C79.1151 118.11 79.239 117.756 79.4278 117.436C79.6165 117.116 79.8664 116.837 80.1632 116.613C80.4599 116.39 80.7978 116.227 81.1575 116.135L157.489 96.4504C158.215 96.2631 158.986 96.372 159.632 96.7532C160.278 97.1344 160.746 97.7566 160.934 98.4829C161.121 99.2093 161.012 99.9803 160.631 100.626C160.25 101.272 159.628 101.741 158.901 101.928Z" fill="#F2F2F2"/>
<path d="M155.902 137.022L90.8685 153.793C90.1424 153.979 89.3718 153.87 88.7262 153.489C88.0805 153.108 87.6127 152.486 87.4254 151.76C87.2382 151.034 87.3469 150.263 87.7277 149.617C88.1085 148.971 88.7301 148.503 89.456 148.315L154.49 131.544C155.216 131.357 155.987 131.466 156.633 131.847C157.279 132.228 157.748 132.85 157.935 133.577C158.122 134.303 158.013 135.074 157.632 135.72C157.251 136.366 156.629 136.834 155.902 137.022Z" fill="#F2F2F2"/>
<path d="M169.583 143.351L93.2523 163.036C92.8925 163.129 92.5179 163.15 92.1499 163.098C91.7818 163.047 91.4276 162.923 91.1075 162.734C90.7873 162.545 90.5075 162.295 90.2839 161.999C90.0604 161.702 89.8976 161.364 89.8048 161.004C89.712 160.644 89.691 160.269 89.7431 159.901C89.7952 159.533 89.9192 159.179 90.1082 158.859C90.2972 158.539 90.5474 158.26 90.8445 158.036C91.1416 157.813 91.4798 157.651 91.8397 157.558L168.171 137.874C168.897 137.686 169.668 137.795 170.314 138.177C170.96 138.558 171.429 139.18 171.616 139.906C171.803 140.633 171.694 141.404 171.313 142.05C170.932 142.696 170.31 143.164 169.583 143.351Z" fill="#F2F2F2"/>
<path d="M58.4016 88.1414L35.3867 94.0765C35.0385 94.1659 34.669 94.1135 34.3593 93.9307C34.0496 93.748 33.825 93.45 33.7349 93.1019L28.4518 72.6154C28.3624 72.2672 28.4148 71.8977 28.5975 71.588C28.7802 71.2783 29.0783 71.0537 29.4264 70.9636L52.4413 65.0285C52.7895 64.9391 53.159 64.9915 53.4687 65.1742C53.7784 65.3569 54.003 65.655 54.0931 66.0031L59.3762 86.4895C59.4656 86.8378 59.4132 87.2073 59.2305 87.517C59.0478 87.8266 58.7497 88.0512 58.4016 88.1414Z" fill="#E6E6E6"/>
<path d="M69.0841 129.565L46.0692 135.5C45.721 135.59 45.3515 135.537 45.0418 135.355C44.7321 135.172 44.5075 134.874 44.4173 134.526L39.1343 114.039C39.0449 113.691 39.0973 113.321 39.28 113.012C39.4627 112.702 39.7608 112.478 40.1089 112.387L63.1237 106.452C63.472 106.363 63.8415 106.415 64.1512 106.598C64.4609 106.781 64.6855 107.079 64.7756 107.427L70.0587 127.913C70.1481 128.262 70.0957 128.631 69.913 128.941C69.7303 129.25 69.4322 129.475 69.0841 129.565Z" fill="#E6E6E6"/>
<path d="M79.7666 170.989L56.7517 176.924C56.4035 177.013 56.034 176.961 55.7243 176.778C55.4146 176.595 55.19 176.297 55.0998 175.949L49.8168 155.463C49.7274 155.114 49.7798 154.745 49.9625 154.435C50.1452 154.125 50.4433 153.901 50.7914 153.811L73.8063 147.876C74.1545 147.786 74.524 147.839 74.8337 148.021C75.1434 148.204 75.368 148.502 75.4581 148.85L80.7412 169.337C80.8306 169.685 80.7782 170.054 80.5955 170.364C80.4128 170.674 80.1147 170.898 79.7666 170.989Z" fill="#E6E6E6"/>
<path d="M231.043 38.8184H98.2321C93.7292 38.8234 89.4121 40.6145 86.228 43.7986C83.0439 46.9827 81.2529 51.2998 81.2478 55.8027V211.75C81.2529 216.253 83.0439 220.57 86.228 223.754C89.4121 226.938 93.7292 228.729 98.2321 228.734H231.043C235.546 228.729 239.863 226.938 243.047 223.754C246.231 220.57 248.022 216.253 248.027 211.75V55.8027C248.022 51.2998 246.231 46.9827 243.047 43.7986C239.863 40.6145 235.546 38.8234 231.043 38.8184Z" fill="#E6E6E6"/>
<path d="M231.043 43.708H98.2323C95.0256 43.7116 91.9513 44.987 89.6838 47.2545C87.4164 49.522 86.1409 52.5963 86.1373 55.8029V211.75C86.1409 214.957 87.4164 218.031 89.6838 220.299C91.9513 222.566 95.0256 223.842 98.2323 223.845H231.043C234.25 223.842 237.324 222.566 239.592 220.299C241.859 218.031 243.134 214.957 243.138 211.75V55.8029C243.134 52.5963 241.859 49.522 239.592 47.2546C237.324 44.9871 234.25 43.7116 231.043 43.708Z" fill="white"/>
<path d="M244.995 247.708C262.119 247.708 276 233.827 276 216.704C276 199.581 262.119 185.7 244.995 185.7C227.872 185.7 213.991 199.581 213.991 216.704C213.991 233.827 227.872 247.708 244.995 247.708Z" fill="#9C59DF"/>
<path d="M259.824 212.66H249.04V201.876C249.04 200.804 248.614 199.775 247.855 199.017C247.097 198.258 246.068 197.832 244.996 197.832C243.923 197.832 242.895 198.258 242.136 199.017C241.378 199.775 240.952 200.804 240.952 201.876V212.66H230.168C229.095 212.66 228.066 213.086 227.308 213.845C226.55 214.603 226.124 215.632 226.124 216.704C226.124 217.777 226.55 218.805 227.308 219.564C228.066 220.322 229.095 220.748 230.168 220.748H240.952V231.532C240.952 232.605 241.378 233.633 242.136 234.392C242.895 235.15 243.923 235.576 244.996 235.576C246.068 235.576 247.097 235.15 247.855 234.392C248.614 233.633 249.04 232.605 249.04 231.532V220.748H259.824C260.896 220.748 261.925 220.322 262.683 219.564C263.442 218.805 263.868 217.777 263.868 216.704C263.868 215.632 263.442 214.603 262.683 213.845C261.925 213.086 260.896 212.66 259.824 212.66Z" fill="white"/>
<path d="M211.055 129.4H143.894C143.522 129.401 143.154 129.328 142.81 129.186C142.467 129.044 142.155 128.836 141.892 128.573C141.629 128.31 141.42 127.998 141.278 127.655C141.135 127.312 141.062 126.944 141.062 126.572C141.062 126.2 141.135 125.832 141.278 125.489C141.42 125.146 141.629 124.834 141.892 124.571C142.155 124.308 142.467 124.1 142.81 123.958C143.154 123.816 143.522 123.743 143.894 123.744H211.055C211.805 123.744 212.523 124.043 213.053 124.573C213.583 125.103 213.88 125.822 213.88 126.572C213.88 127.322 213.583 128.041 213.053 128.571C212.523 129.101 211.805 129.4 211.055 129.4Z" fill="#E6E6E6"/>
<path d="M222.722 138.946H143.894C143.522 138.947 143.154 138.874 142.81 138.732C142.467 138.59 142.155 138.382 141.892 138.119C141.629 137.856 141.42 137.544 141.278 137.201C141.135 136.858 141.062 136.49 141.062 136.118C141.062 135.746 141.135 135.378 141.278 135.035C141.42 134.691 141.629 134.38 141.892 134.117C142.155 133.854 142.467 133.646 142.81 133.504C143.154 133.362 143.522 133.289 143.894 133.29H222.722C223.472 133.29 224.191 133.588 224.722 134.118C225.252 134.648 225.55 135.368 225.55 136.118C225.55 136.868 225.252 137.587 224.722 138.118C224.191 138.648 223.472 138.946 222.722 138.946Z" fill="#E6E6E6"/>
<path d="M211.055 172.179H143.894C143.522 172.18 143.154 172.107 142.81 171.965C142.467 171.823 142.155 171.615 141.892 171.352C141.629 171.089 141.42 170.777 141.278 170.434C141.135 170.091 141.062 169.722 141.062 169.351C141.062 168.979 141.135 168.611 141.278 168.268C141.42 167.924 141.629 167.612 141.892 167.35C142.155 167.087 142.467 166.879 142.81 166.737C143.154 166.595 143.522 166.522 143.894 166.522H211.055C211.805 166.522 212.525 166.82 213.055 167.351C213.585 167.881 213.883 168.601 213.883 169.351C213.883 170.101 213.585 170.82 213.055 171.351C212.525 171.881 211.805 172.179 211.055 172.179Z" fill="#E6E6E6"/>
<path d="M222.722 181.725H143.894C143.522 181.725 143.154 181.653 142.81 181.511C142.467 181.369 142.155 181.16 141.892 180.898C141.629 180.635 141.42 180.323 141.278 179.98C141.135 179.636 141.062 179.268 141.062 178.897C141.062 178.525 141.135 178.157 141.278 177.814C141.42 177.47 141.629 177.158 141.892 176.896C142.155 176.633 142.467 176.425 142.81 176.283C143.154 176.141 143.522 176.068 143.894 176.068H222.722C223.094 176.068 223.462 176.141 223.805 176.283C224.149 176.425 224.461 176.633 224.724 176.896C224.987 177.158 225.196 177.47 225.338 177.814C225.48 178.157 225.553 178.525 225.553 178.897C225.553 179.268 225.48 179.636 225.338 179.98C225.196 180.323 224.987 180.635 224.724 180.898C224.461 181.16 224.149 181.369 223.805 181.511C223.462 181.653 223.094 181.725 222.722 181.725Z" fill="#E6E6E6"/>
<path d="M128.849 143.28H105.081C104.721 143.279 104.377 143.136 104.122 142.882C103.868 142.628 103.725 142.283 103.725 141.923V120.767C103.725 120.407 103.868 120.063 104.122 119.808C104.377 119.554 104.721 119.411 105.081 119.411H128.849C129.208 119.411 129.553 119.554 129.807 119.808C130.061 120.063 130.204 120.407 130.205 120.767V141.923C130.204 142.283 130.061 142.628 129.807 142.882C129.553 143.136 129.208 143.279 128.849 143.28Z" fill="#E6E6E6"/>
<path d="M128.849 186.059H105.081C104.721 186.058 104.377 185.915 104.122 185.661C103.868 185.407 103.725 185.062 103.725 184.702V163.546C103.725 163.186 103.868 162.841 104.122 162.587C104.377 162.333 104.721 162.19 105.081 162.189H128.849C129.208 162.19 129.553 162.333 129.807 162.587C130.061 162.841 130.204 163.186 130.205 163.546V184.702C130.204 185.062 130.061 185.407 129.807 185.661C129.553 185.915 129.208 186.058 128.849 186.059Z" fill="#E6E6E6"/>
<path d="M211.13 81.7793H161.614C160.864 81.7793 160.145 81.4813 159.614 80.9509C159.084 80.4204 158.786 79.701 158.786 78.9509C158.786 78.2008 159.084 77.4814 159.614 76.951C160.145 76.4205 160.864 76.1226 161.614 76.1226H211.13C211.88 76.1226 212.599 76.4205 213.13 76.951C213.66 77.4814 213.958 78.2008 213.958 78.9509C213.958 79.701 213.66 80.4204 213.13 80.9509C212.599 81.4813 211.88 81.7793 211.13 81.7793Z" fill="#CCCCCC"/>
<path d="M222.797 91.3251H161.614C161.243 91.3251 160.875 91.252 160.532 91.1099C160.189 90.9677 159.877 90.7594 159.614 90.4967C159.352 90.2341 159.143 89.9223 159.001 89.5792C158.859 89.236 158.786 88.8682 158.786 88.4968C158.786 88.1254 158.859 87.7576 159.001 87.4144C159.143 87.0713 159.352 86.7595 159.614 86.4969C159.877 86.2342 160.189 86.0259 160.532 85.8837C160.875 85.7416 161.243 85.6685 161.614 85.6685H222.797C223.547 85.6685 224.266 85.9664 224.797 86.4969C225.327 87.0273 225.625 87.7467 225.625 88.4968C225.625 89.2469 225.327 89.9663 224.797 90.4967C224.266 91.0272 223.547 91.3251 222.797 91.3251Z" fill="#CCCCCC"/>
<path d="M150.655 102.893H105.006C104.647 102.893 104.302 102.75 104.048 102.495C103.794 102.241 103.651 101.896 103.65 101.537V65.9104C103.651 65.5508 103.794 65.2061 104.048 64.9518C104.302 64.6976 104.647 64.5546 105.006 64.5542H150.655C151.015 64.5546 151.36 64.6976 151.614 64.9518C151.868 65.2061 152.011 65.5508 152.012 65.9104V101.537C152.011 101.896 151.868 102.241 151.614 102.495C151.36 102.75 151.015 102.893 150.655 102.893Z" fill="#9C59DF"/>
</g>
<defs>
<clipPath id="clip0_100_3765">
<rect width="276" height="247.708" fill="white"/>
</clipPath>
</defs>
</svg>
