<svg width="20" height="20" viewBox="0 0 20 20" fill="none" xmlns="http://www.w3.org/2000/svg">
<path d="M10.0007 9.99984C12.3018 9.99984 14.1673 8.13436 14.1673 5.83317C14.1673 3.53199 12.3018 1.6665 10.0007 1.6665C7.69947 1.6665 5.83398 3.53199 5.83398 5.83317C5.83398 8.13436 7.69947 9.99984 10.0007 9.99984Z" stroke="#9C59DF" stroke-width="2"/>
<path d="M13.3347 13.333H18.3347M14.168 18.333H4.38969C4.15334 18.3331 3.91968 18.2828 3.70422 18.1857C3.48877 18.0885 3.29644 17.9467 3.14 17.7695C2.98356 17.5923 2.86659 17.3839 2.79686 17.1581C2.72712 16.9323 2.70621 16.6942 2.73552 16.4597L3.06052 13.8563C3.1361 13.2515 3.43003 12.6952 3.88705 12.2919C4.34406 11.8886 4.93267 11.6661 5.54219 11.6663H5.83469L14.168 18.333ZM15.8347 10.833V15.833V10.833Z" stroke="#9C59DF" stroke-width="2" stroke-linecap="round" stroke-linejoin="round"/>
</svg>
