<svg width="136" height="47" viewBox="0 0 136 47" fill="none" xmlns="http://www.w3.org/2000/svg">
<rect width="136" height="47" rx="5" fill="#121721"/>
<path d="M29.8517 22.7746C29.8636 21.8641 30.1055 20.9714 30.555 20.1795C31.0045 19.3875 31.6469 18.7221 32.4226 18.2451C31.9298 17.5412 31.2797 16.9619 30.5239 16.5532C29.7682 16.1444 28.9275 15.9175 28.0687 15.8903C26.2355 15.6983 24.4591 16.987 23.525 16.987C22.5735 16.987 21.1353 15.9089 19.588 15.9416C18.5866 15.9739 17.6107 16.2651 16.7553 16.7868C15.8999 17.3085 15.1943 18.0429 14.7071 18.9184C12.5968 22.5717 14.1714 27.9414 16.1922 30.8952C17.2038 32.3411 18.3855 33.956 19.9328 33.8993C21.4463 33.836 22.0115 32.9336 23.8393 32.9336C25.6485 32.9336 26.1788 33.8993 27.7566 33.8633C29.3814 33.836 30.4039 32.4098 31.3794 30.9498C32.1066 29.9196 32.6664 28.7809 33.038 27.5758C32.0941 27.1768 31.2886 26.5088 30.722 25.6549C30.1554 24.8011 29.8527 23.7994 29.8517 22.7746ZM26.8706 13.9469C27.7562 12.8842 28.1926 11.518 28.0873 10.1387C26.7341 10.2807 25.4842 10.9275 24.5867 11.95C24.148 12.4492 23.812 13.0299 23.5978 13.659C23.3836 14.2881 23.2955 14.9533 23.3384 15.6164C24.0151 15.6234 24.6846 15.4768 25.2964 15.1876C25.9082 14.8984 26.4464 14.4742 26.8706 13.9469Z" fill="white"/>
<path d="M48.9836 30.2392H43.8201L42.5794 33.9012H40.3916L45.2845 20.3509H47.5574L52.4492 33.9012H50.2243L48.9836 30.2392ZM44.3537 28.5479H48.4478L46.4291 22.6053H46.3735L44.3537 28.5479ZM63.0141 28.9625C63.0141 32.032 61.3708 34.0038 58.8905 34.0038C58.2626 34.0366 57.6381 33.8919 57.0886 33.5865C56.539 33.281 56.0865 32.827 55.7828 32.2765H55.7359V37.1694H53.7063V24.0216H55.6704V25.665H55.7064C56.024 25.1168 56.4843 24.665 57.0382 24.3575C57.5922 24.0501 58.2191 23.8986 58.8523 23.9191C61.3599 23.9191 63.013 25.9007 63.013 28.9625H63.0141ZM60.9299 28.9625C60.9299 26.9624 59.8955 25.6475 58.3187 25.6475C56.7692 25.6475 55.7271 26.9897 55.7271 28.9625C55.7271 30.9529 56.7692 32.2863 58.3187 32.2863C59.8955 32.2863 60.9299 30.9801 60.9299 28.9625ZM73.8878 28.9625C73.8878 32.032 72.2445 34.0038 69.7642 34.0038C69.1363 34.0366 68.5118 33.8919 67.9623 33.5865C67.4127 33.281 66.9602 32.827 66.6565 32.2765H66.6096V37.1694H64.581V24.0216H66.5441V25.665H66.5812C66.8988 25.1168 67.3591 24.665 67.913 24.3575C68.467 24.0501 69.0939 23.8986 69.7271 23.9191C72.2346 23.9191 73.8878 25.9007 73.8878 28.9625ZM71.8036 28.9625C71.8036 26.9624 70.7692 25.6475 69.1924 25.6475C67.6429 25.6475 66.6008 26.9897 66.6008 28.9625C66.6008 30.9529 67.6429 32.2863 69.1924 32.2863C70.7692 32.2863 71.8025 30.9801 71.8025 28.9625H71.8036ZM81.0733 30.1257C81.2238 31.4701 82.5289 32.3518 84.3141 32.3518C86.0229 32.3518 87.2527 31.4701 87.2527 30.2578C87.2527 29.2059 86.5106 28.5773 84.7538 28.1452L82.9981 27.7218C80.5102 27.1217 79.3546 25.9574 79.3546 24.0686C79.3546 21.7312 81.3919 20.125 84.2857 20.125C87.149 20.125 89.112 21.7312 89.1775 24.0686H87.1304C87.0082 22.7166 85.8908 21.9004 84.2562 21.9004C82.6217 21.9004 81.5054 22.7264 81.5054 23.9278C81.5054 24.8859 82.219 25.45 83.966 25.881L85.4587 26.2477C88.2391 26.9056 89.3936 28.0219 89.3936 30.0046C89.3936 32.5394 87.3749 34.1271 84.1635 34.1271C81.1584 34.1271 79.1288 32.5776 78.9978 30.1257H81.0733ZM93.7703 21.6843V24.0216H95.6493V25.6279H93.7703V31.074C93.7703 31.9207 94.1468 32.3147 94.9728 32.3147C95.1957 32.3108 95.4183 32.2951 95.6395 32.2677V33.8641C95.2683 33.9335 94.891 33.965 94.5134 33.958C92.5133 33.958 91.7331 33.2062 91.7331 31.29V25.6279H90.2971V24.0216H91.7331V21.6843H93.7703ZM96.7373 28.9625C96.7373 25.8537 98.5683 23.9005 101.423 23.9005C104.287 23.9005 106.109 25.8537 106.109 28.9625C106.109 32.079 104.297 34.0235 101.423 34.0235C98.5497 34.0235 96.7373 32.079 96.7373 28.9625ZM104.043 28.9625C104.043 26.8303 103.066 25.5711 101.423 25.5711C99.7795 25.5711 98.804 26.8391 98.804 28.9625C98.804 31.1034 99.7795 32.3518 101.423 32.3518C103.066 32.3518 104.043 31.1034 104.043 28.9625ZM107.781 24.0216H109.716V25.7032H109.763C109.894 25.1783 110.201 24.7146 110.634 24.3897C111.067 24.0649 111.598 23.8987 112.138 23.9191C112.372 23.9181 112.605 23.9434 112.833 23.9944V25.8908C112.538 25.8008 112.231 25.7595 111.922 25.7686C111.628 25.7567 111.334 25.8086 111.061 25.9208C110.789 26.0331 110.543 26.203 110.343 26.419C110.142 26.6349 109.99 26.8917 109.898 27.1718C109.806 27.4519 109.775 27.7486 109.809 28.0416V33.9012H107.781V24.0216ZM122.183 30.9998C121.91 32.7926 120.164 34.0235 117.929 34.0235C115.055 34.0235 113.271 32.0986 113.271 29.0094C113.271 25.9105 115.065 23.9005 117.843 23.9005C120.578 23.9005 122.295 25.7774 122.295 28.7738V29.4688H115.318V29.5911C115.286 29.9546 115.331 30.3209 115.452 30.6655C115.572 31.0101 115.764 31.3252 116.016 31.5898C116.267 31.8545 116.572 32.0626 116.91 32.2003C117.248 32.3381 117.611 32.4023 117.976 32.3889C118.455 32.4337 118.936 32.3227 119.347 32.0724C119.758 31.8221 120.077 31.4459 120.257 30.9998H122.183ZM115.328 28.0514H120.267C120.285 27.7245 120.235 27.3974 120.121 27.0905C120.007 26.7837 119.831 26.5038 119.603 26.2683C119.376 26.0329 119.102 25.847 118.799 25.7223C118.497 25.5976 118.171 25.5369 117.844 25.5438C117.514 25.5418 117.186 25.6052 116.881 25.7304C116.575 25.8556 116.297 26.0401 116.063 26.2732C115.829 26.5064 115.644 26.7835 115.518 27.0887C115.392 27.3939 115.327 27.7211 115.328 28.0514Z" fill="white"/>
<path d="M44.0993 10.1509C44.5245 10.1204 44.9511 10.1846 45.3485 10.3389C45.7458 10.4933 46.104 10.7339 46.3971 11.0434C46.6902 11.3529 46.911 11.7236 47.0435 12.1287C47.176 12.5339 47.2169 12.9634 47.1634 13.3863C47.1634 15.4661 46.0394 16.662 44.0993 16.662H41.7478V10.1498L44.0993 10.1509ZM42.7593 15.741H43.9869C44.2906 15.759 44.5945 15.7091 44.8765 15.5949C45.1585 15.4807 45.4115 15.305 45.6171 15.0808C45.8227 14.8565 45.9757 14.5892 46.065 14.2983C46.1543 14.0075 46.1776 13.7004 46.1333 13.3994C46.1744 13.0995 46.1488 12.7943 46.0582 12.5055C45.9675 12.2168 45.8142 11.9516 45.609 11.7291C45.4039 11.5065 45.1521 11.3321 44.8717 11.2183C44.5912 11.1045 44.2891 11.0541 43.9869 11.0708H42.7593V15.741ZM48.3047 14.2025C48.275 13.8802 48.3129 13.5552 48.4159 13.2484C48.5188 12.9415 48.6847 12.6596 48.9028 12.4204C49.1209 12.1813 49.3865 11.9903 49.6826 11.8596C49.9787 11.7289 50.2988 11.6614 50.6224 11.6614C50.9461 11.6614 51.2662 11.7289 51.5623 11.8596C51.8584 11.9903 52.124 12.1813 52.3421 12.4204C52.5602 12.6596 52.726 12.9415 52.829 13.2484C52.932 13.5552 52.9698 13.8802 52.9401 14.2025C52.9723 14.5261 52.9364 14.8529 52.8346 15.1618C52.7328 15.4708 52.5675 15.7549 52.3492 15.996C52.1309 16.2372 51.8645 16.4299 51.5672 16.5618C51.2699 16.6936 50.9482 16.7618 50.623 16.7618C50.2977 16.7618 49.9761 16.6936 49.6788 16.5618C49.3815 16.4299 49.1151 16.2372 48.8968 15.996C48.6785 15.7549 48.5131 15.4708 48.4113 15.1618C48.3095 14.8529 48.2736 14.5261 48.3058 14.2025H48.3047ZM51.9428 14.2025C51.9428 13.1375 51.4637 12.5144 50.6246 12.5144C49.7811 12.5144 49.3075 13.1375 49.3075 14.2025C49.3075 15.2762 49.7811 15.8938 50.6246 15.8938C51.4648 15.8938 51.9428 15.2718 51.9428 14.2025ZM59.0999 16.662H58.0938L57.079 13.0425H57.0026L55.9911 16.662H54.9948L53.6396 11.7484H54.6238L55.5033 15.4977H55.5764L56.5869 11.7484H57.5166L58.527 15.4977H58.6034L59.4796 11.7484H60.4497L59.0999 16.662ZM61.5889 11.7484H62.5218V12.5286H62.5939C62.7168 12.2482 62.9242 12.0133 63.1871 11.8564C63.45 11.6995 63.7553 11.6286 64.0604 11.6535C64.2995 11.6355 64.5396 11.6716 64.7629 11.759C64.9862 11.8464 65.1869 11.9829 65.3503 12.1584C65.5137 12.3339 65.6355 12.544 65.7067 12.7729C65.7778 13.0019 65.7966 13.244 65.7616 13.4812V16.662H64.7915V13.7245C64.7915 12.9345 64.4489 12.5417 63.7309 12.5417C63.5686 12.5342 63.4066 12.5618 63.256 12.6228C63.1054 12.6837 62.9697 12.7765 62.8583 12.8947C62.7469 13.013 62.6624 13.1539 62.6105 13.3078C62.5586 13.4618 62.5407 13.6252 62.5578 13.7867V16.662H61.5889V11.7484ZM67.3067 9.83008H68.2757V16.6609H67.3067V9.83008ZM69.6244 14.2025C69.5938 13.8798 69.631 13.5542 69.7335 13.2467C69.8361 12.9392 70.0017 12.6565 70.2199 12.4167C70.438 12.177 70.7038 11.9854 71.0003 11.8543C71.2968 11.7232 71.6174 11.6555 71.9415 11.6555C72.2657 11.6555 72.5862 11.7232 72.8827 11.8543C73.1792 11.9854 73.445 12.177 73.6631 12.4167C73.8813 12.6565 74.0469 12.9392 74.1495 13.2467C74.252 13.5542 74.2892 13.8798 74.2586 14.2025C74.2909 14.5261 74.2549 14.8529 74.1532 15.1618C74.0514 15.4708 73.886 15.7549 73.6677 15.996C73.4494 16.2372 73.183 16.4299 72.8857 16.5618C72.5884 16.6936 72.2668 16.7618 71.9415 16.7618C71.6163 16.7618 71.2946 16.6936 70.9973 16.5618C70.7 16.4299 70.4336 16.2372 70.2153 15.996C69.997 15.7549 69.8316 15.4708 69.7299 15.1618C69.6281 14.8529 69.5921 14.5261 69.6244 14.2025ZM73.2613 14.2025C73.2613 13.1375 72.7823 12.5144 71.9431 12.5144C71.0997 12.5144 70.6261 13.1375 70.6261 14.2025C70.6261 15.2762 71.0997 15.8938 71.9431 15.8938C72.7834 15.8938 73.2613 15.2718 73.2613 14.2025ZM75.2789 15.2718C75.2789 14.388 75.938 13.8773 77.1077 13.8053L78.439 13.7289V13.3044C78.439 12.7861 78.0953 12.4926 77.4329 12.4926C76.8906 12.4926 76.5163 12.6912 76.4083 13.0382H75.4699C75.5681 12.1947 76.3625 11.6524 77.4776 11.6524C78.7085 11.6524 79.4036 12.2667 79.4036 13.3044V16.662H78.4706V15.9713H78.3942C78.2385 16.219 78.0197 16.421 77.7603 16.5566C77.5009 16.6921 77.2102 16.7564 76.9179 16.7428C76.7116 16.7643 76.503 16.7423 76.3057 16.6782C76.1084 16.6142 75.9268 16.5095 75.7724 16.3709C75.6181 16.2323 75.4945 16.0628 75.4097 15.8735C75.3249 15.6842 75.2807 15.4793 75.28 15.2718H75.2789ZM78.4379 14.8528V14.4414L77.2376 14.5178C76.5611 14.5636 76.2555 14.7939 76.2555 15.2271C76.2555 15.669 76.6385 15.9255 77.1656 15.9255C77.32 15.941 77.476 15.9254 77.6243 15.8796C77.7726 15.8337 77.9101 15.7585 78.0288 15.6585C78.1475 15.5584 78.2448 15.4355 78.3151 15.2972C78.3854 15.1588 78.4271 15.0077 78.4379 14.8528ZM80.6781 14.2025C80.6781 12.6497 81.4769 11.6665 82.7186 11.6665C83.0255 11.6526 83.3301 11.7262 83.5967 11.8789C83.8634 12.0315 84.0811 12.2568 84.2245 12.5286H84.2976V9.83008H85.2665V16.6609H84.3379V15.8862H84.2616C84.1069 16.1562 83.8812 16.3788 83.609 16.5298C83.3369 16.6808 83.0286 16.7545 82.7175 16.7428C81.4681 16.7428 80.6781 15.7596 80.6781 14.2025ZM81.6798 14.2025C81.6798 15.2446 82.1708 15.872 82.9925 15.872C83.8109 15.872 84.315 15.2358 84.315 14.2068C84.315 13.1833 83.8044 12.5373 82.9925 12.5373C82.1763 12.5373 81.6798 13.1702 81.6798 14.2025ZM89.2788 14.2025C89.2483 13.8798 89.2855 13.5542 89.388 13.2467C89.4906 12.9392 89.6562 12.6565 89.8744 12.4167C90.0925 12.177 90.3583 11.9854 90.6548 11.8543C90.9512 11.7232 91.2718 11.6555 91.596 11.6555C91.9201 11.6555 92.2407 11.7232 92.5372 11.8543C92.8336 11.9854 93.0995 12.177 93.3176 12.4167C93.5357 12.6565 93.7014 12.9392 93.8039 13.2467C93.9065 13.5542 93.9437 13.8798 93.9131 14.2025C93.9453 14.5261 93.9094 14.8529 93.8076 15.1618C93.7058 15.4708 93.5405 15.7549 93.3222 15.996C93.1039 16.2372 92.8375 16.4299 92.5402 16.5618C92.2429 16.6936 91.9212 16.7618 91.596 16.7618C91.2707 16.7618 90.9491 16.6936 90.6518 16.5618C90.3545 16.4299 90.0881 16.2372 89.8698 15.996C89.6515 15.7549 89.4861 15.4708 89.3843 15.1618C89.2826 14.8529 89.2466 14.5261 89.2788 14.2025ZM92.9158 14.2025C92.9158 13.1375 92.4378 12.5144 91.5976 12.5144C90.7552 12.5144 90.2806 13.1375 90.2806 14.2025C90.2806 15.2762 90.7552 15.8938 91.5976 15.8938C92.4378 15.8938 92.9158 15.2718 92.9158 14.2025ZM95.2149 11.7484H96.1479V12.5286H96.2199C96.3429 12.2482 96.5503 12.0133 96.8132 11.8564C97.076 11.6995 97.3813 11.6286 97.6864 11.6535C97.9256 11.6355 98.1656 11.6716 98.3889 11.759C98.6122 11.8464 98.813 11.9829 98.9763 12.1584C99.1397 12.3339 99.2615 12.544 99.3327 12.7729C99.4039 13.0019 99.4227 13.244 99.3876 13.4812V16.662H98.4175V13.7245C98.4175 12.9345 98.0749 12.5417 97.3569 12.5417C97.1946 12.5342 97.0326 12.5618 96.882 12.6228C96.7314 12.6837 96.5958 12.7765 96.4843 12.8947C96.3729 13.013 96.2884 13.1539 96.2365 13.3078C96.1847 13.4618 96.1667 13.6252 96.1839 13.7867V16.662H95.2138L95.2149 11.7484ZM104.866 10.5252V11.7702H105.931V12.5875H104.866V15.1136C104.866 15.6286 105.078 15.8545 105.562 15.8545C105.685 15.854 105.809 15.8463 105.931 15.8316V16.6391C105.757 16.6705 105.58 16.6873 105.403 16.6893C104.325 16.6893 103.896 16.3095 103.896 15.3624V12.5875H103.116V11.7702H103.896V10.5252H104.866ZM107.256 9.83008H108.216V12.5373H108.293C108.422 12.2543 108.635 12.018 108.903 11.8607C109.172 11.7033 109.482 11.6324 109.792 11.6578C110.03 11.6449 110.268 11.6847 110.488 11.7743C110.709 11.8638 110.907 12.001 111.069 12.176C111.23 12.351 111.351 12.5595 111.423 12.7866C111.495 13.0137 111.515 13.2539 111.483 13.4899V16.662H110.513V13.7289C110.513 12.9432 110.148 12.546 109.463 12.546C109.296 12.5323 109.128 12.5552 108.971 12.6131C108.814 12.6711 108.672 12.7626 108.554 12.8813C108.436 13 108.346 13.143 108.289 13.3003C108.232 13.4577 108.21 13.6256 108.225 13.7922V16.662H107.256V9.83008ZM117.138 15.3351C117.006 15.784 116.721 16.1723 116.332 16.4322C115.943 16.6921 115.475 16.8071 115.01 16.7569C114.686 16.7657 114.364 16.7038 114.067 16.5756C113.769 16.4474 113.503 16.2559 113.287 16.0145C113.071 15.7731 112.91 15.4875 112.815 15.1776C112.721 14.8677 112.695 14.5409 112.739 14.2199C112.696 13.8982 112.723 13.571 112.817 13.2605C112.912 12.95 113.072 12.6633 113.287 12.42C113.501 12.1766 113.766 11.9823 114.062 11.85C114.359 11.7178 114.68 11.6507 115.005 11.6535C116.372 11.6535 117.197 12.5875 117.197 14.1304V14.4687H113.727V14.5233C113.712 14.7037 113.734 14.8853 113.793 15.0564C113.853 15.2275 113.947 15.3844 114.07 15.5169C114.193 15.6495 114.343 15.7548 114.509 15.8261C114.676 15.8974 114.855 15.9331 115.036 15.9309C115.268 15.9584 115.503 15.9164 115.711 15.8103C115.918 15.7043 116.09 15.5389 116.204 15.3351H117.138ZM113.727 13.7518H116.209C116.222 13.5868 116.199 13.421 116.144 13.2651C116.088 13.1092 116.001 12.9667 115.887 12.8468C115.773 12.7268 115.635 12.632 115.482 12.5686C115.329 12.5051 115.165 12.4744 114.999 12.4784C114.831 12.4763 114.665 12.5079 114.51 12.5712C114.354 12.6344 114.213 12.7282 114.095 12.8469C113.976 12.9655 113.882 13.1067 113.819 13.2622C113.756 13.4176 113.725 13.5841 113.727 13.7518Z" fill="white"/>
</svg>
