<svg width="20" height="21" viewBox="0 0 20 21" fill="none" xmlns="http://www.w3.org/2000/svg">
<path d="M1.875 16.5234V12.1484C1.87696 11.486 2.14098 10.8513 2.6094 10.3828C3.07781 9.91442 3.71256 9.6504 4.375 9.64844H15.625C16.2874 9.6504 16.9222 9.91442 17.3906 10.3828C17.859 10.8513 18.123 11.486 18.125 12.1484V16.5234M15 9.64844H3.75V5.58594C3.75124 5.17192 3.91625 4.77521 4.20901 4.48245C4.50177 4.18969 4.89848 4.02467 5.3125 4.02344H14.6875C15.1015 4.02467 15.4982 4.18969 15.791 4.48245C16.0837 4.77521 16.2488 5.17192 16.25 5.58594V9.64844H15Z" stroke="#434859" stroke-width="1.5" stroke-linecap="round" stroke-linejoin="round"/>
<path d="M10 9.64844V9.02344C10.0009 8.6922 10.1329 8.3748 10.3671 8.14058C10.6014 7.90636 10.9188 7.77437 11.25 7.77344H14.375C14.7062 7.77437 15.0236 7.90636 15.2579 8.14058C15.4921 8.3748 15.6241 8.6922 15.625 9.02344V9.64844M1.875 16.5234V16.2109C1.87572 15.9625 1.97473 15.7245 2.15038 15.5488C2.32604 15.3732 2.56408 15.2742 2.8125 15.2734H17.1875C17.4359 15.2742 17.674 15.3732 17.8496 15.5488C18.0253 15.7245 18.1243 15.9625 18.125 16.2109V16.5234H1.875ZM4.375 9.64844V9.02344C4.37593 8.6922 4.50792 8.3748 4.74214 8.14058C4.97636 7.90636 5.29376 7.77437 5.625 7.77344H8.75C9.08124 7.77437 9.39864 7.90636 9.63286 8.14058C9.86708 8.3748 9.99907 8.6922 10 9.02344V9.64844H4.375Z" stroke="#434859" stroke-width="1.5" stroke-linecap="round" stroke-linejoin="round"/>
</svg>
