<svg width="73" height="67" viewBox="0 0 73 67" fill="none" xmlns="http://www.w3.org/2000/svg">
<path d="M72.75 66.125H0.25V58.875H3.875V4.5C3.875 3.53859 4.25692 2.61656 4.93674 1.93674C5.61656 1.25692 6.53859 0.875 7.5 0.875H58.25C59.2114 0.875 60.1334 1.25692 60.8133 1.93674C61.4931 2.61656 61.875 3.53859 61.875 4.5V22.625H69.125V58.875H72.75V66.125ZM54.625 58.875H61.875V29.875H40.125V58.875H47.375V37.125H54.625V58.875ZM54.625 22.625V8.125H11.125V58.875H32.875V22.625H54.625ZM18.375 29.875H25.625V37.125H18.375V29.875ZM18.375 44.375H25.625V51.625H18.375V44.375ZM18.375 15.375H25.625V22.625H18.375V15.375Z" fill="#2D2D2D" fill-opacity="0.1"/>
</svg>
