<svg width="21" height="20" viewBox="0 0 21 20" fill="none" xmlns="http://www.w3.org/2000/svg">
<path d="M18.1665 5.20833C18.1665 4.49004 17.8812 3.80116 17.3733 3.29325C16.8653 2.78534 16.1765 2.5 15.4582 2.5H5.87484C5.15654 2.5 4.46767 2.78534 3.95976 3.29325C3.45185 3.80116 3.1665 4.49004 3.1665 5.20833V14.7917C3.1665 15.51 3.45185 16.1988 3.95976 16.7067C4.46767 17.2147 5.15654 17.5 5.87484 17.5H10.6848C10.4351 17.1104 10.2365 16.6903 10.094 16.25H5.87484C5.48806 16.25 5.11713 16.0964 4.84364 15.8229C4.57015 15.5494 4.4165 15.1784 4.4165 14.7917V7.08333H16.9165V9.4275C17.3568 9.56999 17.7769 9.76857 18.1665 10.0183V5.20833ZM5.87484 3.75H15.4582C16.2632 3.75 16.9165 4.40333 16.9165 5.20833V5.83333H4.4165V5.20833C4.4165 4.40333 5.06984 3.75 5.87484 3.75Z" fill="#9C59DF"/>
<path d="M19.8332 14.5833C19.8332 13.3678 19.3503 12.202 18.4907 11.3424C17.6312 10.4829 16.4654 10 15.2498 10C14.0343 10 12.8685 10.4829 12.0089 11.3424C11.1494 12.202 10.6665 13.3678 10.6665 14.5833C10.6665 15.7989 11.1494 16.9647 12.0089 17.8242C12.8685 18.6838 14.0343 19.1667 15.2498 19.1667C16.4654 19.1667 17.6312 18.6838 18.4907 17.8242C19.3503 16.9647 19.8332 15.7989 19.8332 14.5833ZM15.2498 14.5833H16.9165C17.027 14.5833 17.133 14.6272 17.2111 14.7054C17.2893 14.7835 17.3332 14.8895 17.3332 15C17.3332 15.1105 17.2893 15.2165 17.2111 15.2946C17.133 15.3728 17.027 15.4167 16.9165 15.4167H14.8332C14.724 15.4167 14.6191 15.3738 14.5412 15.2973C14.4632 15.2208 14.4185 15.1167 14.4165 15.0075V12.4992C14.4165 12.3887 14.4604 12.2827 14.5385 12.2045C14.6167 12.1264 14.7227 12.0825 14.8332 12.0825C14.9437 12.0825 15.0497 12.1264 15.1278 12.2045C15.2059 12.2827 15.2498 12.3887 15.2498 12.4992V14.5833Z" fill="#9C59DF"/>
</svg>
