<svg width="20" height="20" viewBox="0 0 20 20" fill="none" xmlns="http://www.w3.org/2000/svg">
<path d="M10.0001 1.66669C5.40508 1.66669 1.66675 5.40502 1.66675 10C1.66675 14.595 5.40508 18.3334 10.0001 18.3334C14.5951 18.3334 18.3334 14.595 18.3334 10C18.3334 5.40502 14.5951 1.66669 10.0001 1.66669ZM10.0001 16.6667C6.32425 16.6667 3.33341 13.6759 3.33341 10C3.33341 6.32419 6.32425 3.33335 10.0001 3.33335C13.6759 3.33335 16.6667 6.32419 16.6667 10C16.6667 13.6759 13.6759 16.6667 10.0001 16.6667Z" fill="#9C59DF"/>
<path d="M10.8334 5.83331H9.16675V10.345L11.9109 13.0891L13.0892 11.9108L10.8334 9.65498V5.83331Z" fill="#9C59DF"/>
</svg>
