<svg width="22" height="19" viewBox="0 0 22 19" fill="none" xmlns="http://www.w3.org/2000/svg">
<path d="M5 0C4.73478 0 4.48043 0.105357 4.29289 0.292893C4.10536 0.48043 4 0.734784 4 1V3C4 3.26522 4.10536 3.51957 4.29289 3.70711C4.48043 3.89464 4.73478 4 5 4C5.26522 4 5.51957 3.89464 5.70711 3.70711C5.89464 3.51957 6 3.26522 6 3V1C6 0.734784 5.89464 0.48043 5.70711 0.292893C5.51957 0.105357 5.26522 0 5 0Z" fill="#172B4D"/>
<path fill-rule="evenodd" clip-rule="evenodd" d="M12 19C13.418 18.9998 14.7901 18.4976 15.8732 17.5824C16.9562 16.6672 17.6803 15.3981 17.917 14H18C19.0609 14 20.0783 13.5786 20.8284 12.8284C21.5786 12.0783 22 11.0609 22 10C22 8.93913 21.5786 7.92172 20.8284 7.17157C20.0783 6.42143 19.0609 6 18 6V5H0V13C0 14.5913 0.632141 16.1174 1.75736 17.2426C2.88258 18.3679 4.4087 19 6 19H12ZM2 7V13C2 14.0609 2.42143 15.0783 3.17157 15.8284C3.92172 16.5786 4.93913 17 6 17H12C13.0609 17 14.0783 16.5786 14.8284 15.8284C15.5786 15.0783 16 14.0609 16 13V7H2ZM20 10C20 10.5304 19.7893 11.0391 19.4142 11.4142C19.0391 11.7893 18.5304 12 18 12V8C18.5304 8 19.0391 8.21071 19.4142 8.58579C19.7893 8.96086 20 9.46957 20 10Z" fill="#172B4D"/>
<path d="M8 1C8 0.734784 8.10536 0.48043 8.29289 0.292893C8.48043 0.105357 8.73478 0 9 0C9.26522 0 9.51957 0.105357 9.70711 0.292893C9.89464 0.48043 10 0.734784 10 1V3C10 3.26522 9.89464 3.51957 9.70711 3.70711C9.51957 3.89464 9.26522 4 9 4C8.73478 4 8.48043 3.89464 8.29289 3.70711C8.10536 3.51957 8 3.26522 8 3V1ZM13 0C12.7348 0 12.4804 0.105357 12.2929 0.292893C12.1054 0.48043 12 0.734784 12 1V3C12 3.26522 12.1054 3.51957 12.2929 3.70711C12.4804 3.89464 12.7348 4 13 4C13.2652 4 13.5196 3.89464 13.7071 3.70711C13.8946 3.51957 14 3.26522 14 3V1C14 0.734784 13.8946 0.48043 13.7071 0.292893C13.5196 0.105357 13.2652 0 13 0Z" fill="#172B4D"/>
</svg>
