<svg width="12" height="15" viewBox="0 0 12 15" fill="none" xmlns="http://www.w3.org/2000/svg">
<path d="M3.75 2.25184C3.55109 2.25184 3.36032 2.33086 3.21967 2.47151C3.07902 2.61216 3 2.80293 3 3.00184C3 3.20075 3.07902 3.39152 3.21967 3.53217C3.36032 3.67282 3.55109 3.75184 3.75 3.75184C3.94891 3.75184 4.13968 3.67282 4.28033 3.53217C4.42098 3.39152 4.5 3.20075 4.5 3.00184C4.5 2.80293 4.42098 2.61216 4.28033 2.47151C4.13968 2.33086 3.94891 2.25184 3.75 2.25184ZM1.6275 2.25184C1.78245 1.81269 2.0698 1.43241 2.44995 1.16343C2.8301 0.894447 3.28432 0.75 3.75 0.75C4.21568 0.75 4.6699 0.894447 5.05005 1.16343C5.4302 1.43241 5.71755 1.81269 5.8725 2.25184H11.25C11.4489 2.25184 11.6397 2.33086 11.7803 2.47151C11.921 2.61216 12 2.80293 12 3.00184C12 3.20075 11.921 3.39152 11.7803 3.53217C11.6397 3.67282 11.4489 3.75184 11.25 3.75184H5.8725C5.71755 4.19099 5.4302 4.57126 5.05005 4.84025C4.6699 5.10923 4.21568 5.25368 3.75 5.25368C3.28432 5.25368 2.8301 5.10923 2.44995 4.84025C2.0698 4.57126 1.78245 4.19099 1.6275 3.75184H0.75C0.551088 3.75184 0.360322 3.67282 0.21967 3.53217C0.0790178 3.39152 0 3.20075 0 3.00184C0 2.80293 0.0790178 2.61216 0.21967 2.47151C0.360322 2.33086 0.551088 2.25184 0.75 2.25184H1.6275ZM8.25 6.75184C8.05109 6.75184 7.86032 6.83086 7.71967 6.97151C7.57902 7.11216 7.5 7.30293 7.5 7.50184C7.5 7.70075 7.57902 7.89152 7.71967 8.03217C7.86032 8.17282 8.05109 8.25184 8.25 8.25184C8.44891 8.25184 8.63968 8.17282 8.78033 8.03217C8.92098 7.89152 9 7.70075 9 7.50184C9 7.30293 8.92098 7.11216 8.78033 6.97151C8.63968 6.83086 8.44891 6.75184 8.25 6.75184ZM6.1275 6.75184C6.28245 6.31269 6.5698 5.93241 6.94995 5.66343C7.3301 5.39445 7.78432 5.25 8.25 5.25C8.71568 5.25 9.1699 5.39445 9.55005 5.66343C9.9302 5.93241 10.2175 6.31269 10.3725 6.75184H11.25C11.4489 6.75184 11.6397 6.83086 11.7803 6.97151C11.921 7.11216 12 7.30293 12 7.50184C12 7.70075 11.921 7.89152 11.7803 8.03217C11.6397 8.17282 11.4489 8.25184 11.25 8.25184H10.3725C10.2175 8.69099 9.9302 9.07126 9.55005 9.34025C9.1699 9.60923 8.71568 9.75368 8.25 9.75368C7.78432 9.75368 7.3301 9.60923 6.94995 9.34025C6.5698 9.07126 6.28245 8.69099 6.1275 8.25184H0.75C0.551088 8.25184 0.360322 8.17282 0.21967 8.03217C0.0790178 7.89152 0 7.70075 0 7.50184C0 7.30293 0.0790178 7.11216 0.21967 6.97151C0.360322 6.83086 0.551088 6.75184 0.75 6.75184H6.1275ZM3.75 11.2518C3.55109 11.2518 3.36032 11.3309 3.21967 11.4715C3.07902 11.6122 3 11.8029 3 12.0018C3 12.2008 3.07902 12.3915 3.21967 12.5322C3.36032 12.6728 3.55109 12.7518 3.75 12.7518C3.94891 12.7518 4.13968 12.6728 4.28033 12.5322C4.42098 12.3915 4.5 12.2008 4.5 12.0018C4.5 11.8029 4.42098 11.6122 4.28033 11.4715C4.13968 11.3309 3.94891 11.2518 3.75 11.2518ZM1.6275 11.2518C1.78245 10.8127 2.0698 10.4324 2.44995 10.1634C2.8301 9.89445 3.28432 9.75 3.75 9.75C4.21568 9.75 4.6699 9.89445 5.05005 10.1634C5.4302 10.4324 5.71755 10.8127 5.8725 11.2518H11.25C11.4489 11.2518 11.6397 11.3309 11.7803 11.4715C11.921 11.6122 12 11.8029 12 12.0018C12 12.2008 11.921 12.3915 11.7803 12.5322C11.6397 12.6728 11.4489 12.7518 11.25 12.7518H5.8725C5.71755 13.191 5.4302 13.5713 5.05005 13.8402C4.6699 14.1092 4.21568 14.2537 3.75 14.2537C3.28432 14.2537 2.8301 14.1092 2.44995 13.8402C2.0698 13.5713 1.78245 13.191 1.6275 12.7518H0.75C0.551088 12.7518 0.360322 12.6728 0.21967 12.5322C0.0790178 12.3915 0 12.2008 0 12.0018C0 11.8029 0.0790178 11.6122 0.21967 11.4715C0.360322 11.3309 0.551088 11.2518 0.75 11.2518H1.6275Z" fill="#8B9199"/>
</svg>
