<svg width="136" height="47" viewBox="0 0 136 47" fill="none" xmlns="http://www.w3.org/2000/svg">
<rect width="135.85" height="47" rx="5" fill="#121721"/>
<path d="M47.4501 13.3137C47.4671 13.6805 47.4094 14.0469 47.2805 14.3907C47.1515 14.7345 46.9541 15.0485 46.7001 15.3137C46.4165 15.6083 46.074 15.8398 45.695 15.9932C45.3159 16.1465 44.9088 16.2183 44.5001 16.2037C43.8801 16.1988 43.2753 16.0111 42.7615 15.6641C42.2477 15.317 41.8478 14.826 41.6118 14.2526C41.3758 13.6792 41.3143 13.049 41.435 12.4408C41.5556 11.8326 41.8531 11.2736 42.2901 10.8337C42.5773 10.5405 42.9216 10.3093 43.3018 10.1545C43.6819 9.99971 44.0898 9.92456 44.5001 9.9337C44.9229 9.93229 45.3414 10.0174 45.7301 10.1837C46.092 10.3297 46.4141 10.5593 46.6701 10.8537L46.1401 11.3837C45.9405 11.1463 45.6884 10.9586 45.4038 10.8353C45.1192 10.7121 44.8098 10.6568 44.5001 10.6737C44.1877 10.6722 43.8783 10.7337 43.5903 10.8547C43.3023 10.9757 43.0417 11.1535 42.8241 11.3776C42.6066 11.6018 42.4365 11.8675 42.3241 12.1589C42.2117 12.4504 42.1593 12.7615 42.1701 13.0737C42.1636 13.5398 42.2952 13.9975 42.5484 14.3889C42.8017 14.7803 43.1652 15.0879 43.593 15.273C44.0209 15.458 44.494 15.5122 44.9527 15.4287C45.4113 15.3452 45.8349 15.1277 46.1701 14.8037C46.4778 14.4702 46.6553 14.0372 46.6701 13.5837H44.5001V12.8637H47.4101C47.4368 13.0122 47.4502 13.1628 47.4501 13.3137ZM52.0301 10.8137H49.3301V12.7137H51.7901V13.4337H49.3301V15.3337H52.0301V16.0737H48.5301V10.0737H52.0301V10.8137ZM55.3101 16.0737H54.5401V10.8137H52.8601V10.0737H57.0301V10.8137H55.3101V16.0737ZM59.9701 16.0737V10.0737H60.7401V16.0737H59.9701ZM64.1601 16.0737H63.3901V10.8137H61.7101V10.0737H65.8301V10.8137H64.1601V16.0737ZM73.6401 15.2937C73.0555 15.875 72.2646 16.2014 71.4401 16.2014C70.6157 16.2014 69.8247 15.875 69.2401 15.2937C68.6719 14.6922 68.3553 13.8961 68.3553 13.0687C68.3553 12.2413 68.6719 11.4452 69.2401 10.8437C69.5283 10.5534 69.871 10.3231 70.2486 10.1659C70.6262 10.0087 71.0311 9.92773 71.4401 9.92773C71.8491 9.92773 72.2541 10.0087 72.6316 10.1659C73.0092 10.3231 73.352 10.5534 73.6401 10.8437C74.2106 11.444 74.5287 12.2405 74.5287 13.0687C74.5287 13.8969 74.2106 14.6934 73.6401 15.2937ZM69.8101 14.7937C70.243 15.2248 70.8291 15.4669 71.4401 15.4669C72.0511 15.4669 72.6372 15.2248 73.0701 14.7937C73.4973 14.3227 73.734 13.7096 73.734 13.0737C73.734 12.4378 73.4973 11.8247 73.0701 11.3537C72.6372 10.9226 72.0511 10.6805 71.4401 10.6805C70.8291 10.6805 70.243 10.9226 69.8101 11.3537C69.3829 11.8247 69.1462 12.4378 69.1462 13.0737C69.1462 13.7096 69.3829 14.3227 69.8101 14.7937ZM75.6101 16.0737V10.0737H76.5501L79.4701 14.7437V10.0737H80.2401V16.0737H79.4401L76.3901 11.1837V16.0737H75.6101Z" fill="white" stroke="white" stroke-width="0.2" stroke-miterlimit="10"/>
<path d="M68.1701 24.8234C67.3304 24.8273 66.5107 25.0799 65.8144 25.5493C65.1182 26.0187 64.5765 26.6838 64.2579 27.4608C63.9393 28.2377 63.858 29.0916 64.0242 29.9147C64.1905 30.7378 64.5968 31.4932 65.192 32.0856C65.7871 32.6779 66.5445 33.0807 67.3683 33.2431C68.1922 33.4055 69.0457 33.3201 69.8211 32.9979C70.5965 32.6756 71.2591 32.1309 71.7252 31.4324C72.1914 30.734 72.4401 29.9131 72.4401 29.0734C72.4483 28.5113 72.3433 27.9533 72.1313 27.4327C71.9193 26.9121 71.6048 26.4394 71.2064 26.0429C70.808 25.6463 70.3338 25.334 69.8122 25.1245C69.2906 24.915 68.7321 24.8126 68.1701 24.8234ZM68.1701 31.6534C67.6537 31.6895 67.1384 31.5694 66.6911 31.3087C66.2438 31.0481 65.8853 30.6589 65.6621 30.1918C65.439 29.7247 65.3615 29.2012 65.4398 28.6895C65.5181 28.1778 65.7485 27.7014 66.1011 27.3224C66.4537 26.9434 66.9122 26.6792 67.4169 26.5641C67.9216 26.4491 68.4493 26.4886 68.9313 26.6774C69.4133 26.8663 69.8274 27.1958 70.1196 27.6231C70.4119 28.0504 70.5689 28.5557 70.5701 29.0734C70.5862 29.4014 70.5365 29.7293 70.4239 30.0378C70.3112 30.3463 70.1379 30.6291 69.9143 30.8695C69.6906 31.11 69.421 31.3032 69.1215 31.4378C68.8219 31.5725 68.4984 31.6457 68.1701 31.6534ZM58.8601 24.8234C58.02 24.8253 57.1993 25.0763 56.5017 25.5445C55.8041 26.0127 55.2609 26.6771 54.9408 27.4539C54.6206 28.2306 54.5379 29.0848 54.703 29.9086C54.8681 30.7324 55.2737 31.4887 55.8685 32.0821C56.4632 32.6755 57.2205 33.0792 58.0447 33.2424C58.8688 33.4056 59.7228 33.3208 60.4988 32.9989C61.2748 32.6769 61.938 32.1322 62.4046 31.4335C62.8711 30.7348 63.1201 29.9135 63.1201 29.0734C63.1283 28.5113 63.0233 27.9533 62.8113 27.4327C62.5993 26.9121 62.2848 26.4394 61.8864 26.0429C61.488 25.6463 61.0138 25.334 60.4922 25.1245C59.9706 24.915 59.4121 24.8126 58.8501 24.8234H58.8601ZM58.8601 31.6534C58.3435 31.6915 57.8273 31.5732 57.3788 31.3139C56.9303 31.0546 56.5702 30.6663 56.3455 30.1995C56.1208 29.7327 56.0418 29.209 56.1188 28.6967C56.1959 28.1844 56.4254 27.7071 56.7774 27.3271C57.1295 26.947 57.5879 26.6817 58.0928 26.5658C58.5977 26.4499 59.1259 26.4886 59.6085 26.6771C60.0911 26.8655 60.5058 27.1948 60.7986 27.6222C61.0914 28.0496 61.2487 28.5553 61.2501 29.0734C61.2662 29.4014 61.2165 29.7293 61.1039 30.0378C60.9912 30.3463 60.8179 30.6291 60.5943 30.8695C60.3706 31.11 60.101 31.3032 59.8015 31.4378C59.5019 31.5725 59.1784 31.6457 58.8501 31.6534H58.8601ZM47.7701 26.1334V27.9334H52.0901C52.0224 28.7812 51.67 29.5812 51.0901 30.2034C50.6579 30.6436 50.1384 30.9885 49.5648 31.2158C48.9913 31.4432 48.3766 31.5479 47.7601 31.5234C46.4871 31.5234 45.2662 31.0176 44.366 30.1175C43.4658 29.2173 42.9601 27.9964 42.9601 26.7234C42.9601 25.4503 43.4658 24.2294 44.366 23.3292C45.2662 22.4291 46.4871 21.9234 47.7601 21.9234C48.9779 21.9035 50.1539 22.3674 51.0301 23.2134L52.3001 21.9434C51.7086 21.3444 51.0029 20.8702 50.2247 20.549C49.4466 20.2278 48.6119 20.0661 47.7701 20.0734C46.8811 20.0388 45.9943 20.184 45.1628 20.5003C44.3312 20.8167 43.5721 21.2976 42.9309 21.9144C42.2897 22.5311 41.7796 23.271 41.4311 24.0896C41.0827 24.9082 40.9031 25.7887 40.9031 26.6784C40.9031 27.568 41.0827 28.4486 41.4311 29.2672C41.7796 30.0858 42.2897 30.8256 42.9309 31.4424C43.5721 32.0591 44.3312 32.54 45.1628 32.8564C45.9943 33.1727 46.8811 33.318 47.7701 33.2834C48.6261 33.322 49.4804 33.1769 50.2756 32.8578C51.0708 32.5387 51.7884 32.053 52.3801 31.4334C53.4278 30.2823 53.9872 28.7691 53.9401 27.2134C53.9434 26.8343 53.9099 26.4559 53.8401 26.0834L47.7701 26.1334ZM93.0801 27.5334C92.8193 26.7661 92.3316 26.0961 91.6816 25.6122C91.0316 25.1283 90.25 24.8532 89.4401 24.8234C88.8931 24.8223 88.3517 24.9334 87.8494 25.1499C87.347 25.3664 86.8944 25.6836 86.5195 26.0819C86.1446 26.4802 85.8554 26.9512 85.6697 27.4657C85.4841 27.9803 85.4059 28.5274 85.4401 29.0734C85.428 29.6323 85.5286 30.1879 85.736 30.7071C85.9434 31.2262 86.2533 31.6982 86.6472 32.0949C87.0411 32.4916 87.5109 32.8049 88.0286 33.0159C88.5462 33.227 89.1011 33.3316 89.6601 33.3234C90.3596 33.3271 91.0491 33.1574 91.6669 32.8293C92.2847 32.5012 92.8115 32.025 93.2001 31.4434L91.7501 30.4434C91.5337 30.8041 91.2273 31.1026 90.861 31.3094C90.4946 31.5162 90.0808 31.6244 89.6601 31.6234C89.227 31.6399 88.7989 31.5257 88.4315 31.2956C88.0641 31.0655 87.7744 30.7303 87.6001 30.3334L93.2901 27.9834L93.0801 27.5334ZM87.2801 28.9534C87.2599 28.6441 87.3015 28.3338 87.4026 28.0408C87.5038 27.7478 87.6624 27.4779 87.8691 27.247C88.0758 27.016 88.3266 26.8286 88.6067 26.6958C88.8867 26.5629 89.1905 26.4873 89.5001 26.4734C89.8227 26.4521 90.1444 26.5261 90.4253 26.6861C90.7062 26.8461 90.9339 27.0851 91.0801 27.3734L87.2801 28.9534ZM82.6601 33.0734H84.5301V20.5734H82.6601V33.0734ZM79.6001 25.7734H79.5301C79.2483 25.4583 78.903 25.2063 78.517 25.0339C78.131 24.8616 77.7129 24.7728 77.2901 24.7734C76.1973 24.8264 75.1668 25.2978 74.4121 26.0899C73.6574 26.8821 73.2365 27.9343 73.2365 29.0284C73.2365 30.1225 73.6574 31.1746 74.4121 31.9668C75.1668 32.7589 76.1973 33.2304 77.2901 33.2834C77.7139 33.2905 78.1341 33.2046 78.5211 33.0319C78.9081 32.8591 79.2525 32.6036 79.5301 32.2834H79.5901V32.8934C79.5901 34.5234 78.7201 35.3934 77.3201 35.3934C76.8538 35.3824 76.4014 35.233 76.0203 34.9641C75.6392 34.6952 75.3467 34.319 75.1801 33.8834L73.5501 34.5634C73.857 35.3097 74.3798 35.9474 75.0515 36.3946C75.7232 36.8418 76.5132 37.0782 77.3201 37.0734C79.5101 37.0734 81.3201 35.7834 81.3201 32.6434V25.0734H79.6001V25.7734ZM77.4601 31.6534C76.8151 31.5965 76.2147 31.3001 75.7774 30.8225C75.3401 30.345 75.0975 29.7209 75.0975 29.0734C75.0975 28.4258 75.3401 27.8017 75.7774 27.3242C76.2147 26.8466 76.8151 26.5502 77.4601 26.4934C77.78 26.5098 78.0933 26.59 78.3816 26.7294C78.6699 26.8688 78.9274 27.0644 79.139 27.3049C79.3505 27.5453 79.5118 27.8256 79.6133 28.1293C79.7149 28.4331 79.7546 28.754 79.7301 29.0734C79.7574 29.3941 79.7194 29.7169 79.6183 30.0225C79.5172 30.3281 79.3552 30.61 79.1421 30.8511C78.929 31.0923 78.6691 31.2878 78.3783 31.4256C78.0875 31.5635 77.7717 31.641 77.4501 31.6534H77.4601ZM101.84 20.5734H97.3701V33.0734H99.2401V28.3334H101.85C102.383 28.3716 102.918 28.2997 103.422 28.1221C103.926 27.9444 104.388 27.6649 104.779 27.3009C105.17 26.9368 105.482 26.4961 105.696 26.0062C105.909 25.5163 106.019 24.9877 106.019 24.4534C106.019 23.919 105.909 23.3904 105.696 22.9005C105.482 22.4106 105.17 21.9699 104.779 21.6059C104.388 21.2418 103.926 20.9623 103.422 20.7846C102.918 20.607 102.383 20.5351 101.85 20.5734H101.84ZM101.84 26.5734H99.2301V22.3134H101.88C102.449 22.3134 102.995 22.5393 103.397 22.9416C103.799 23.3439 104.025 23.8895 104.025 24.4584C104.025 25.0272 103.799 25.5728 103.397 25.9751C102.995 26.3774 102.449 26.6034 101.88 26.6034L101.84 26.5734ZM113.37 24.7734C112.689 24.7327 112.012 24.8918 111.42 25.2311C110.828 25.5704 110.349 26.0752 110.04 26.6834L111.7 27.3734C111.864 27.0717 112.112 26.8241 112.413 26.6608C112.715 26.4975 113.058 26.4254 113.4 26.4534C113.638 26.4256 113.878 26.4455 114.108 26.5117C114.337 26.5779 114.551 26.6892 114.738 26.8391C114.924 26.9889 115.078 27.1744 115.192 27.3846C115.306 27.5948 115.377 27.8255 115.4 28.0634V28.1934C114.8 27.8754 114.13 27.7105 113.45 27.7134C111.66 27.7134 109.85 28.7134 109.85 30.5234C109.868 30.9093 109.963 31.2878 110.129 31.6364C110.296 31.9851 110.53 32.2968 110.819 32.5532C111.108 32.8095 111.446 33.0054 111.812 33.1291C112.178 33.2528 112.565 33.3018 112.95 33.2734C113.421 33.3072 113.892 33.2136 114.315 33.0025C114.737 32.7913 115.095 32.4704 115.35 32.0734H115.41V33.0734H117.21V28.2634C117.21 26.0734 115.55 24.8034 113.42 24.8034L113.37 24.7734ZM113.14 31.6234C112.53 31.6234 111.68 31.3134 111.68 30.5634C111.68 29.5634 112.74 29.2334 113.68 29.2334C114.274 29.2187 114.861 29.3637 115.38 29.6534C115.318 30.1948 115.062 30.6953 114.659 31.0628C114.257 31.4304 113.735 31.6401 113.19 31.6534L113.14 31.6234ZM123.77 25.0734L121.63 30.4934H121.57L119.35 25.0734H117.35L120.68 32.6534L118.78 36.8634H120.73L125.85 25.0734H123.77ZM106.96 33.0734H108.83V20.5734H106.96V33.0734Z" fill="white"/>
<path d="M10.4699 10.613C10.144 11.0041 9.97948 11.5048 10.0099 12.013V34.133C9.97948 34.6412 10.144 35.1419 10.4699 35.533L10.5399 35.603L22.9299 23.223V22.933L10.5399 10.543L10.4699 10.613Z" fill="url(#paint0_linear_1065_6161)"/>
<path d="M27.0299 27.353L22.9299 23.223V22.933L27.0299 18.793L27.1199 18.843L32.0299 21.633C33.4299 22.423 33.4299 23.723 32.0299 24.523L27.1399 27.303L27.0299 27.353Z" fill="url(#paint1_linear_1065_6161)"/>
<path d="M27.15 27.2942L22.93 23.0742L10.47 35.5342C10.7553 35.7851 11.1194 35.9284 11.4991 35.9393C11.8789 35.9503 12.2506 35.8282 12.55 35.5942L27.16 27.2942" fill="url(#paint2_linear_1065_6161)"/>
<path d="M27.15 18.8528L12.54 10.5528C12.2406 10.3188 11.8689 10.1968 11.4891 10.2077C11.1094 10.2187 10.7453 10.362 10.46 10.6128L22.93 23.0728L27.15 18.8528Z" fill="url(#paint3_linear_1065_6161)"/>
<path opacity="0.2" d="M27.03 27.2031L12.54 35.4531C12.2513 35.669 11.9005 35.7856 11.54 35.7856C11.1795 35.7856 10.8287 35.669 10.54 35.4531L10.47 35.5231L10.54 35.5931C10.828 35.8105 11.1791 35.9281 11.54 35.9281C11.9009 35.9281 12.2519 35.8105 12.54 35.5931L27.15 27.2931L27.03 27.2031Z" fill="black"/>
<path opacity="0.12" d="M10.4699 35.3942C10.144 35.0031 9.97948 34.5024 10.0099 33.9942V34.1442C9.97948 34.6524 10.144 35.1531 10.4699 35.5442L10.5399 35.4742L10.4699 35.3942ZM32.0299 24.3742L27.0299 27.2042L27.1199 27.2942L32.0299 24.5142C32.3085 24.3833 32.5477 24.1813 32.7233 23.9285C32.8988 23.6756 33.0046 23.381 33.0299 23.0742C32.9737 23.3529 32.8543 23.615 32.681 23.8404C32.5076 24.0658 32.2849 24.2484 32.0299 24.3742Z" fill="black"/>
<path opacity="0.25" d="M12.54 10.6946L32.03 21.7746C32.285 21.9005 32.5077 22.0831 32.681 22.3085C32.8544 22.5338 32.9738 22.7959 33.03 23.0746C33.0047 22.7679 32.8989 22.4732 32.7233 22.2204C32.5478 21.9676 32.3086 21.7655 32.03 21.6346L12.54 10.5546C11.14 9.76464 10 10.4246 10 12.0246V12.1746C10.03 10.5646 11.15 9.90465 12.54 10.6946Z" fill="white"/>
<defs>
<linearGradient id="paint0_linear_1065_6161" x1="21.8299" y1="11.783" x2="5.04993" y2="28.563" gradientUnits="userSpaceOnUse">
<stop stop-color="#00A0FF"/>
<stop offset="0.01" stop-color="#00A1FF"/>
<stop offset="0.26" stop-color="#00BEFF"/>
<stop offset="0.51" stop-color="#00D2FF"/>
<stop offset="0.76" stop-color="#00DFFF"/>
<stop offset="1" stop-color="#00E3FF"/>
</linearGradient>
<linearGradient id="paint1_linear_1065_6161" x1="33.8599" y1="23.073" x2="9.66993" y2="23.073" gradientUnits="userSpaceOnUse">
<stop stop-color="#FFE000"/>
<stop offset="0.41" stop-color="#FFBD00"/>
<stop offset="0.78" stop-color="#FFA500"/>
<stop offset="1" stop-color="#FF9C00"/>
</linearGradient>
<linearGradient id="paint2_linear_1065_6161" x1="24.86" y1="25.3742" x2="2.09997" y2="48.1242" gradientUnits="userSpaceOnUse">
<stop stop-color="#FF3A44"/>
<stop offset="1" stop-color="#C31162"/>
</linearGradient>
<linearGradient id="paint3_linear_1065_6161" x1="7.32996" y1="3.2528" x2="17.49" y2="13.4128" gradientUnits="userSpaceOnUse">
<stop stop-color="#32A071"/>
<stop offset="0.07" stop-color="#2DA771"/>
<stop offset="0.48" stop-color="#15CF74"/>
<stop offset="0.8" stop-color="#06E775"/>
<stop offset="1" stop-color="#00F076"/>
</linearGradient>
</defs>
</svg>
