<svg width="20" height="20" viewBox="0 0 20 20" fill="none" xmlns="http://www.w3.org/2000/svg">
<path d="M9.99904 5.00012C9.12991 5.00122 8.29669 5.34697 7.68212 5.96154C7.06756 6.57611 6.72181 7.40933 6.7207 8.27846H8.38737C8.38737 7.38929 9.11071 6.66679 9.99904 6.66679C10.8874 6.66679 11.6107 7.38929 11.6107 8.27846C11.6107 8.77679 11.2099 9.13846 10.5974 9.63346C10.3973 9.79021 10.2051 9.9568 10.0215 10.1326C9.18987 10.9635 9.16571 11.846 9.16571 11.9443V12.5001H10.8324L10.8315 11.9726C10.8324 11.9593 10.859 11.651 11.199 11.3118C11.324 11.1868 11.4815 11.0618 11.6449 10.9301C12.294 10.4043 13.2765 9.61013 13.2765 8.27846C13.2759 7.40934 12.9304 6.57599 12.3159 5.96135C11.7014 5.34671 10.8682 5.001 9.99904 5.00012ZM9.16571 13.3335H10.8324V15.0001H9.16571V13.3335Z" fill="#9C59DF"/>
<path d="M9.99936 1.66675C5.40435 1.66675 1.66602 5.40508 1.66602 10.0001C1.66602 14.5951 5.40435 18.3334 9.99936 18.3334C14.5944 18.3334 18.3327 14.5951 18.3327 10.0001C18.3327 5.40508 14.5944 1.66675 9.99936 1.66675ZM9.99936 16.6668C6.32352 16.6668 3.33268 13.6759 3.33268 10.0001C3.33268 6.32425 6.32352 3.33342 9.99936 3.33342C13.6752 3.33342 16.666 6.32425 16.666 10.0001C16.666 13.6759 13.6752 16.6668 9.99936 16.6668Z" fill="#9C59DF"/>
</svg>
