<svg width="653" height="563" viewBox="0 0 653 563" fill="none" xmlns="http://www.w3.org/2000/svg">
<path d="M232.059 158.485C231.788 158.485 231.528 158.382 231.33 158.197C231.132 158.013 231.011 157.76 230.992 157.489C230.292 147.977 226.026 139.08 219.047 132.579C212.069 126.077 202.892 122.451 193.354 122.425C192.213 122.425 191.014 122.483 189.79 122.597C189.585 122.617 189.38 122.577 189.197 122.482C189.015 122.387 188.863 122.242 188.761 122.064C184.38 114.395 177.837 108.186 169.95 104.212C162.062 100.239 153.179 98.6759 144.409 99.7189C135.639 100.762 127.37 104.365 120.634 110.078C113.899 115.791 108.995 123.361 106.534 131.843C106.469 132.071 106.331 132.27 106.14 132.41C105.95 132.549 105.718 132.622 105.481 132.616L105.197 132.607C105.049 132.602 104.901 132.597 104.752 132.597C97.5171 132.62 90.5079 135.115 84.8869 139.669C79.2659 144.224 75.371 150.563 73.8486 157.635C73.7979 157.876 73.6661 158.091 73.4754 158.246C73.2846 158.401 73.0465 158.485 72.8008 158.485H1.06789C0.78441 158.484 0.512798 158.371 0.31261 158.171C0.112423 157.97 0 157.698 0 157.415C0 157.131 0.112423 156.859 0.31261 156.658C0.512798 156.458 0.78441 156.345 1.06789 156.344H71.944C73.7282 148.987 77.9251 142.441 83.8648 137.748C89.8046 133.056 97.145 130.489 104.715 130.455C107.409 121.739 112.577 113.992 119.591 108.157C126.605 102.321 135.162 98.6486 144.224 97.5844C153.286 96.5202 162.461 98.1104 170.636 102.162C178.811 106.213 185.633 112.552 190.274 120.407C191.328 120.325 192.361 120.284 193.354 120.284C203.434 120.311 213.131 124.143 220.506 131.014C227.881 137.885 232.389 147.287 233.128 157.339C233.138 157.48 233.12 157.621 233.076 157.754C233.031 157.887 232.961 158.011 232.869 158.117C232.776 158.223 232.664 158.31 232.538 158.373C232.412 158.435 232.275 158.473 232.135 158.483C232.11 158.484 232.084 158.485 232.059 158.485Z" fill="#121721"/>
<path d="M512.059 61.2223C511.788 61.2221 511.528 61.1192 511.33 60.9344C511.132 60.7497 511.011 60.4968 510.992 60.2267C510.292 50.7144 506.026 41.8173 499.047 35.3158C492.069 28.8142 482.892 25.1878 473.354 25.1621C472.213 25.1621 471.014 25.2201 469.79 25.3346C469.585 25.3538 469.38 25.3137 469.197 25.2191C469.015 25.1244 468.863 24.9792 468.761 24.8008C464.38 17.1321 457.837 10.9234 449.95 6.94965C442.062 2.97589 433.179 1.41303 424.409 2.45611C415.639 3.49919 407.37 7.10201 400.634 12.8149C393.899 18.5279 388.995 26.0979 386.534 34.5804C386.469 34.8077 386.331 35.007 386.14 35.1468C385.95 35.2867 385.718 35.3591 385.481 35.3529L385.197 35.3443C385.049 35.3393 384.901 35.3341 384.752 35.3341C377.517 35.3567 370.508 37.8522 364.887 42.4065C359.266 46.9608 355.371 53.3001 353.849 60.3726C353.798 60.6129 353.666 60.8285 353.475 60.9833C353.285 61.138 353.046 61.2224 352.801 61.2224H281.068C280.784 61.2217 280.513 61.1085 280.313 60.9078C280.112 60.7071 280 60.4352 280 60.1517C280 59.8682 280.112 59.5963 280.313 59.3956C280.513 59.1949 280.784 59.0817 281.068 59.081H351.944C353.728 51.7247 357.925 45.178 363.865 40.4856C369.805 35.7933 377.145 33.2257 384.715 33.1926C387.409 24.4759 392.577 16.7293 399.591 10.894C406.605 5.05868 415.162 1.3858 424.224 0.321577C433.286 -0.74265 442.461 0.847579 450.636 4.89906C458.811 8.95053 465.633 15.2889 470.274 23.1441C471.328 23.062 472.361 23.0207 473.354 23.0207C483.434 23.048 493.131 26.8805 500.506 33.7513C507.881 40.6221 512.389 50.0244 513.128 60.0767C513.138 60.2169 513.12 60.3578 513.076 60.4912C513.031 60.6245 512.961 60.7478 512.869 60.854C512.776 60.9601 512.664 61.0471 512.538 61.1099C512.412 61.1726 512.275 61.21 512.135 61.2198C512.11 61.2216 512.084 61.2223 512.059 61.2223Z" fill="#121721"/>
<path d="M219.32 172.214H43.7201C43.4362 172.214 43.1638 172.101 42.963 171.9C42.7622 171.699 42.6494 171.427 42.6494 171.143C42.6494 170.859 42.7622 170.587 42.963 170.386C43.1638 170.185 43.4362 170.072 43.7201 170.072H219.32C219.604 170.072 219.876 170.185 220.077 170.386C220.278 170.587 220.39 170.859 220.39 171.143C220.39 171.427 220.278 171.699 220.077 171.9C219.876 172.101 219.604 172.214 219.32 172.214Z" fill="#121721"/>
<path d="M499.32 74.951H323.72C323.436 74.951 323.164 74.8382 322.963 74.6374C322.762 74.4366 322.649 74.1643 322.649 73.8803C322.649 73.5963 322.762 73.324 322.963 73.1232C323.164 72.9224 323.436 72.8096 323.72 72.8096H499.32C499.604 72.8096 499.876 72.9224 500.077 73.1232C500.278 73.324 500.39 73.5963 500.39 73.8803C500.39 74.1643 500.278 74.4366 500.077 74.6374C499.876 74.8382 499.604 74.951 499.32 74.951Z" fill="#121721"/>
<path d="M86.5491 187.74H27.659C27.5182 187.74 27.3786 187.713 27.2484 187.659C27.1182 187.605 26.9998 187.526 26.9001 187.427C26.8003 187.328 26.7212 187.209 26.6672 187.079C26.6132 186.949 26.5854 186.81 26.5854 186.669C26.5854 186.528 26.6132 186.389 26.6672 186.258C26.7212 186.128 26.8003 186.01 26.9001 185.911C26.9998 185.811 27.1182 185.732 27.2484 185.679C27.3786 185.625 27.5182 185.598 27.659 185.598H86.5491C86.8326 185.599 87.1042 185.712 87.3044 185.913C87.5046 186.113 87.617 186.385 87.617 186.669C87.617 186.952 87.5046 187.224 87.3044 187.425C87.1042 187.626 86.8326 187.739 86.5491 187.74Z" fill="#121721"/>
<path d="M366.549 90.4768H307.659C307.518 90.4772 307.379 90.4498 307.248 90.3961C307.118 90.3425 307 90.2637 306.9 90.1642C306.8 90.0647 306.721 89.9466 306.667 89.8165C306.613 89.6864 306.585 89.5469 306.585 89.4061C306.585 89.2652 306.613 89.1258 306.667 88.9957C306.721 88.8656 306.8 88.7474 306.9 88.6479C307 88.5485 307.118 88.4697 307.248 88.416C307.379 88.3624 307.518 88.335 307.659 88.3353H366.549C366.833 88.3361 367.104 88.4492 367.304 88.6499C367.505 88.8507 367.617 89.1226 367.617 89.4061C367.617 89.6896 367.505 89.9615 367.304 90.1622C367.104 90.3629 366.833 90.476 366.549 90.4768Z" fill="#121721"/>
<g filter="url(#filter0_d_2_1807)">
<path d="M141.609 396.075C141.609 439.605 95.9719 460.434 95.9719 460.434C95.9719 460.434 49.867 439.605 48.9308 396.075C48.3806 370.488 69.6775 349.736 95.2698 349.736C101.355 349.736 107.381 350.934 113.003 353.263C118.625 355.592 123.733 359.005 128.036 363.308C132.339 367.611 135.753 372.719 138.081 378.341C140.41 383.964 141.609 389.989 141.609 396.075Z" fill="#9C59DF"/>
</g>
<g filter="url(#filter1_d_2_1807)">
<path d="M111.419 463.008H80.5256L76.7808 448.03H115.163L111.419 463.008Z" fill="#3F3D56"/>
</g>
<g filter="url(#filter2_d_2_1807)">
<path d="M110.365 488.624H81.5786V503.625H110.365V488.624Z" fill="#3F3D56"/>
</g>
<path d="M110.599 503.859H81.3447V488.39H110.599V503.859ZM81.8128 503.391H110.131V488.858H81.8128V503.391Z" fill="#C1C7D0"/>
<g filter="url(#filter3_d_2_1807)">
<path d="M101.873 464.775H90.0711L88.7168 462.647H103.227L101.873 464.775Z" fill="#3F3D56"/>
</g>
<path d="M81.2273 463.009H80.7593V485.944H81.2273V463.009Z" fill="#C1C7D0"/>
<path d="M111.184 463.009H110.716V485.944H111.184V463.009Z" fill="#C1C7D0"/>
<path d="M100.664 447.777L100.378 447.406C113.9 436.978 130.019 419.114 130.019 393.226C130.03 384.159 127.363 375.291 122.354 367.734C117.345 360.176 110.215 354.266 101.86 350.744L102.043 350.313C110.482 353.871 117.684 359.841 122.744 367.475C127.805 375.109 130.498 384.067 130.487 393.226C130.487 419.304 114.269 437.285 100.664 447.777Z" fill="#FDFDFD"/>
<path d="M85.6852 447.777L85.3994 447.406C98.9216 436.979 115.041 419.114 115.041 393.226C115.044 384.22 112.41 375.411 107.463 367.885C102.515 360.36 95.4719 354.448 87.2025 350.881L87.3881 350.452C95.7414 354.055 102.856 360.026 107.854 367.628C112.851 375.23 115.513 384.129 115.509 393.226C115.509 419.304 99.2906 437.285 85.6852 447.777Z" fill="#FDFDFD"/>
<path d="M104.854 447.777C91.2489 437.285 75.0308 419.304 75.0308 393.226C75.0271 384.129 77.6884 375.229 82.6859 367.628C87.6835 360.026 94.7985 354.055 103.152 350.451L103.337 350.881C95.068 354.448 88.0245 360.359 83.0771 367.885C78.1297 375.41 75.4952 384.22 75.4988 393.226C75.4988 419.114 91.6178 436.978 105.14 447.406L104.854 447.777Z" fill="#FDFDFD"/>
<path d="M89.8758 447.777C76.2705 437.285 60.0523 419.304 60.0523 393.226C60.037 384.031 62.7496 375.038 67.8467 367.385C72.9438 359.732 80.1964 353.763 88.6869 350.233L88.8674 350.665C80.4622 354.16 73.2824 360.069 68.2364 367.645C63.1905 375.221 60.5052 384.123 60.5203 393.226C60.5203 419.114 76.6394 436.978 90.1616 447.406L89.8758 447.777Z" fill="#FDFDFD"/>
<path d="M95.5037 349.736H95.0356V448.03H95.5037V349.736Z" fill="#FDFDFD"/>
<path d="M89.9961 485.223L81.4131 493.806L81.744 494.137L90.3271 485.554L89.9961 485.223Z" fill="#C1C7D0"/>
<path d="M94.1685 485.08L81.4097 498.499L81.7488 498.822L94.5077 485.403L94.1685 485.08Z" fill="#C1C7D0"/>
<g filter="url(#filter4_d_2_1807)">
<path d="M113.056 485.242H77.9512V489.455H113.056V485.242Z" fill="#3F3D56"/>
</g>
<path d="M113.29 489.689H77.7168V485.008H113.29V489.689ZM78.1849 489.221H112.822V485.476H78.1849V489.221Z" fill="#C1C7D0"/>
<g filter="url(#filter5_d_2_1807)">
<path d="M229.929 285.755C229.929 314.487 199.807 328.235 199.807 328.235C199.807 328.235 169.375 314.487 168.757 285.755C168.394 268.867 182.451 255.169 199.343 255.169C207.455 255.169 215.235 258.391 220.971 264.127C226.706 269.863 229.929 277.643 229.929 285.755Z" fill="#9C59DF"/>
</g>
<g filter="url(#filter6_d_2_1807)">
<path d="M210.002 329.934H189.611L187.14 320.048H212.474L210.002 329.934Z" fill="#3F3D56"/>
</g>
<g filter="url(#filter7_d_2_1807)">
<path d="M209.307 346.842H190.307V356.743H209.307V346.842Z" fill="#3F3D56"/>
</g>
<path d="M209.461 356.898H190.152V346.687H209.461V356.898ZM190.461 356.589H209.152V346.996H190.461V356.589Z" fill="#C1C7D0"/>
<g filter="url(#filter8_d_2_1807)">
<path d="M203.701 331.1H195.911L195.018 329.695H204.595L203.701 331.1Z" fill="#3F3D56"/>
</g>
<path d="M190.075 329.934H189.766V345.073H190.075V329.934Z" fill="#C1C7D0"/>
<path d="M209.848 329.934H209.539V345.073H209.848V329.934Z" fill="#C1C7D0"/>
<path d="M202.903 319.881L202.715 319.636C211.64 312.753 222.279 300.962 222.279 283.875C222.286 277.89 220.526 272.037 217.22 267.048C213.914 262.06 209.208 258.159 203.693 255.835L203.814 255.55C209.384 257.898 214.138 261.839 217.478 266.878C220.818 271.917 222.595 277.829 222.588 283.875C222.588 301.087 211.884 312.955 202.903 319.881Z" fill="#FDFDFD"/>
<path d="M193.017 319.881L192.829 319.636C201.754 312.753 212.393 300.962 212.393 283.875C212.396 277.93 210.657 272.115 207.391 267.148C204.126 262.181 199.477 258.28 194.019 255.925L194.141 255.642C199.655 258.02 204.351 261.961 207.649 266.979C210.948 271.996 212.705 277.87 212.702 283.875C212.702 301.087 201.997 312.955 193.017 319.881Z" fill="#FDFDFD"/>
<path d="M205.669 319.881C196.689 312.955 185.984 301.087 185.984 283.875C185.982 277.87 187.739 271.996 191.037 266.979C194.336 261.961 199.032 258.02 204.546 255.642L204.668 255.925C199.21 258.28 194.561 262.181 191.295 267.148C188.03 272.115 186.291 277.93 186.293 283.875C186.293 300.962 196.933 312.753 205.858 319.636L205.669 319.881Z" fill="#FDFDFD"/>
<path d="M195.783 319.881C186.803 312.956 176.098 301.088 176.098 283.875C176.088 277.806 177.878 271.87 181.243 266.819C184.607 261.767 189.394 257.828 194.998 255.498L195.117 255.783C189.57 258.089 184.831 261.99 181.5 266.99C178.17 271.991 176.397 277.867 176.407 283.875C176.407 300.962 187.046 312.753 195.972 319.636L195.783 319.881Z" fill="#FDFDFD"/>
<path d="M199.498 255.169H199.189V320.048H199.498V255.169Z" fill="#FDFDFD"/>
<path d="M195.862 344.597L190.197 350.262L190.416 350.48L196.081 344.815L195.862 344.597Z" fill="#C1C7D0"/>
<path d="M198.617 344.503L190.195 353.36L190.419 353.573L198.841 344.715L198.617 344.503Z" fill="#C1C7D0"/>
<g filter="url(#filter9_d_2_1807)">
<path d="M211.083 344.609H187.912V347.39H211.083V344.609Z" fill="#3F3D56"/>
</g>
<path d="M211.238 347.544H187.758V344.455H211.238V347.544ZM188.067 347.235H210.929V344.764H188.067V347.235Z" fill="#C1C7D0"/>
<path d="M485.997 325.037C486.191 325.037 486.378 324.963 486.52 324.831C486.662 324.698 486.749 324.517 486.762 324.323C487.264 317.505 490.322 311.128 495.324 306.467C500.326 301.807 506.904 299.208 513.74 299.189C514.559 299.189 515.418 299.231 516.295 299.313C516.442 299.327 516.589 299.298 516.72 299.23C516.851 299.162 516.96 299.058 517.033 298.93C520.173 293.434 524.863 288.983 530.517 286.135C536.17 283.287 542.538 282.166 548.824 282.914C555.11 283.662 561.037 286.244 565.865 290.339C570.693 294.434 574.208 299.86 575.972 305.94C576.018 306.103 576.118 306.246 576.254 306.346C576.391 306.446 576.557 306.498 576.727 306.494L576.931 306.488C577.037 306.484 577.143 306.48 577.25 306.48C582.435 306.497 587.459 308.285 591.489 311.55C595.518 314.814 598.309 319.358 599.401 324.428C599.437 324.6 599.531 324.755 599.668 324.865C599.805 324.976 599.976 325.037 600.152 325.037H651.569C651.67 325.037 651.77 325.018 651.863 324.979C651.957 324.941 652.042 324.884 652.113 324.813C652.185 324.742 652.241 324.657 652.28 324.564C652.319 324.47 652.339 324.37 652.339 324.269C652.339 324.168 652.319 324.068 652.28 323.975C652.241 323.882 652.185 323.797 652.113 323.726C652.042 323.655 651.957 323.598 651.863 323.56C651.77 323.521 651.67 323.502 651.569 323.502H600.766C599.487 318.229 596.479 313.536 592.221 310.173C587.964 306.81 582.702 304.969 577.276 304.945C575.345 298.697 571.64 293.145 566.613 288.962C561.585 284.779 555.452 282.147 548.956 281.384C542.461 280.621 535.884 281.761 530.025 284.665C524.165 287.569 519.275 292.112 515.948 297.743C515.193 297.684 514.453 297.654 513.74 297.654C506.516 297.674 499.565 300.421 494.279 305.346C488.992 310.271 485.761 317.01 485.231 324.216C485.224 324.316 485.237 324.417 485.269 324.513C485.301 324.608 485.351 324.697 485.417 324.773C485.483 324.849 485.564 324.911 485.654 324.956C485.744 325.001 485.842 325.028 485.943 325.035C485.961 325.036 485.979 325.037 485.997 325.037Z" fill="#121721"/>
<path d="M495.129 334.877H620.996C621.2 334.877 621.395 334.796 621.539 334.652C621.683 334.509 621.764 334.313 621.764 334.11C621.764 333.906 621.683 333.711 621.539 333.567C621.395 333.423 621.2 333.342 620.996 333.342H495.129C494.925 333.342 494.73 333.423 494.586 333.567C494.442 333.711 494.361 333.906 494.361 334.11C494.361 334.313 494.442 334.509 494.586 334.652C494.73 334.796 494.925 334.877 495.129 334.877Z" fill="#121721"/>
<path d="M590.297 346.006H632.508C632.712 346.006 632.906 345.924 633.05 345.781C633.193 345.637 633.274 345.442 633.274 345.239C633.274 345.036 633.193 344.841 633.05 344.697C632.906 344.553 632.712 344.472 632.508 344.471H590.297C590.196 344.471 590.096 344.491 590.003 344.53C589.91 344.568 589.825 344.625 589.754 344.696C589.683 344.767 589.626 344.852 589.588 344.945C589.549 345.038 589.529 345.138 589.529 345.239C589.529 345.339 589.549 345.439 589.588 345.532C589.626 345.626 589.683 345.71 589.754 345.781C589.825 345.853 589.91 345.909 590.003 345.948C590.096 345.986 590.196 346.006 590.297 346.006Z" fill="#121721"/>
<path d="M394.15 531.19H391.623L390.421 521.446H394.15V531.19Z" fill="#9F616A"/>
<path d="M394.794 533.64H386.648V533.537C386.649 532.696 386.984 531.89 387.578 531.296C388.173 530.701 388.979 530.367 389.819 530.366H394.794V533.64Z" fill="#2F2E41"/>
<path d="M426.728 526.403L424.562 527.705L418.513 519.971L421.709 518.051L426.728 526.403Z" fill="#9F616A"/>
<path d="M421.559 532.366L421.506 532.278C421.074 531.557 420.946 530.694 421.149 529.878C421.352 529.062 421.871 528.361 422.591 527.927L426.856 525.365L428.542 528.171L421.559 532.366Z" fill="#2F2E41"/>
<path d="M394.807 529.18L394.763 529.18C393.534 529.176 392.306 529.105 391.085 528.968C390.619 528.922 390.114 528.872 389.506 528.822L389.485 528.818C389.07 528.695 389.059 524.802 389.235 511.476C389.325 504.651 389.427 496.915 389.305 491.988L389.304 491.94L389.341 491.908C391.538 489.982 394.16 488.603 396.992 487.884C399.824 487.165 402.787 487.126 405.637 487.771L405.681 487.78L405.705 487.819C408.187 492.02 411.936 498.072 415.562 503.924C423.884 517.358 426.264 521.309 426.004 521.607L425.972 521.632C425.404 521.916 424.977 522.134 424.614 522.32C423.178 523.064 421.703 523.729 420.195 524.314L420.129 524.341L420.08 524.288C411.636 515.034 404.608 504.698 400.262 495.143C399.754 498.405 399.137 502.664 398.486 507.165C396.613 520.108 395.347 528.63 394.837 529.149L394.807 529.18Z" fill="#2F2E41"/>
<g filter="url(#filter10_d_2_1807)">
<path d="M397.082 492.984C402.117 492.962 407.119 493.799 411.873 495.46C412.039 487.48 409.364 479.701 404.325 473.51L404.288 473.465L404.307 473.411C405.634 469.578 407.005 465.616 408.23 461.674L408.211 461.608C407.352 458.553 405.508 455.466 402.573 452.171C402.255 451.841 401.823 451.645 401.365 451.621C400.908 451.598 400.458 451.75 400.108 452.046C397.537 454.397 395.534 457.302 394.252 460.542C392.97 463.781 392.441 467.27 392.706 470.744L392.708 470.764L392.702 470.783C390.405 478.568 389.57 482.567 388.834 486.094C388.298 488.668 387.833 490.896 386.899 494.08C390.245 493.352 393.658 492.985 397.082 492.984Z" fill="#CBCBCB"/>
</g>
<path opacity="0.1" d="M404.495 468.374L397.02 484.649L392.749 480.326L404.495 468.374Z" fill="#121721"/>
<g filter="url(#filter11_d_2_1807)">
<path d="M401.299 450.586C404.237 450.586 406.618 448.205 406.618 445.268C406.618 442.331 404.237 439.95 401.299 439.95C398.362 439.95 395.981 442.331 395.981 445.268C395.981 448.205 398.362 450.586 401.299 450.586Z" fill="#9F616A"/>
</g>
<g filter="url(#filter12_d_2_1807)">
<path d="M394.851 442.264H403.296V438.582C401.443 437.846 399.629 437.22 398.532 438.582C397.556 438.582 396.62 438.97 395.929 439.661C395.239 440.351 394.851 441.287 394.851 442.264Z" fill="#2F2E41"/>
</g>
<g filter="url(#filter13_d_2_1807)">
<path d="M403.763 437.933C408.812 437.933 410.225 444.261 410.225 447.831C410.225 449.822 409.325 450.534 407.91 450.775L407.41 448.11L406.24 450.89C405.842 450.892 405.425 450.884 404.992 450.876L404.595 450.059L403.71 450.861C400.166 450.867 397.302 451.383 397.302 447.831C397.302 444.261 398.541 437.933 403.763 437.933Z" fill="#2F2E41"/>
</g>
<g filter="url(#filter14_d_2_1807)">
<path d="M556.259 192.223C556.259 332.402 409.298 399.477 409.298 399.477C409.298 399.477 260.828 332.402 257.814 192.223C256.042 109.828 324.623 43 407.037 43C489.45 43 556.259 109.809 556.259 192.223Z" fill="#9C59DF"/>
</g>
<path d="M412.451 530.089H409.352L407.879 518.141H412.451V530.089Z" fill="#FFB7B7"/>
<path d="M407.139 529.204H413.114V532.966H403.378C403.378 532.472 403.475 531.983 403.664 531.526C403.853 531.07 404.13 530.655 404.48 530.306C404.829 529.957 405.244 529.679 405.7 529.49C406.156 529.301 406.645 529.204 407.139 529.204Z" fill="#2F2E41"/>
<path d="M424.073 530.089H420.976L419.501 518.141H424.074L424.073 530.089Z" fill="#FFB7B7"/>
<path d="M418.762 529.204H424.737V532.966H415.001C415.001 531.968 415.397 531.011 416.103 530.306C416.808 529.6 417.765 529.204 418.762 529.204Z" fill="#2F2E41"/>
<g filter="url(#filter15_d_2_1807)">
<path d="M423.695 494.503C423.361 494.289 423.078 494.003 422.867 493.668C422.655 493.332 422.52 492.954 422.47 492.56C422.42 492.166 422.458 491.767 422.579 491.389C422.701 491.011 422.904 490.665 423.173 490.374L421.134 461.428L427.009 461.998L427.171 490.344C427.629 490.83 427.894 491.468 427.914 492.135C427.934 492.803 427.708 493.455 427.28 493.968C426.851 494.48 426.25 494.818 425.589 494.917C424.928 495.015 424.254 494.868 423.695 494.503Z" fill="#FFB7B7"/>
</g>
<path d="M412.304 524.07L408.894 523.907C408.603 523.893 408.329 523.769 408.128 523.559C407.926 523.349 407.813 523.07 407.811 522.78L407.573 488.275C407.572 488.112 407.606 487.95 407.673 487.8C407.741 487.651 407.839 487.518 407.963 487.41C408.086 487.303 408.232 487.223 408.389 487.177C408.546 487.13 408.711 487.119 408.873 487.142L422.516 489.123C422.785 489.16 423.032 489.294 423.211 489.499C423.39 489.704 423.489 489.967 423.49 490.239L425.244 522.211C425.245 522.361 425.217 522.51 425.16 522.649C425.104 522.788 425.02 522.914 424.914 523.021C424.809 523.127 424.683 523.212 424.544 523.269C424.406 523.327 424.257 523.357 424.107 523.357H420.431C420.16 523.358 419.897 523.261 419.691 523.085C419.485 522.909 419.349 522.664 419.308 522.396C419.308 522.396 416.531 498.415 416.149 498.429C415.766 498.436 413.487 523.069 413.487 523.069C413.453 523.345 413.32 523.599 413.112 523.784C412.904 523.968 412.636 524.07 412.358 524.071C412.34 524.071 412.322 524.071 412.304 524.07Z" fill="#2F2E41"/>
<g filter="url(#filter16_d_2_1807)">
<path d="M422.464 471.154C422.326 471.055 422.213 470.927 422.132 470.778C422.05 470.629 422.003 470.464 421.994 470.295L421.564 462.493C421.521 461.721 421.766 460.959 422.252 460.356C422.737 459.753 423.429 459.351 424.193 459.228C424.957 459.105 425.74 459.269 426.39 459.689C427.041 460.108 427.513 460.754 427.715 461.501L429.607 468.476C429.685 468.767 429.645 469.078 429.495 469.339C429.345 469.601 429.098 469.792 428.807 469.871L423.427 471.33C423.264 471.374 423.092 471.382 422.926 471.351C422.759 471.321 422.601 471.254 422.464 471.154Z" fill="#3F3D56"/>
</g>
<g filter="url(#filter17_d_2_1807)">
<path d="M417.439 452.613C420.866 452.613 423.645 449.835 423.645 446.407C423.645 442.98 420.866 440.201 417.439 440.201C414.011 440.201 411.233 442.98 411.233 446.407C411.233 449.835 414.011 452.613 417.439 452.613Z" fill="#FFB7B7"/>
</g>
<g filter="url(#filter18_d_2_1807)">
<path d="M421.83 451.317C421.571 451.597 421.237 451.796 420.868 451.893C420.499 451.99 420.11 451.979 419.746 451.862C419.383 451.745 419.061 451.527 418.817 451.233C418.574 450.939 418.419 450.582 418.372 450.203C418.36 450.072 418.361 449.941 418.374 449.81C418.452 449.064 418.883 448.386 418.78 447.598C418.757 447.402 418.684 447.215 418.568 447.055C417.645 445.82 415.48 447.608 414.609 446.49C414.075 445.804 414.703 444.724 414.293 443.958C413.752 442.946 412.151 443.445 411.146 442.891C410.029 442.275 410.095 440.56 410.831 439.517C411.31 438.901 411.919 438.398 412.614 438.044C413.31 437.69 414.074 437.494 414.854 437.469C416.416 437.432 417.967 437.735 419.401 438.356C421.093 438.907 422.587 439.942 423.696 441.335C424.27 442.247 424.634 443.276 424.761 444.347C424.888 445.418 424.775 446.504 424.431 447.525C424.056 448.779 422.776 450.31 421.83 451.317Z" fill="#2F2E41"/>
</g>
<g filter="url(#filter19_d_2_1807)">
<path d="M423.633 456.758C423.525 456.681 423.415 456.605 423.303 456.53C422.707 456.134 422.062 455.818 421.384 455.589V453.959H416.583V455.472C414.992 455.911 413.565 456.808 412.479 458.052C411.394 459.295 410.698 460.831 410.478 462.467L407.209 486.736C407.188 486.888 407.198 487.043 407.238 487.19C407.279 487.338 407.349 487.476 407.444 487.596C407.537 487.715 407.654 487.814 407.786 487.886C407.919 487.959 408.065 488.004 408.216 488.019C410.506 488.315 412.713 489.071 414.704 490.241C416.15 491.042 417.778 491.457 419.431 491.447C420.743 491.442 422.044 491.211 423.278 490.762C423.487 490.685 423.668 490.548 423.8 490.368C423.931 490.188 424.006 489.973 424.015 489.75C424.133 487.139 424.821 473.695 426.826 465.494C427.215 463.886 427.12 462.198 426.552 460.643C425.984 459.088 424.968 457.737 423.633 456.758Z" fill="#3F3D56"/>
</g>
<g filter="url(#filter20_d_2_1807)">
<path d="M459.039 407.767H359.557L347.499 359.533H471.097L459.039 407.767Z" fill="#3F3D56"/>
</g>
<g filter="url(#filter21_d_2_1807)">
<path d="M455.647 490.254H362.948V538.562H455.647V490.254Z" fill="#3F3D56"/>
</g>
<path d="M456.401 539.316H362.195V489.5H456.401V539.316ZM363.702 537.808H454.894V491.008H363.702V537.808Z" fill="#C1C7D0"/>
<g filter="url(#filter22_d_2_1807)">
<path d="M428.3 413.455H390.296L385.935 406.601H432.661L428.3 413.455Z" fill="#3F3D56"/>
</g>
<path d="M361.818 407.767H360.311V481.624H361.818V407.767Z" fill="#C1C7D0"/>
<path d="M458.285 407.767H456.778V481.624H458.285V407.767Z" fill="#C1C7D0"/>
<path d="M424.407 358.716L423.486 357.522C467.031 323.943 518.938 266.415 518.938 183.05C518.973 153.852 510.386 125.294 494.254 100.957C478.123 76.6206 455.165 57.5885 428.26 46.2479L428.847 44.8599C456.025 56.3155 479.216 75.5407 495.511 100.124C511.807 124.708 520.481 153.556 520.445 183.05C520.445 267.027 468.219 324.93 424.407 358.716Z" fill="#FDFDFD"/>
<path d="M376.172 358.716L375.252 357.523C418.797 323.943 470.704 266.415 470.704 183.05C470.716 154.048 462.232 125.679 446.301 101.445C430.369 77.2118 407.688 58.176 381.058 46.6891L381.656 45.3054C408.556 56.9089 431.467 76.1379 447.56 100.617C463.654 125.097 472.223 153.754 472.212 183.05C472.212 267.028 419.985 324.93 376.172 358.716Z" fill="#FDFDFD"/>
<path d="M437.901 358.716C394.088 324.93 341.862 267.028 341.862 183.05C341.85 153.754 350.42 125.096 366.513 100.617C382.607 76.1374 405.519 56.9084 432.419 45.3052L433.016 46.6888C406.387 58.1755 383.705 77.2113 367.773 101.445C351.841 125.679 343.357 154.048 343.369 183.05C343.369 266.415 395.276 323.943 438.821 357.522L437.901 358.716Z" fill="#FDFDFD"/>
<path d="M389.668 358.716C345.855 324.93 293.629 267.028 293.629 183.05C293.579 153.44 302.314 124.48 318.728 99.8359C335.142 75.1915 358.498 55.9697 385.839 44.6027L386.42 45.9937C359.353 57.2465 336.233 76.2751 319.984 100.672C303.734 125.069 295.087 153.737 295.136 183.05C295.136 266.416 347.043 323.943 390.588 357.522L389.668 358.716Z" fill="#FDFDFD"/>
<path d="M407.791 43H406.283V359.533H407.791V43Z" fill="#FDFDFD"/>
<path d="M390.055 479.302L362.415 506.941L363.481 508.007L391.12 480.367L390.055 479.302Z" fill="#C1C7D0"/>
<path d="M403.491 478.842L362.405 522.054L363.497 523.092L404.584 479.88L403.491 478.842Z" fill="#C1C7D0"/>
<g filter="url(#filter23_d_2_1807)">
<path d="M464.314 479.363H351.267V492.929H464.314V479.363Z" fill="#3F3D56"/>
</g>
<path d="M465.068 493.683H350.513V478.61H465.068V493.683ZM352.02 492.175H463.561V480.117H352.02V492.175Z" fill="#C1C7D0"/>
<g filter="url(#filter24_d_2_1807)">
<path d="M387.829 485.673C388.132 485.652 388.425 485.565 388.69 485.418C388.955 485.271 389.185 485.068 389.363 484.823C389.541 484.577 389.663 484.296 389.72 483.999C389.777 483.701 389.769 483.395 389.695 483.101L395.855 479.065L392.342 477.548L387.031 481.613C386.546 481.769 386.135 482.099 385.876 482.538C385.617 482.978 385.529 483.497 385.627 483.997C385.725 484.498 386.004 484.945 386.41 485.254C386.816 485.562 387.321 485.712 387.829 485.673H387.829Z" fill="#9F616A"/>
</g>
<g filter="url(#filter25_d_2_1807)">
<path d="M393.756 482.766L393.679 482.711C392.213 481.632 390.585 480.516 389.012 479.437L388.917 479.372L388.991 479.285C392.351 475.355 395.713 471.25 398.966 467.279L398.96 467.264L398.99 467.249L399.003 467.233L399.01 467.239L399.03 467.229L398.941 467.235L397.939 459.374C397.442 458.556 397.189 457.614 397.208 456.658C397.227 455.702 397.518 454.771 398.047 453.974C398.655 453.114 399.559 452.508 400.586 452.274C401.613 452.039 402.69 452.192 403.612 452.703C404.066 453.008 404.447 453.412 404.724 453.884C405.002 454.356 405.17 454.884 405.215 455.43C405.28 455.916 405.235 456.411 405.084 456.877C404.933 457.344 404.679 457.771 404.342 458.127C404.689 461.942 404.842 465.773 404.801 469.604L404.801 469.64L404.778 469.669C401.311 474.075 397.502 478.456 393.819 482.694L393.756 482.766Z" fill="#CBCBCB"/>
</g>
<g filter="url(#filter26_d_2_1807)">
<path d="M394.95 458.6C394.981 458.736 395.001 458.875 395.01 459.014L405.864 465.276L408.503 463.757L411.315 467.439L405.671 471.462L393.288 461.693C392.783 461.88 392.233 461.909 391.711 461.775C391.19 461.642 390.721 461.353 390.367 460.947C390.014 460.541 389.792 460.036 389.732 459.501C389.672 458.966 389.777 458.425 390.032 457.951C390.286 457.476 390.68 457.091 391.159 456.845C391.638 456.6 392.181 456.506 392.715 456.577C393.249 456.647 393.749 456.878 394.148 457.24C394.547 457.601 394.827 458.076 394.95 458.6H394.95Z" fill="#FFB7B7"/>
</g>
<g filter="url(#filter27_d_2_1807)">
<path d="M406.252 464.743C406.234 464.575 406.254 464.404 406.31 464.245C406.367 464.085 406.459 463.94 406.579 463.82L412.103 458.295C412.65 457.747 413.381 457.422 414.154 457.381C414.927 457.341 415.688 457.588 416.289 458.075C416.891 458.562 417.291 459.254 417.412 460.019C417.534 460.783 417.368 461.566 416.946 462.215L413.012 468.277C412.848 468.53 412.59 468.707 412.295 468.77C412 468.833 411.693 468.776 411.439 468.612L406.764 465.578C406.622 465.486 406.502 465.363 406.413 465.219C406.325 465.074 406.27 464.912 406.252 464.743Z" fill="#3F3D56"/>
</g>
<path d="M331.091 410.953C330.897 410.953 330.71 410.879 330.568 410.747C330.426 410.614 330.34 410.433 330.326 410.239C329.825 403.421 326.767 397.044 321.764 392.384C316.762 387.723 310.185 385.124 303.348 385.106C302.53 385.106 301.67 385.147 300.793 385.229C300.646 385.243 300.499 385.214 300.368 385.146C300.237 385.079 300.129 384.974 300.056 384.847C296.915 379.35 292.226 374.899 286.572 372.051C280.918 369.203 274.551 368.082 268.264 368.83C261.978 369.578 256.051 372.16 251.223 376.255C246.395 380.35 242.88 385.776 241.117 391.856C241.07 392.019 240.971 392.162 240.834 392.262C240.697 392.363 240.531 392.415 240.362 392.41L240.158 392.404C240.052 392.4 239.946 392.397 239.839 392.397C234.653 392.413 229.629 394.202 225.6 397.466C221.571 400.731 218.779 405.274 217.688 410.344C217.651 410.516 217.557 410.671 217.42 410.782C217.283 410.893 217.113 410.953 216.937 410.953H165.519C165.418 410.953 165.318 410.934 165.225 410.895C165.132 410.857 165.047 410.8 164.975 410.729C164.904 410.658 164.847 410.573 164.808 410.48C164.769 410.387 164.75 410.287 164.75 410.186C164.75 410.085 164.769 409.985 164.808 409.891C164.847 409.798 164.904 409.713 164.975 409.642C165.047 409.571 165.132 409.514 165.225 409.476C165.318 409.437 165.418 409.418 165.519 409.418H216.322C217.601 404.145 220.61 399.453 224.867 396.089C229.125 392.726 234.386 390.885 239.812 390.862C241.744 384.614 245.448 379.061 250.475 374.878C255.503 370.696 261.637 368.063 268.132 367.3C274.627 366.537 281.204 367.677 287.064 370.581C292.923 373.485 297.814 378.029 301.14 383.659C301.895 383.6 302.636 383.571 303.348 383.571C310.573 383.59 317.524 386.337 322.81 391.262C328.096 396.187 331.327 402.926 331.857 410.132C331.865 410.232 331.852 410.333 331.82 410.429C331.788 410.525 331.737 410.613 331.671 410.689C331.605 410.765 331.525 410.827 331.435 410.872C331.344 410.917 331.246 410.944 331.146 410.951C331.127 410.952 331.109 410.953 331.091 410.953Z" fill="#121721"/>
<path d="M321.959 420.793H196.092C195.991 420.794 195.891 420.774 195.797 420.736C195.704 420.697 195.619 420.641 195.547 420.569C195.476 420.498 195.419 420.413 195.38 420.32C195.342 420.227 195.322 420.127 195.322 420.026C195.322 419.925 195.342 419.825 195.38 419.732C195.419 419.638 195.476 419.554 195.547 419.482C195.619 419.411 195.704 419.355 195.797 419.316C195.891 419.278 195.991 419.258 196.092 419.258H321.959C322.163 419.258 322.358 419.339 322.502 419.483C322.646 419.627 322.727 419.822 322.727 420.026C322.727 420.229 322.646 420.425 322.502 420.569C322.358 420.713 322.163 420.793 321.959 420.793Z" fill="#121721"/>
<path d="M226.791 431.922H184.579C184.478 431.923 184.378 431.903 184.285 431.864C184.192 431.826 184.107 431.77 184.035 431.698C183.964 431.627 183.907 431.542 183.868 431.449C183.829 431.356 183.81 431.256 183.81 431.155C183.81 431.054 183.829 430.954 183.868 430.86C183.907 430.767 183.964 430.682 184.035 430.611C184.107 430.54 184.192 430.483 184.285 430.445C184.378 430.407 184.478 430.387 184.579 430.387H226.791C226.892 430.387 226.992 430.407 227.086 430.445C227.179 430.483 227.264 430.54 227.335 430.611C227.407 430.682 227.464 430.767 227.502 430.86C227.541 430.954 227.561 431.054 227.561 431.155C227.561 431.256 227.541 431.356 227.502 431.449C227.464 431.542 227.407 431.627 227.335 431.698C227.264 431.77 227.179 431.826 227.086 431.864C226.992 431.903 226.892 431.923 226.791 431.922Z" fill="#121721"/>
<defs>
<filter id="filter0_d_2_1807" x="32.9204" y="341.736" width="124.688" height="142.699" filterUnits="userSpaceOnUse" color-interpolation-filters="sRGB">
<feFlood flood-opacity="0" result="BackgroundImageFix"/>
<feColorMatrix in="SourceAlpha" type="matrix" values="0 0 0 0 0 0 0 0 0 0 0 0 0 0 0 0 0 0 127 0" result="hardAlpha"/>
<feOffset dy="8"/>
<feGaussianBlur stdDeviation="8"/>
<feColorMatrix type="matrix" values="0 0 0 0 0 0 0 0 0 0 0 0 0 0 0 0 0 0 0.15 0"/>
<feBlend mode="normal" in2="BackgroundImageFix" result="effect1_dropShadow_2_1807"/>
<feBlend mode="normal" in="SourceGraphic" in2="effect1_dropShadow_2_1807" result="shape"/>
</filter>
<filter id="filter1_d_2_1807" x="60.7808" y="440.03" width="70.3818" height="46.9781" filterUnits="userSpaceOnUse" color-interpolation-filters="sRGB">
<feFlood flood-opacity="0" result="BackgroundImageFix"/>
<feColorMatrix in="SourceAlpha" type="matrix" values="0 0 0 0 0 0 0 0 0 0 0 0 0 0 0 0 0 0 127 0" result="hardAlpha"/>
<feOffset dy="8"/>
<feGaussianBlur stdDeviation="8"/>
<feColorMatrix type="matrix" values="0 0 0 0 0 0 0 0 0 0 0 0 0 0 0 0 0 0 0.15 0"/>
<feBlend mode="normal" in2="BackgroundImageFix" result="effect1_dropShadow_2_1807"/>
<feBlend mode="normal" in="SourceGraphic" in2="effect1_dropShadow_2_1807" result="shape"/>
</filter>
<filter id="filter2_d_2_1807" x="65.5786" y="480.624" width="60.7861" height="47.0013" filterUnits="userSpaceOnUse" color-interpolation-filters="sRGB">
<feFlood flood-opacity="0" result="BackgroundImageFix"/>
<feColorMatrix in="SourceAlpha" type="matrix" values="0 0 0 0 0 0 0 0 0 0 0 0 0 0 0 0 0 0 127 0" result="hardAlpha"/>
<feOffset dy="8"/>
<feGaussianBlur stdDeviation="8"/>
<feColorMatrix type="matrix" values="0 0 0 0 0 0 0 0 0 0 0 0 0 0 0 0 0 0 0.15 0"/>
<feBlend mode="normal" in2="BackgroundImageFix" result="effect1_dropShadow_2_1807"/>
<feBlend mode="normal" in="SourceGraphic" in2="effect1_dropShadow_2_1807" result="shape"/>
</filter>
<filter id="filter3_d_2_1807" x="72.7168" y="454.647" width="46.5103" height="34.1284" filterUnits="userSpaceOnUse" color-interpolation-filters="sRGB">
<feFlood flood-opacity="0" result="BackgroundImageFix"/>
<feColorMatrix in="SourceAlpha" type="matrix" values="0 0 0 0 0 0 0 0 0 0 0 0 0 0 0 0 0 0 127 0" result="hardAlpha"/>
<feOffset dy="8"/>
<feGaussianBlur stdDeviation="8"/>
<feColorMatrix type="matrix" values="0 0 0 0 0 0 0 0 0 0 0 0 0 0 0 0 0 0 0.15 0"/>
<feBlend mode="normal" in2="BackgroundImageFix" result="effect1_dropShadow_2_1807"/>
<feBlend mode="normal" in="SourceGraphic" in2="effect1_dropShadow_2_1807" result="shape"/>
</filter>
<filter id="filter4_d_2_1807" x="61.9512" y="477.242" width="67.1055" height="36.2126" filterUnits="userSpaceOnUse" color-interpolation-filters="sRGB">
<feFlood flood-opacity="0" result="BackgroundImageFix"/>
<feColorMatrix in="SourceAlpha" type="matrix" values="0 0 0 0 0 0 0 0 0 0 0 0 0 0 0 0 0 0 127 0" result="hardAlpha"/>
<feOffset dy="8"/>
<feGaussianBlur stdDeviation="8"/>
<feColorMatrix type="matrix" values="0 0 0 0 0 0 0 0 0 0 0 0 0 0 0 0 0 0 0.15 0"/>
<feBlend mode="normal" in2="BackgroundImageFix" result="effect1_dropShadow_2_1807"/>
<feBlend mode="normal" in="SourceGraphic" in2="effect1_dropShadow_2_1807" result="shape"/>
</filter>
<filter id="filter5_d_2_1807" x="152.75" y="247.169" width="93.1782" height="105.066" filterUnits="userSpaceOnUse" color-interpolation-filters="sRGB">
<feFlood flood-opacity="0" result="BackgroundImageFix"/>
<feColorMatrix in="SourceAlpha" type="matrix" values="0 0 0 0 0 0 0 0 0 0 0 0 0 0 0 0 0 0 127 0" result="hardAlpha"/>
<feOffset dy="8"/>
<feGaussianBlur stdDeviation="8"/>
<feColorMatrix type="matrix" values="0 0 0 0 0 0 0 0 0 0 0 0 0 0 0 0 0 0 0.15 0"/>
<feBlend mode="normal" in2="BackgroundImageFix" result="effect1_dropShadow_2_1807"/>
<feBlend mode="normal" in="SourceGraphic" in2="effect1_dropShadow_2_1807" result="shape"/>
</filter>
<filter id="filter6_d_2_1807" x="171.14" y="312.048" width="57.334" height="41.8864" filterUnits="userSpaceOnUse" color-interpolation-filters="sRGB">
<feFlood flood-opacity="0" result="BackgroundImageFix"/>
<feColorMatrix in="SourceAlpha" type="matrix" values="0 0 0 0 0 0 0 0 0 0 0 0 0 0 0 0 0 0 127 0" result="hardAlpha"/>
<feOffset dy="8"/>
<feGaussianBlur stdDeviation="8"/>
<feColorMatrix type="matrix" values="0 0 0 0 0 0 0 0 0 0 0 0 0 0 0 0 0 0 0.15 0"/>
<feBlend mode="normal" in2="BackgroundImageFix" result="effect1_dropShadow_2_1807"/>
<feBlend mode="normal" in="SourceGraphic" in2="effect1_dropShadow_2_1807" result="shape"/>
</filter>
<filter id="filter7_d_2_1807" x="174.307" y="338.842" width="51.0005" height="41.9016" filterUnits="userSpaceOnUse" color-interpolation-filters="sRGB">
<feFlood flood-opacity="0" result="BackgroundImageFix"/>
<feColorMatrix in="SourceAlpha" type="matrix" values="0 0 0 0 0 0 0 0 0 0 0 0 0 0 0 0 0 0 127 0" result="hardAlpha"/>
<feOffset dy="8"/>
<feGaussianBlur stdDeviation="8"/>
<feColorMatrix type="matrix" values="0 0 0 0 0 0 0 0 0 0 0 0 0 0 0 0 0 0 0.15 0"/>
<feBlend mode="normal" in2="BackgroundImageFix" result="effect1_dropShadow_2_1807"/>
<feBlend mode="normal" in="SourceGraphic" in2="effect1_dropShadow_2_1807" result="shape"/>
</filter>
<filter id="filter8_d_2_1807" x="179.018" y="321.695" width="41.5771" height="33.4048" filterUnits="userSpaceOnUse" color-interpolation-filters="sRGB">
<feFlood flood-opacity="0" result="BackgroundImageFix"/>
<feColorMatrix in="SourceAlpha" type="matrix" values="0 0 0 0 0 0 0 0 0 0 0 0 0 0 0 0 0 0 127 0" result="hardAlpha"/>
<feOffset dy="8"/>
<feGaussianBlur stdDeviation="8"/>
<feColorMatrix type="matrix" values="0 0 0 0 0 0 0 0 0 0 0 0 0 0 0 0 0 0 0.15 0"/>
<feBlend mode="normal" in2="BackgroundImageFix" result="effect1_dropShadow_2_1807"/>
<feBlend mode="normal" in="SourceGraphic" in2="effect1_dropShadow_2_1807" result="shape"/>
</filter>
<filter id="filter9_d_2_1807" x="171.912" y="336.609" width="55.1709" height="34.7805" filterUnits="userSpaceOnUse" color-interpolation-filters="sRGB">
<feFlood flood-opacity="0" result="BackgroundImageFix"/>
<feColorMatrix in="SourceAlpha" type="matrix" values="0 0 0 0 0 0 0 0 0 0 0 0 0 0 0 0 0 0 127 0" result="hardAlpha"/>
<feOffset dy="8"/>
<feGaussianBlur stdDeviation="8"/>
<feColorMatrix type="matrix" values="0 0 0 0 0 0 0 0 0 0 0 0 0 0 0 0 0 0 0.15 0"/>
<feBlend mode="normal" in2="BackgroundImageFix" result="effect1_dropShadow_2_1807"/>
<feBlend mode="normal" in="SourceGraphic" in2="effect1_dropShadow_2_1807" result="shape"/>
</filter>
<filter id="filter10_d_2_1807" x="370.899" y="443.619" width="56.9805" height="75.8414" filterUnits="userSpaceOnUse" color-interpolation-filters="sRGB">
<feFlood flood-opacity="0" result="BackgroundImageFix"/>
<feColorMatrix in="SourceAlpha" type="matrix" values="0 0 0 0 0 0 0 0 0 0 0 0 0 0 0 0 0 0 127 0" result="hardAlpha"/>
<feOffset dy="8"/>
<feGaussianBlur stdDeviation="8"/>
<feColorMatrix type="matrix" values="0 0 0 0 0 0 0 0 0 0 0 0 0 0 0 0 0 0 0.15 0"/>
<feBlend mode="normal" in2="BackgroundImageFix" result="effect1_dropShadow_2_1807"/>
<feBlend mode="normal" in="SourceGraphic" in2="effect1_dropShadow_2_1807" result="shape"/>
</filter>
<filter id="filter11_d_2_1807" x="379.981" y="431.95" width="42.6367" height="42.6369" filterUnits="userSpaceOnUse" color-interpolation-filters="sRGB">
<feFlood flood-opacity="0" result="BackgroundImageFix"/>
<feColorMatrix in="SourceAlpha" type="matrix" values="0 0 0 0 0 0 0 0 0 0 0 0 0 0 0 0 0 0 127 0" result="hardAlpha"/>
<feOffset dy="8"/>
<feGaussianBlur stdDeviation="8"/>
<feColorMatrix type="matrix" values="0 0 0 0 0 0 0 0 0 0 0 0 0 0 0 0 0 0 0.15 0"/>
<feBlend mode="normal" in2="BackgroundImageFix" result="effect1_dropShadow_2_1807"/>
<feBlend mode="normal" in="SourceGraphic" in2="effect1_dropShadow_2_1807" result="shape"/>
</filter>
<filter id="filter12_d_2_1807" x="378.851" y="429.778" width="40.4448" height="36.4851" filterUnits="userSpaceOnUse" color-interpolation-filters="sRGB">
<feFlood flood-opacity="0" result="BackgroundImageFix"/>
<feColorMatrix in="SourceAlpha" type="matrix" values="0 0 0 0 0 0 0 0 0 0 0 0 0 0 0 0 0 0 127 0" result="hardAlpha"/>
<feOffset dy="8"/>
<feGaussianBlur stdDeviation="8"/>
<feColorMatrix type="matrix" values="0 0 0 0 0 0 0 0 0 0 0 0 0 0 0 0 0 0 0.15 0"/>
<feBlend mode="normal" in2="BackgroundImageFix" result="effect1_dropShadow_2_1807"/>
<feBlend mode="normal" in="SourceGraphic" in2="effect1_dropShadow_2_1807" result="shape"/>
</filter>
<filter id="filter13_d_2_1807" x="381.302" y="429.933" width="44.9233" height="44.9577" filterUnits="userSpaceOnUse" color-interpolation-filters="sRGB">
<feFlood flood-opacity="0" result="BackgroundImageFix"/>
<feColorMatrix in="SourceAlpha" type="matrix" values="0 0 0 0 0 0 0 0 0 0 0 0 0 0 0 0 0 0 127 0" result="hardAlpha"/>
<feOffset dy="8"/>
<feGaussianBlur stdDeviation="8"/>
<feColorMatrix type="matrix" values="0 0 0 0 0 0 0 0 0 0 0 0 0 0 0 0 0 0 0.15 0"/>
<feBlend mode="normal" in2="BackgroundImageFix" result="effect1_dropShadow_2_1807"/>
<feBlend mode="normal" in="SourceGraphic" in2="effect1_dropShadow_2_1807" result="shape"/>
</filter>
<filter id="filter14_d_2_1807" x="249.78" y="39" width="314.479" height="372.477" filterUnits="userSpaceOnUse" color-interpolation-filters="sRGB">
<feFlood flood-opacity="0" result="BackgroundImageFix"/>
<feColorMatrix in="SourceAlpha" type="matrix" values="0 0 0 0 0 0 0 0 0 0 0 0 0 0 0 0 0 0 127 0" result="hardAlpha"/>
<feOffset dy="4"/>
<feGaussianBlur stdDeviation="4"/>
<feColorMatrix type="matrix" values="0 0 0 0 0 0 0 0 0 0 0 0 0 0 0 0 0 0 0.15 0"/>
<feBlend mode="normal" in2="BackgroundImageFix" result="effect1_dropShadow_2_1807"/>
<feBlend mode="normal" in="SourceGraphic" in2="effect1_dropShadow_2_1807" result="shape"/>
</filter>
<filter id="filter15_d_2_1807" x="405.134" y="453.428" width="38.7812" height="65.5185" filterUnits="userSpaceOnUse" color-interpolation-filters="sRGB">
<feFlood flood-opacity="0" result="BackgroundImageFix"/>
<feColorMatrix in="SourceAlpha" type="matrix" values="0 0 0 0 0 0 0 0 0 0 0 0 0 0 0 0 0 0 127 0" result="hardAlpha"/>
<feOffset dy="8"/>
<feGaussianBlur stdDeviation="8"/>
<feColorMatrix type="matrix" values="0 0 0 0 0 0 0 0 0 0 0 0 0 0 0 0 0 0 0.15 0"/>
<feBlend mode="normal" in2="BackgroundImageFix" result="effect1_dropShadow_2_1807"/>
<feBlend mode="normal" in="SourceGraphic" in2="effect1_dropShadow_2_1807" result="shape"/>
</filter>
<filter id="filter16_d_2_1807" x="405.559" y="451.188" width="40.0869" height="44.1816" filterUnits="userSpaceOnUse" color-interpolation-filters="sRGB">
<feFlood flood-opacity="0" result="BackgroundImageFix"/>
<feColorMatrix in="SourceAlpha" type="matrix" values="0 0 0 0 0 0 0 0 0 0 0 0 0 0 0 0 0 0 127 0" result="hardAlpha"/>
<feOffset dy="8"/>
<feGaussianBlur stdDeviation="8"/>
<feColorMatrix type="matrix" values="0 0 0 0 0 0 0 0 0 0 0 0 0 0 0 0 0 0 0.15 0"/>
<feBlend mode="normal" in2="BackgroundImageFix" result="effect1_dropShadow_2_1807"/>
<feBlend mode="normal" in="SourceGraphic" in2="effect1_dropShadow_2_1807" result="shape"/>
</filter>
<filter id="filter17_d_2_1807" x="395.233" y="432.201" width="44.4116" height="44.4118" filterUnits="userSpaceOnUse" color-interpolation-filters="sRGB">
<feFlood flood-opacity="0" result="BackgroundImageFix"/>
<feColorMatrix in="SourceAlpha" type="matrix" values="0 0 0 0 0 0 0 0 0 0 0 0 0 0 0 0 0 0 127 0" result="hardAlpha"/>
<feOffset dy="8"/>
<feGaussianBlur stdDeviation="8"/>
<feColorMatrix type="matrix" values="0 0 0 0 0 0 0 0 0 0 0 0 0 0 0 0 0 0 0.15 0"/>
<feBlend mode="normal" in2="BackgroundImageFix" result="effect1_dropShadow_2_1807"/>
<feBlend mode="normal" in="SourceGraphic" in2="effect1_dropShadow_2_1807" result="shape"/>
</filter>
<filter id="filter18_d_2_1807" x="394.291" y="429.466" width="46.521" height="46.4923" filterUnits="userSpaceOnUse" color-interpolation-filters="sRGB">
<feFlood flood-opacity="0" result="BackgroundImageFix"/>
<feColorMatrix in="SourceAlpha" type="matrix" values="0 0 0 0 0 0 0 0 0 0 0 0 0 0 0 0 0 0 127 0" result="hardAlpha"/>
<feOffset dy="8"/>
<feGaussianBlur stdDeviation="8"/>
<feColorMatrix type="matrix" values="0 0 0 0 0 0 0 0 0 0 0 0 0 0 0 0 0 0 0.15 0"/>
<feBlend mode="normal" in2="BackgroundImageFix" result="effect1_dropShadow_2_1807"/>
<feBlend mode="normal" in="SourceGraphic" in2="effect1_dropShadow_2_1807" result="shape"/>
</filter>
<filter id="filter19_d_2_1807" x="391.198" y="445.959" width="51.8633" height="69.489" filterUnits="userSpaceOnUse" color-interpolation-filters="sRGB">
<feFlood flood-opacity="0" result="BackgroundImageFix"/>
<feColorMatrix in="SourceAlpha" type="matrix" values="0 0 0 0 0 0 0 0 0 0 0 0 0 0 0 0 0 0 127 0" result="hardAlpha"/>
<feOffset dy="8"/>
<feGaussianBlur stdDeviation="8"/>
<feColorMatrix type="matrix" values="0 0 0 0 0 0 0 0 0 0 0 0 0 0 0 0 0 0 0.15 0"/>
<feBlend mode="normal" in2="BackgroundImageFix" result="effect1_dropShadow_2_1807"/>
<feBlend mode="normal" in="SourceGraphic" in2="effect1_dropShadow_2_1807" result="shape"/>
</filter>
<filter id="filter20_d_2_1807" x="331.499" y="351.533" width="155.599" height="80.2336" filterUnits="userSpaceOnUse" color-interpolation-filters="sRGB">
<feFlood flood-opacity="0" result="BackgroundImageFix"/>
<feColorMatrix in="SourceAlpha" type="matrix" values="0 0 0 0 0 0 0 0 0 0 0 0 0 0 0 0 0 0 127 0" result="hardAlpha"/>
<feOffset dy="8"/>
<feGaussianBlur stdDeviation="8"/>
<feColorMatrix type="matrix" values="0 0 0 0 0 0 0 0 0 0 0 0 0 0 0 0 0 0 0.15 0"/>
<feBlend mode="normal" in2="BackgroundImageFix" result="effect1_dropShadow_2_1807"/>
<feBlend mode="normal" in="SourceGraphic" in2="effect1_dropShadow_2_1807" result="shape"/>
</filter>
<filter id="filter21_d_2_1807" x="346.948" y="482.254" width="124.699" height="80.3079" filterUnits="userSpaceOnUse" color-interpolation-filters="sRGB">
<feFlood flood-opacity="0" result="BackgroundImageFix"/>
<feColorMatrix in="SourceAlpha" type="matrix" values="0 0 0 0 0 0 0 0 0 0 0 0 0 0 0 0 0 0 127 0" result="hardAlpha"/>
<feOffset dy="8"/>
<feGaussianBlur stdDeviation="8"/>
<feColorMatrix type="matrix" values="0 0 0 0 0 0 0 0 0 0 0 0 0 0 0 0 0 0 0.15 0"/>
<feBlend mode="normal" in2="BackgroundImageFix" result="effect1_dropShadow_2_1807"/>
<feBlend mode="normal" in="SourceGraphic" in2="effect1_dropShadow_2_1807" result="shape"/>
</filter>
<filter id="filter22_d_2_1807" x="369.935" y="398.601" width="78.7261" height="38.8537" filterUnits="userSpaceOnUse" color-interpolation-filters="sRGB">
<feFlood flood-opacity="0" result="BackgroundImageFix"/>
<feColorMatrix in="SourceAlpha" type="matrix" values="0 0 0 0 0 0 0 0 0 0 0 0 0 0 0 0 0 0 127 0" result="hardAlpha"/>
<feOffset dy="8"/>
<feGaussianBlur stdDeviation="8"/>
<feColorMatrix type="matrix" values="0 0 0 0 0 0 0 0 0 0 0 0 0 0 0 0 0 0 0.15 0"/>
<feBlend mode="normal" in2="BackgroundImageFix" result="effect1_dropShadow_2_1807"/>
<feBlend mode="normal" in="SourceGraphic" in2="effect1_dropShadow_2_1807" result="shape"/>
</filter>
<filter id="filter23_d_2_1807" x="335.267" y="471.363" width="145.047" height="45.5657" filterUnits="userSpaceOnUse" color-interpolation-filters="sRGB">
<feFlood flood-opacity="0" result="BackgroundImageFix"/>
<feColorMatrix in="SourceAlpha" type="matrix" values="0 0 0 0 0 0 0 0 0 0 0 0 0 0 0 0 0 0 127 0" result="hardAlpha"/>
<feOffset dy="8"/>
<feGaussianBlur stdDeviation="8"/>
<feColorMatrix type="matrix" values="0 0 0 0 0 0 0 0 0 0 0 0 0 0 0 0 0 0 0.15 0"/>
<feBlend mode="normal" in2="BackgroundImageFix" result="effect1_dropShadow_2_1807"/>
<feBlend mode="normal" in="SourceGraphic" in2="effect1_dropShadow_2_1807" result="shape"/>
</filter>
<filter id="filter24_d_2_1807" x="369.588" y="469.548" width="42.2666" height="40.131" filterUnits="userSpaceOnUse" color-interpolation-filters="sRGB">
<feFlood flood-opacity="0" result="BackgroundImageFix"/>
<feColorMatrix in="SourceAlpha" type="matrix" values="0 0 0 0 0 0 0 0 0 0 0 0 0 0 0 0 0 0 127 0" result="hardAlpha"/>
<feOffset dy="8"/>
<feGaussianBlur stdDeviation="8"/>
<feColorMatrix type="matrix" values="0 0 0 0 0 0 0 0 0 0 0 0 0 0 0 0 0 0 0.15 0"/>
<feBlend mode="normal" in2="BackgroundImageFix" result="effect1_dropShadow_2_1807"/>
<feBlend mode="normal" in="SourceGraphic" in2="effect1_dropShadow_2_1807" result="shape"/>
</filter>
<filter id="filter25_d_2_1807" x="372.917" y="444.167" width="48.3267" height="62.5991" filterUnits="userSpaceOnUse" color-interpolation-filters="sRGB">
<feFlood flood-opacity="0" result="BackgroundImageFix"/>
<feColorMatrix in="SourceAlpha" type="matrix" values="0 0 0 0 0 0 0 0 0 0 0 0 0 0 0 0 0 0 127 0" result="hardAlpha"/>
<feOffset dy="8"/>
<feGaussianBlur stdDeviation="8"/>
<feColorMatrix type="matrix" values="0 0 0 0 0 0 0 0 0 0 0 0 0 0 0 0 0 0 0.15 0"/>
<feBlend mode="normal" in2="BackgroundImageFix" result="effect1_dropShadow_2_1807"/>
<feBlend mode="normal" in="SourceGraphic" in2="effect1_dropShadow_2_1807" result="shape"/>
</filter>
<filter id="filter26_d_2_1807" x="373.716" y="448.554" width="53.5991" height="46.9081" filterUnits="userSpaceOnUse" color-interpolation-filters="sRGB">
<feFlood flood-opacity="0" result="BackgroundImageFix"/>
<feColorMatrix in="SourceAlpha" type="matrix" values="0 0 0 0 0 0 0 0 0 0 0 0 0 0 0 0 0 0 127 0" result="hardAlpha"/>
<feOffset dy="8"/>
<feGaussianBlur stdDeviation="8"/>
<feColorMatrix type="matrix" values="0 0 0 0 0 0 0 0 0 0 0 0 0 0 0 0 0 0 0.15 0"/>
<feBlend mode="normal" in2="BackgroundImageFix" result="effect1_dropShadow_2_1807"/>
<feBlend mode="normal" in="SourceGraphic" in2="effect1_dropShadow_2_1807" result="shape"/>
</filter>
<filter id="filter27_d_2_1807" x="390.246" y="449.377" width="43.2056" height="43.4179" filterUnits="userSpaceOnUse" color-interpolation-filters="sRGB">
<feFlood flood-opacity="0" result="BackgroundImageFix"/>
<feColorMatrix in="SourceAlpha" type="matrix" values="0 0 0 0 0 0 0 0 0 0 0 0 0 0 0 0 0 0 127 0" result="hardAlpha"/>
<feOffset dy="8"/>
<feGaussianBlur stdDeviation="8"/>
<feColorMatrix type="matrix" values="0 0 0 0 0 0 0 0 0 0 0 0 0 0 0 0 0 0 0.15 0"/>
<feBlend mode="normal" in2="BackgroundImageFix" result="effect1_dropShadow_2_1807"/>
<feBlend mode="normal" in="SourceGraphic" in2="effect1_dropShadow_2_1807" result="shape"/>
</filter>
</defs>
</svg>
