<svg width="471" height="269" viewBox="0 0 471 269" fill="none" xmlns="http://www.w3.org/2000/svg">
<g clip-path="url(#clip0_2_2833)">
<path d="M102.825 124.832C122.517 124.832 138.481 108.838 138.481 89.109C138.481 69.3797 122.517 53.386 102.825 53.386C83.132 53.386 67.168 69.3797 67.168 89.109C67.168 108.838 83.132 124.832 102.825 124.832Z" fill="#FF6584"/>
<path d="M456.24 254.128C454.144 256.018 451.938 257.784 449.635 259.416C444.17 263.267 438.264 266.448 432.043 268.891C406.192 268.268 368.189 265.09 320.218 263.395C316.64 262.17 312.981 260.844 309.239 259.416C304.289 257.526 299.196 255.449 293.961 253.185C272.219 243.773 249.896 237.654 227.785 233.999C223.033 233.214 218.294 232.541 213.567 231.98C113.72 220.017 21.6432 255.167 10.9794 259.416H9.95117L16.5103 246.689L128.116 30.1246L154.216 97.2588L162.545 118.688L185.502 87.1276L197.356 70.8322L251.339 132.836L266.596 99.0782L372.231 185.445L378.123 190.259L384.085 195.135L385.984 196.689L442.458 242.863L456.24 254.128Z" fill="#F2F2F2"/>
<path opacity="0.1" d="M118.164 73.74L128.944 50.0632L143.87 84.5399L131.017 59.617L118.164 73.74Z" fill="black"/>
<path opacity="0.1" d="M227.784 233.999C223.033 233.214 218.294 232.541 213.567 231.98L162.545 118.688L227.784 233.999Z" fill="black"/>
<path opacity="0.1" d="M185.502 87.1274L197.355 77.8939L251.255 140.201L196.526 87.0323L185.502 87.1274Z" fill="black"/>
<path opacity="0.1" d="M251.338 132.835L359.056 236.155L344.322 239.636L251.338 132.835Z" fill="black"/>
<path d="M471 259.624C471 267.67 457.334 269.501 432.043 268.891C406.192 268.268 368.189 265.09 320.218 263.395C302.074 262.756 282.5 262.324 261.621 262.324C131.557 262.324 0 279.01 0 259.624C0 255.054 5.85433 250.693 16.5099 246.689C48.1034 234.817 121.896 226.123 210.3 224.723C214.322 224.657 218.372 224.608 222.452 224.578C226.772 224.54 231.122 224.522 235.5 224.524C270.647 224.524 303.998 225.67 333.954 227.726C334.049 227.735 334.141 227.743 334.236 227.747C336.641 227.913 339.022 228.085 341.38 228.262C343.954 228.458 346.502 228.658 349.021 228.865C349.539 228.906 350.057 228.948 350.572 228.993C350.945 229.022 351.318 229.056 351.687 229.089C352.367 229.143 353.047 229.201 353.719 229.263C353.742 229.263 353.766 229.264 353.789 229.268C355.025 229.376 356.252 229.483 357.471 229.591C357.599 229.604 357.728 229.616 357.856 229.625C393.285 232.844 422.565 237.417 442.458 242.863C460.66 247.843 471 253.551 471 259.624Z" fill="#3F3D56"/>
<path d="M29.3906 190.321C29.3906 216.912 46.0416 238.429 66.619 238.429L29.3906 190.321Z" fill="#3F3D56"/>
<path d="M66.6191 238.429C66.6191 211.539 85.2007 189.78 108.164 189.78L66.6191 238.429Z" fill="#9C59DF"/>
<path d="M42.8789 192.732C42.8789 217.99 53.4969 238.429 66.6188 238.429L42.8789 192.732Z" fill="#9C59DF"/>
<path d="M66.6191 238.429C66.6191 204.07 88.0965 176.267 114.638 176.267L66.6191 238.429Z" fill="#3F3D56"/>
<path d="M58.7871 238.769C58.7871 238.769 64.0667 238.606 65.6578 237.471C67.249 236.335 73.7792 234.98 74.1739 236.801C74.5686 238.621 82.1082 245.855 76.1475 245.903C70.1869 245.951 62.2977 244.973 60.7096 244.004C59.1215 243.035 58.7871 238.769 58.7871 238.769Z" fill="#A8A8A8"/>
<path opacity="0.2" d="M76.2539 245.269C70.2933 245.317 62.404 244.339 60.816 243.37C59.6065 242.632 59.1246 239.984 58.9634 238.762C58.8517 238.767 58.7871 238.769 58.7871 238.769C58.7871 238.769 59.1215 243.035 60.7096 244.004C62.2977 244.973 70.1869 245.951 76.1475 245.903C77.8682 245.889 78.4625 245.276 78.4298 244.367C78.1908 244.916 77.5346 245.259 76.2539 245.269Z" fill="black"/>
<path d="M316.303 186.583C316.303 213.174 332.954 234.691 353.531 234.691L316.303 186.583Z" fill="#3F3D56"/>
<path d="M353.531 234.691C353.531 207.801 372.113 186.042 395.076 186.042L353.531 234.691Z" fill="#9C59DF"/>
<path d="M329.791 188.993C329.791 214.252 340.409 234.691 353.531 234.691L329.791 188.993Z" fill="#9C59DF"/>
<path d="M353.531 234.691C353.531 200.332 375.009 172.528 401.551 172.528L353.531 234.691Z" fill="#3F3D56"/>
<path d="M345.699 235.03C345.699 235.03 350.979 234.867 352.57 233.732C354.161 232.597 360.691 231.242 361.086 233.062C361.481 234.883 369.02 242.116 363.06 242.165C357.099 242.213 349.21 241.234 347.622 240.265C346.034 239.296 345.699 235.03 345.699 235.03Z" fill="#A8A8A8"/>
<path opacity="0.2" d="M363.166 241.531C357.205 241.579 349.316 240.601 347.728 239.632C346.519 238.894 346.037 236.245 345.875 235.023C345.764 235.028 345.699 235.03 345.699 235.03C345.699 235.03 346.034 239.296 347.622 240.265C349.21 241.234 357.099 242.213 363.06 242.165C364.78 242.151 365.375 241.537 365.342 240.629C365.103 241.178 364.447 241.521 363.166 241.531Z" fill="black"/>
<path d="M206.891 182.968H199.428V196.296H206.891V182.968Z" fill="#3F3D56"/>
<path d="M203.159 188.006C203.966 188.006 204.62 187.351 204.62 186.543C204.62 185.735 203.966 185.081 203.159 185.081C202.353 185.081 201.699 185.735 201.699 186.543C201.699 187.351 202.353 188.006 203.159 188.006Z" fill="#F2F2F2"/>
<path d="M204.065 171.578C204.065 171.578 201.793 184.776 205.882 185.231C209.97 185.687 206.336 171.122 206.336 171.122L204.065 171.578Z" fill="#FFB9B9"/>
<path d="M206.791 126.52C206.791 126.52 202.021 171.805 203.384 172.488C204.746 173.171 208.381 174.081 209.062 173.398C209.744 172.715 212.469 144.725 212.469 144.725L210.425 130.161L206.791 126.52Z" fill="#575A89"/>
<path opacity="0.1" d="M206.791 126.52C206.791 126.52 202.021 171.805 203.384 172.488C204.746 173.171 208.381 174.081 209.062 173.398C209.744 172.715 212.469 144.725 212.469 144.725L210.425 130.161L206.791 126.52Z" fill="black"/>
<path d="M229.845 106.153H215.535V121.627H229.845V106.153Z" fill="#2F2E41"/>
<path d="M218.83 113.093C218.83 113.093 218.376 123.106 215.196 123.789C212.016 124.472 218.149 136.077 218.149 136.077L227.689 135.167L229.96 121.513C229.96 121.513 224.736 120.603 226.553 113.549L218.83 113.093Z" fill="#FFB9B9"/>
<path opacity="0.1" d="M218.83 113.093C218.83 113.093 218.376 123.106 215.196 123.789C212.016 124.472 218.149 136.077 218.149 136.077L227.689 135.167L229.96 121.513C229.96 121.513 224.736 120.603 226.553 113.549L218.83 113.093Z" fill="black"/>
<path d="M219.283 227.559L219.964 231.427L224.053 230.517L223.144 226.648L219.283 227.559Z" fill="#FFB9B9"/>
<path d="M232.23 221.642L230.867 225.738L235.183 228.014L235.41 224.6L232.23 221.642Z" fill="#FFB9B9"/>
<path d="M214.514 160.199C214.514 160.199 209.063 176.129 210.199 183.639C211.334 191.148 215.877 226.876 215.877 226.876C215.877 226.876 221.102 230.289 224.282 226.421L222.01 195.927C222.01 195.927 222.464 177.494 224.282 179.315C226.099 181.135 233.14 202.527 233.14 202.527L231.777 221.87C231.777 221.87 232.459 227.786 236.547 225.283L242.226 203.892C242.226 203.892 240.409 175.219 239.5 174.081C238.592 172.943 232.686 159.744 232.686 159.744L214.514 160.199Z" fill="#2F2E41"/>
<path d="M223.486 117.531C227.124 117.531 230.073 114.576 230.073 110.932C230.073 107.287 227.124 104.332 223.486 104.332C219.848 104.332 216.898 107.287 216.898 110.932C216.898 114.576 219.848 117.531 223.486 117.531Z" fill="#FFB9B9"/>
<path d="M216.784 127.202C216.784 127.202 219.283 130.843 222.463 128.34C225.643 125.837 227.46 125.609 227.46 125.609L231.322 127.885L230.413 136.76L231.776 161.337C231.776 161.337 215.194 162.703 214.286 160.882C213.377 159.062 215.422 151.324 215.422 151.324L212.469 134.712V127.202H216.784Z" fill="#9C59DF"/>
<path d="M222.009 133.802C222.009 133.802 217.92 121.286 216.557 121.058C215.194 120.831 211.333 123.561 211.333 123.561C211.333 123.561 205.654 125.382 205.654 126.52C205.654 127.658 206.563 127.658 206.563 127.658L209.743 133.802C209.743 133.802 211.106 139.263 210.651 142.904C210.377 145.093 210.301 147.302 210.424 149.504C210.424 149.504 205.427 179.542 207.926 180.453C210.424 181.363 210.424 182.273 210.424 182.273C210.424 182.273 214.059 184.321 214.74 183.411C215.421 182.501 222.009 143.36 222.009 143.36C222.009 143.36 225.416 136.76 222.009 133.802Z" fill="#575A89"/>
<path d="M222.919 133.802C222.919 133.802 224.963 129.023 223.827 125.837C223.827 125.837 224.963 125.609 225.417 124.927C225.872 124.244 225.417 120.831 226.553 120.603C227.689 120.376 236.093 120.603 236.547 121.058C237.002 121.513 238.364 124.699 238.364 124.699H237.683L232.686 132.892C232.686 132.892 235.184 148.366 234.73 150.869C234.276 153.372 241.317 163.84 242.226 164.523C243.134 165.206 247.223 176.129 245.406 177.267C243.589 178.405 227.689 185.687 227.007 182.046C226.326 178.405 221.556 156.558 221.556 156.558C221.556 156.558 221.329 144.497 222.01 141.539C222.692 138.581 222.919 133.802 222.919 133.802Z" fill="#575A89"/>
<path d="M233.593 170.212C233.593 170.212 228.823 185.914 233.593 185.232C238.363 184.549 237.227 169.757 237.227 169.757L233.593 170.212Z" fill="#FFB9B9"/>
<path d="M223.609 230.525C223.609 230.525 227.375 231.603 227.106 234.028C227.022 234.733 226.754 235.403 226.329 235.971C225.904 236.539 225.337 236.984 224.685 237.262C224.291 237.519 223.98 237.885 223.789 238.315C223.598 238.746 223.535 239.222 223.609 239.688C223.878 241.305 221.458 243.73 217.423 242.652C213.388 241.574 214.195 240.496 214.195 240.496C214.414 239.301 215.09 238.237 216.078 237.532C217.692 236.454 219.575 232.681 219.575 232.411C219.575 232.142 220.113 230.256 220.113 230.256C220.113 230.256 222.264 228.908 223.609 230.525Z" fill="#2F2E41"/>
<path d="M231.55 225.283C231.55 225.283 227.461 227.103 228.37 229.379C229.279 231.655 232.231 234.841 232.686 238.254C233.14 241.668 237.001 244.626 239.727 242.806C242.453 240.985 239.273 237.344 239.273 237.344C239.273 237.344 235.866 230.972 235.639 229.607C235.411 228.241 236.093 226.876 234.73 226.421C233.367 225.966 231.55 225.283 231.55 225.283Z" fill="#2F2E41"/>
<path opacity="0.1" d="M237.569 127.089C237.569 127.089 237.002 124.472 237.683 126.065C238.364 127.658 243.362 147.001 238.819 158.606C238.819 158.606 238.364 172.943 237.91 172.943C237.456 172.943 232.004 172.715 232.232 171.122C232.459 169.53 232.913 143.815 232.913 142.222C232.913 140.629 233.708 130.275 233.708 130.275L237.569 127.089Z" fill="black"/>
<path d="M236.546 123.106C237.274 124.012 237.885 125.006 238.363 126.065C239.045 127.658 244.042 147.001 239.499 158.606C239.499 158.606 239.045 172.943 238.59 172.943C238.136 172.943 232.685 172.715 232.912 171.123C233.139 169.53 233.593 143.815 233.593 142.222C233.593 140.629 232.23 129.933 232.23 129.933L236.546 123.106Z" fill="#575A89"/>
<path d="M219.773 99.3129C217.39 100.059 215.61 102.01 213.952 103.88C213.307 104.541 212.76 105.292 212.327 106.109C211.906 107.15 211.683 108.261 211.671 109.384C211.56 111.125 211.525 112.869 211.565 114.615C211.603 116.288 211.706 118.003 211.192 119.595C210.696 121.135 209.663 122.436 208.954 123.889C207.822 126.208 207.56 129.021 208.605 131.38C209.18 132.678 210.111 133.783 210.807 135.021C212.036 137.226 212.492 139.78 212.1 142.275L215.371 138.03C217.466 135.311 219.627 132.446 220.217 129.062C221.071 124.155 218.458 119.348 217.943 114.392C217.799 113.011 217.847 111.519 218.628 110.37C219.78 108.676 222.286 108.077 222.979 106.147C223.079 106.955 227.911 109.529 228.493 109.028C228.851 109.996 228.955 111.039 228.795 112.058C228.635 113.078 228.217 114.039 227.58 114.85C227.112 115.431 226.537 115.921 226.081 116.512C224.9 118.042 224.631 120.105 224.798 122.033C224.965 123.96 225.519 125.832 225.811 127.744C226.059 129.648 226.177 131.566 226.165 133.486C226.187 134.815 226.15 136.298 225.22 137.246C226.746 136.71 228.14 135.854 229.309 134.736C229.943 134.044 230.624 133.397 231.348 132.799C232.811 131.742 234.793 131.428 235.987 130.072C237.053 128.862 237.223 127.087 236.972 125.493C236.722 123.899 236.112 122.382 235.805 120.797C235.416 118.782 235.525 116.703 236.121 114.739C236.555 113.313 237.249 111.939 237.333 110.45C237.506 107.414 235.17 104.874 232.923 102.829C229.557 99.7652 224.344 97.881 219.773 99.3129Z" fill="#2F2E41"/>
<path d="M412.704 43.3521C410.69 44.097 407.155 44.7063 403.063 45.1982C391.935 46.536 376.685 47.0108 376.685 47.0108C376.685 47.0108 298.313 53.5236 239.57 29.3028C239.57 29.3028 231.026 24.814 238.962 18.7755C240.182 17.8718 241.479 17.0784 242.838 16.4046C242.838 16.4046 242.871 16.3711 242.936 16.3089C243.838 15.4736 244.812 14.721 245.848 14.0601C248.891 12.0895 254.03 9.75152 260.283 10.8105L414.557 35.8109C414.557 35.8109 420.192 40.5808 412.704 43.3521Z" fill="#F2F2F2"/>
<path d="M381.963 32.0228L414.261 9.06415L428.497 11.5306L414.557 35.8106C414.557 35.8106 382.334 36.0675 381.963 32.0228Z" fill="#F2F2F2"/>
<path d="M300.648 18.0762L364.982 0L375.353 2.17079L346.292 15.2678L337.208 25.448L300.648 18.0762Z" fill="#F2F2F2"/>
<path d="M403.063 45.1982C391.935 46.536 376.685 47.0109 376.685 47.0109C376.685 47.0109 298.313 53.5237 239.57 29.3028C239.57 29.3028 231.026 24.814 238.962 18.7755L238.989 18.8859C238.989 18.8859 251.664 27.4684 312.225 34.6345L403.063 45.1982Z" fill="#F2F2F2"/>
<path d="M392.721 44.7019L421.485 56.467L428.71 55.6632L411.505 42.7098C411.505 42.7098 390.696 38.2636 392.721 44.7019Z" fill="#F2F2F2"/>
<path d="M249.408 20.1426C248.034 20.1667 244.89 17.8598 242.936 16.3089C243.837 15.4736 244.812 14.721 245.848 14.0601C247.423 15.2717 250.228 17.2334 251.787 17.1636C254.037 17.0626 251.473 20.1068 249.408 20.1426Z" fill="#F2F2F2"/>
<path d="M380.076 85.3744L361.61 86.3416L309.692 51.2664L300.054 44.7549L295.369 41.5904C304.153 34.1521 339.988 44.4078 339.988 44.4078C340.674 44.9881 340.892 45.9519 340.861 47.0161C340.802 49.0108 339.867 51.3585 339.506 52.194C339.42 52.3954 339.366 52.5087 339.366 52.5087L380.076 85.3744Z" fill="#F2F2F2"/>
<path d="M412.704 43.3521C410.69 44.097 407.155 44.7063 403.063 45.1982C391.935 46.536 376.685 47.0108 376.685 47.0108C376.685 47.0108 298.313 53.5236 239.57 29.3028C239.57 29.3028 231.026 24.814 238.962 18.7755C240.182 17.8718 241.479 17.0784 242.838 16.4046C242.838 16.4046 242.871 16.3711 242.936 16.3089C243.838 15.4736 244.812 14.721 245.848 14.0601C248.891 12.0895 254.03 9.75152 260.283 10.8105L414.557 35.8109C414.557 35.8109 420.192 40.5808 412.704 43.3521Z" fill="#3F3D56"/>
<path d="M381.963 32.0228L414.261 9.06415L428.497 11.5306L414.557 35.8106C414.557 35.8106 382.334 36.0675 381.963 32.0228Z" fill="#3F3D56"/>
<path d="M300.648 18.0762L364.982 0L375.353 2.17079L346.292 15.2678L337.208 25.448L300.648 18.0762Z" fill="#3F3D56"/>
<path d="M403.063 45.1982C391.935 46.536 376.685 47.0109 376.685 47.0109C376.685 47.0109 298.313 53.5237 239.57 29.3028C239.57 29.3028 231.026 24.814 238.962 18.7755L238.989 18.8859C238.989 18.8859 251.664 27.4684 312.225 34.6345L403.063 45.1982Z" fill="#9C59DF"/>
<path d="M392.721 44.7019L421.485 56.467L428.71 55.6632L411.505 42.7098C411.505 42.7098 390.696 38.2636 392.721 44.7019Z" fill="#3F3D56"/>
<path d="M249.408 20.1426C248.034 20.1667 244.89 17.8598 242.936 16.3089C243.837 15.4736 244.812 14.721 245.848 14.0601C247.423 15.2717 250.228 17.2334 251.787 17.1636C254.037 17.0626 251.473 20.1068 249.408 20.1426Z" fill="#9C59DF"/>
<path d="M380.076 85.3744L361.61 86.3416L309.692 51.2664L300.054 44.7549L295.369 41.5904C304.153 34.1521 339.988 44.4078 339.988 44.4078C340.674 44.9881 340.892 45.9519 340.861 47.0161C340.802 49.0108 339.867 51.3585 339.506 52.194C339.42 52.3954 339.366 52.5087 339.366 52.5087L380.076 85.3744Z" fill="#3F3D56"/>
</g>
<defs>
<clipPath id="clip0_2_2833">
<rect width="471" height="269" fill="white"/>
</clipPath>
</defs>
</svg>
