<svg width="23" height="25" viewBox="0 0 23 25" fill="none" xmlns="http://www.w3.org/2000/svg">
<path d="M1.36451 3.64774H1.36453L1.36448 3.64237C1.36242 3.43341 1.421 3.22835 1.53313 3.05202C1.64452 2.87685 1.80401 2.73752 1.99248 2.65065C4.98847 1.34477 8.22653 0.686416 11.4946 0.718711L11.4946 0.718817L11.5054 0.718711C14.7735 0.686416 18.0115 1.34477 21.0075 2.65065C21.196 2.73752 21.3555 2.87686 21.4669 3.05202C21.579 3.22835 21.6376 3.43341 21.6355 3.64236L21.6355 3.64236V3.64774V11.9923C21.6355 11.9923 21.6355 11.9924 21.6355 11.9925C21.6345 14.5184 20.8686 16.9849 19.4387 19.0671C18.0089 21.1492 15.9821 22.7496 13.6251 23.6576C13.6249 23.6577 13.6248 23.6578 13.6246 23.6578L12.4876 24.0923L12.4876 24.0923L12.4835 24.0939C11.8512 24.3415 11.1488 24.3415 10.5165 24.0939L10.5124 24.0923L9.37545 23.6578C9.37527 23.6578 9.37508 23.6577 9.37489 23.6576C7.01794 22.7496 4.99116 21.1492 3.56132 19.0671C2.13141 16.9849 1.36553 14.5184 1.36451 11.9925C1.36451 11.9924 1.36451 11.9923 1.36451 11.9923L1.36451 3.64774Z" stroke="#172B4D" stroke-width="1.0875"/>
<path d="M8.21569 10.5789H8.2157H14.7842C15.0756 10.5789 15.3552 10.6943 15.5617 10.9C15.768 11.1053 15.8847 11.384 15.8862 11.6751V16.6037C15.8862 16.8959 15.7701 17.1762 15.5634 17.3829C15.3568 17.5896 15.0765 17.7057 14.7842 17.7057H8.2157C7.92343 17.7057 7.64313 17.5896 7.43646 17.3829C7.2298 17.1762 7.1137 16.8959 7.1137 16.6037V11.675C7.11526 11.3839 7.2319 11.1053 7.43817 10.9C7.6447 10.6943 7.92426 10.5789 8.21569 10.5789Z" stroke="#172B4D" stroke-width="1.0875"/>
<path d="M9.56212 7.56516C10.0761 7.05121 10.7731 6.76248 11.4999 6.76248C12.2268 6.76248 12.9238 7.05121 13.4378 7.56516C13.9517 8.0791 14.2404 8.77616 14.2404 9.50298V10.605H8.75945V9.50298C8.75945 8.77616 9.04818 8.0791 9.56212 7.56516Z" stroke="#172B4D" stroke-width="1.0875"/>
<path d="M11.3 13C11.4978 13 11.6911 13.0586 11.8556 13.1685C12.02 13.2784 12.1482 13.4346 12.2239 13.6173C12.2996 13.8 12.3194 14.0011 12.2808 14.1951C12.2422 14.3891 12.1469 14.5673 12.0071 14.7071C11.8672 14.847 11.6891 14.9422 11.4951 14.9808C11.3011 15.0194 11.1 14.9996 10.9173 14.9239C10.7346 14.8482 10.5784 14.72 10.4685 14.5556C10.3586 14.3911 10.3 14.1978 10.3 14C10.3 13.7348 10.4053 13.4804 10.5929 13.2929C10.7804 13.1054 11.0348 13 11.3 13Z" fill="#172B4D"/>
</svg>
