<svg width="20" height="20" viewBox="0 0 20 20" fill="none" xmlns="http://www.w3.org/2000/svg">
<path d="M10 2.00897C7.238 2.00897 5 4.23797 5 6.99897C5 11.773 10 17.999 10 17.999C10 17.999 15 11.772 15 6.99897C15 4.23897 12.762 2.00897 10 2.00897ZM10 9.75997C9.28392 9.75997 8.59716 9.47551 8.09081 8.96916C7.58446 8.46281 7.3 7.77606 7.3 7.05997C7.3 6.34389 7.58446 5.65713 8.09081 5.15078C8.59716 4.64444 9.28392 4.35997 10 4.35997C10.7161 4.35997 11.4028 4.64444 11.9092 5.15078C12.4155 5.65713 12.7 6.34389 12.7 7.05997C12.7 7.77606 12.4155 8.46281 11.9092 8.96916C11.4028 9.47551 10.7161 9.75997 10 9.75997Z" fill="#9C59DF"/>
</svg>
