<svg width="20" height="20" viewBox="0 0 20 20" fill="none" xmlns="http://www.w3.org/2000/svg">
<path d="M10.0007 9.99984C12.3018 9.99984 14.1673 8.13436 14.1673 5.83317C14.1673 3.53199 12.3018 1.6665 10.0007 1.6665C7.69947 1.6665 5.83398 3.53199 5.83398 5.83317C5.83398 8.13436 7.69947 9.99984 10.0007 9.99984Z" stroke="#9C59DF" stroke-width="2"/>
<path d="M14.168 11.6665H14.4614C15.0706 11.6667 15.6588 11.8893 16.1155 12.2926C16.5721 12.6958 16.8658 13.252 16.9414 13.8565L17.2672 16.4598C17.2965 16.6944 17.2756 16.9324 17.2059 17.1583C17.1361 17.3841 17.0192 17.5925 16.8627 17.7697C16.7063 17.9468 16.514 18.0887 16.2985 18.1859C16.083 18.283 15.8494 18.3332 15.613 18.3332H4.38969C4.15334 18.3332 3.91968 18.283 3.70422 18.1859C3.48877 18.0887 3.29644 17.9468 3.14 17.7697C2.98356 17.5925 2.86659 17.3841 2.79686 17.1583C2.72712 16.9324 2.70621 16.6944 2.73552 16.4598L3.06052 13.8565C3.1361 13.2517 3.43003 12.6953 3.88705 12.292C4.34406 11.8887 4.93267 11.6663 5.54219 11.6665H5.83469" stroke="#9C59DF" stroke-width="2" stroke-linecap="round" stroke-linejoin="round"/>
</svg>
