<svg width="21" height="20" viewBox="0 0 21 20" fill="none" xmlns="http://www.w3.org/2000/svg">
<path d="M10.1002 12.9167C10.2426 12.4764 10.4412 12.0563 10.691 11.6667H4.21598C3.96987 11.6668 3.72618 11.7154 3.49884 11.8097C3.27149 11.9039 3.06495 12.0421 2.89099 12.2162C2.71704 12.3903 2.57908 12.597 2.48499 12.8244C2.39091 13.0518 2.34254 13.2956 2.34265 13.5417V14.0225C2.34265 14.7658 2.60765 15.4858 3.09098 16.0517C4.39598 17.58 6.38432 18.335 9.00598 18.335C9.78182 18.335 10.5027 18.2683 11.1668 18.135C10.8659 17.7892 10.61 17.4067 10.4052 16.9967C9.96848 17.055 9.50265 17.0842 9.00598 17.0842C6.72432 17.0842 5.08599 16.4633 4.04182 15.24C3.75165 14.9007 3.59208 14.469 3.59182 14.0225V13.5408C3.59182 13.1967 3.87182 12.9167 4.21682 12.9167H10.1002ZM9.00598 1.67084C9.55316 1.67084 10.095 1.77861 10.6005 1.98801C11.106 2.1974 11.5654 2.50431 11.9523 2.89123C12.3392 3.27814 12.6461 3.73747 12.8555 4.24299C13.0649 4.74851 13.1727 5.29033 13.1727 5.8375C13.1727 6.38468 13.0649 6.92649 12.8555 7.43202C12.6461 7.93754 12.3392 8.39687 11.9523 8.78378C11.5654 9.17069 11.106 9.47761 10.6005 9.687C10.095 9.8964 9.55316 10.0042 9.00598 10.0042C7.90092 10.0042 6.84111 9.56518 6.05971 8.78378C5.27831 8.00238 4.83932 6.94257 4.83932 5.8375C4.83932 4.73244 5.27831 3.67263 6.05971 2.89123C6.84111 2.10982 7.90092 1.67084 9.00598 1.67084ZM9.00598 2.92084C8.62296 2.92084 8.24369 2.99628 7.88982 3.14286C7.53596 3.28943 7.21443 3.50427 6.94359 3.77511C6.67275 4.04595 6.45791 4.36748 6.31134 4.72134C6.16476 5.07521 6.08932 5.45448 6.08932 5.8375C6.08932 6.22053 6.16476 6.5998 6.31134 6.95366C6.45791 7.30753 6.67275 7.62906 6.94359 7.8999C7.21443 8.17074 7.53596 8.38558 7.88982 8.53215C8.24369 8.67873 8.62296 8.75417 9.00598 8.75417C9.77953 8.75417 10.5214 8.44688 11.0684 7.8999C11.6154 7.35292 11.9227 6.61105 11.9227 5.8375C11.9227 5.06396 11.6154 4.32209 11.0684 3.77511C10.5214 3.22813 9.77953 2.92084 9.00598 2.92084Z" fill="#9C59DF"/>
<path d="M15.2559 10C16.4715 10 17.6373 10.4829 18.4968 11.3424C19.3564 12.202 19.8393 13.3678 19.8393 14.5833C19.8393 15.7989 19.3564 16.9647 18.4968 17.8242C17.6373 18.6838 16.4715 19.1667 15.2559 19.1667C14.0404 19.1667 12.8746 18.6838 12.015 17.8242C11.1555 16.9647 10.6726 15.7989 10.6726 14.5833C10.6726 13.3678 11.1555 12.202 12.015 11.3424C12.8746 10.4829 14.0404 10 15.2559 10ZM16.9226 14.5833H15.2559V12.5C15.2559 12.3895 15.212 12.2835 15.1339 12.2054C15.0558 12.1272 14.9498 12.0833 14.8393 12.0833C14.7288 12.0833 14.6228 12.1272 14.5446 12.2054C14.4665 12.2835 14.4226 12.3895 14.4226 12.5V15C14.4226 15.1105 14.4665 15.2165 14.5446 15.2946C14.6228 15.3728 14.7288 15.4167 14.8393 15.4167H16.9226C17.0331 15.4167 17.1391 15.3728 17.2172 15.2946C17.2954 15.2165 17.3393 15.1105 17.3393 15C17.3393 14.8895 17.2954 14.7835 17.2172 14.7054C17.1391 14.6272 17.0331 14.5833 16.9226 14.5833Z" fill="#9C59DF"/>
</svg>
