<svg width="671" height="423" viewBox="0 0 671 423" fill="none" xmlns="http://www.w3.org/2000/svg">
<g clip-path="url(#clip0_2_2888)">
<path d="M489.607 103.014C489.607 143.598 426.136 263.28 389.744 328.566C387.276 332.996 383.668 336.686 379.294 339.255C374.92 341.824 369.939 343.179 364.866 343.179C359.793 343.179 354.812 341.824 350.438 339.255C346.065 336.686 342.457 332.996 339.989 328.566C303.597 263.28 240.125 143.598 240.125 103.014C240.125 46.1212 295.974 3.05176e-05 364.866 3.05176e-05C433.759 3.05176e-05 489.607 46.1212 489.607 103.014Z" fill="#9C59DF"/>
<path d="M365.451 169.74C402.97 169.74 433.385 139.342 433.385 101.844C433.385 64.346 402.97 33.9479 365.451 33.9479C327.933 33.9479 297.518 64.346 297.518 101.844C297.518 139.342 327.933 169.74 365.451 169.74Z" fill="white"/>
<path d="M81.968 163.277C104.44 163.277 122.658 145.07 122.658 122.61C122.658 100.15 104.44 81.9433 81.968 81.9433C59.4957 81.9433 41.2783 100.15 41.2783 122.61C41.2783 145.07 59.4957 163.277 81.968 163.277Z" fill="#FF6584"/>
<path d="M364.866 423C419.263 423 463.361 419.598 463.361 415.401C463.361 411.204 419.263 407.802 364.866 407.802C310.469 407.802 266.371 411.204 266.371 415.401C266.371 419.598 310.469 423 364.866 423Z" fill="#9C59DF"/>
<path opacity="0.4" d="M73.683 158.775C75.7539 146.02 67.0874 134.003 54.3259 131.933C41.5644 129.864 29.5404 138.525 27.4694 151.28C25.3985 164.034 34.065 176.051 46.8265 178.121C59.588 180.191 71.6121 171.529 73.683 158.775Z" fill="#9C59DF"/>
<path d="M598.252 275.716C413.906 206.649 189.068 273.983 59.2552 411.718C58.5173 412.491 57.7794 413.275 57.0649 414.06H55.0854C55.7648 413.275 56.4675 412.491 57.1586 411.718C189.665 263.506 411.516 204.437 598.252 275.716Z" fill="#3F3D56"/>
<path d="M648.629 298.625C632.334 289.94 615.509 282.288 598.252 275.716C615.554 282.18 632.386 289.835 648.629 298.625Z" fill="#3F3D56"/>
<path opacity="0.4" d="M547.736 229.717C561.915 229.717 573.41 218.228 573.41 204.056C573.41 189.885 561.915 178.396 547.736 178.396C533.556 178.396 522.061 189.885 522.061 204.056C522.061 218.228 533.556 229.717 547.736 229.717Z" fill="#9C59DF"/>
<path d="M550.594 401.43C552.578 408.76 559.374 413.3 559.374 413.3C559.374 413.3 562.953 405.955 560.969 398.625C558.985 391.295 552.189 386.755 552.189 386.755C552.189 386.755 548.61 394.1 550.594 401.43Z" fill="#3F3D56"/>
<path d="M553.51 399.855C558.954 405.151 559.619 413.294 559.619 413.294C559.619 413.294 551.457 412.849 546.013 407.552C540.569 402.255 539.904 394.112 539.904 394.112C539.904 394.112 548.066 394.558 553.51 399.855Z" fill="#9C59DF"/>
<path d="M3.93527 299.509V310.817L3.37305 311.426V299.392C3.56045 299.427 3.7479 299.474 3.93527 299.509Z" fill="#3F3D56"/>
<path d="M39.9871 411.713C39.8231 411.982 39.6474 412.251 39.4717 412.521H3.37305V300.071L3.93527 299.509L8.72578 304.953V296.992H23.9523V322.254L39.3312 339.708L39.4717 339.872C39.6591 340.457 39.8348 341.043 40.0105 341.628C40.0117 341.637 40.0159 341.645 40.0222 341.651C42.3287 349.028 44.2213 356.528 45.6912 364.116C49.041 382.014 48.5374 398.426 39.9871 411.713Z" fill="#CCCCCC"/>
<path d="M16.0481 361.666H6.35645V369.738H16.0481V361.666Z" fill="#3F3D56"/>
<path d="M16.0481 376.195H6.35645V384.267H16.0481V376.195Z" fill="#3F3D56"/>
<path d="M314.59 346.329L309.745 338.258L354.972 299.513C388.409 283.428 428.714 288.069 471.273 299.513V310.813L429.276 356.016L380.816 365.702L314.59 346.329Z" fill="#3F3D56"/>
<path d="M491.292 322.25C499.323 313.321 500.439 304.831 491.292 296.991H476.065V304.956L471.272 299.513L432.506 338.258L426.044 344.715L417.968 377.003L432.506 412.519H506.808V339.872L491.292 322.25Z" fill="#CCCCCC"/>
<path d="M309.745 338.258H432.506V412.519H309.745C294.893 396.46 302.608 367.189 309.745 338.258Z" fill="#F2F2F2"/>
<path d="M415.545 361.666H389.701V384.267H415.545V361.666Z" fill="#3F3D56"/>
<path d="M379.201 360.859H356.587V412.519H379.201V360.859Z" fill="#CCCCCC"/>
<path d="M330.743 368.931V360.86H321.052V368.931H329.935H330.743Z" fill="#3F3D56"/>
<path d="M329.935 375.388H321.052V383.461H330.743V375.388H329.935Z" fill="#3F3D56"/>
<path d="M346.896 360.859H337.204V368.931H346.896V360.859Z" fill="#3F3D56"/>
<path d="M346.896 375.388H337.204V383.46H346.896V375.388Z" fill="#3F3D56"/>
<path d="M467.234 369.739V361.666H457.542V369.739H466.426H467.234Z" fill="#3F3D56"/>
<path d="M466.426 376.196H457.542V384.267H467.234V376.196H466.426Z" fill="#3F3D56"/>
<path d="M483.387 361.666H473.695V369.738H483.387V361.666Z" fill="#3F3D56"/>
<path d="M483.387 376.195H473.695V384.267H483.387V376.195Z" fill="#3F3D56"/>
<path d="M96.0047 210.723L87.9287 204.265L133.156 163.905H247.84V199.422L173.538 249.468L96.0047 210.723Z" fill="#3F3D56"/>
<path d="M268.75 186.545V164.712H253.523V170.059L247.84 163.905L210.689 204.264L196.152 213.951L173.611 378.544L207.605 412.519H286.607C298.712 351.661 308.311 289.142 286.607 205.879L268.75 186.545Z" fill="#CCCCCC"/>
<path d="M87.9283 204.265H210.689V412.519H87.9283C74.4948 331.614 67.9341 256.586 87.9283 204.265Z" fill="#F2F2F2"/>
<path d="M158.193 361.666H135.579V412.519H158.193V361.666Z" fill="#CCCCCC"/>
<path d="M111.349 376.196V368.125H101.658V376.196H110.542H111.349Z" fill="#3F3D56"/>
<path d="M110.542 382.653H101.658V390.726H111.349V382.653H110.542Z" fill="#3F3D56"/>
<path d="M127.502 368.124H117.811V376.196H127.502V368.124Z" fill="#3F3D56"/>
<path d="M176.769 382.653H167.885V390.726H177.576V382.653H176.769Z" fill="#3F3D56"/>
<path d="M193.729 368.124H184.037V376.196H193.729V368.124Z" fill="#3F3D56"/>
<path d="M193.729 382.653H184.037V390.725H193.729V382.653Z" fill="#3F3D56"/>
<path d="M245.417 214.758V206.687H235.726V214.758H244.61H245.417Z" fill="#3F3D56"/>
<path d="M244.61 221.217H235.726V229.288H245.417V221.217H244.61Z" fill="#3F3D56"/>
<path d="M261.571 206.686H251.879V214.758H261.571V206.686Z" fill="#3F3D56"/>
<path d="M261.571 221.216H251.879V229.288H261.571V221.216Z" fill="#3F3D56"/>
<path d="M245.417 259.962V251.889H235.726V259.962H244.61H245.417Z" fill="#3F3D56"/>
<path d="M244.61 266.419H235.726V274.49H245.417V266.419H244.61Z" fill="#3F3D56"/>
<path d="M261.571 251.889H251.879V259.961H261.571V251.889Z" fill="#3F3D56"/>
<path d="M261.571 266.418H251.879V274.49H261.571V266.418Z" fill="#3F3D56"/>
<path d="M245.417 305.164V297.091H235.726V305.164H244.61H245.417Z" fill="#3F3D56"/>
<path d="M244.61 311.621H235.726V319.693H245.417V311.621H244.61Z" fill="#3F3D56"/>
<path d="M261.571 297.091H251.879V305.163H261.571V297.091Z" fill="#3F3D56"/>
<path d="M261.571 311.621H251.879V319.692H261.571V311.621Z" fill="#3F3D56"/>
<path d="M245.417 350.366V342.294H235.726V350.366H244.61H245.417Z" fill="#3F3D56"/>
<path d="M244.61 356.823H235.726V364.895H245.417V356.823H244.61Z" fill="#3F3D56"/>
<path d="M261.571 342.294H251.879V350.366H261.571V342.294Z" fill="#3F3D56"/>
<path d="M261.571 356.823H251.879V364.895H261.571V356.823Z" fill="#3F3D56"/>
<path d="M101.658 214.758H195.344V234.131C165.314 225.848 134 226.442 101.658 234.131V214.758Z" fill="#3F3D56"/>
<path d="M101.658 253.503C130.898 262.113 162.127 262.113 195.344 253.503V272.876H101.658V253.503Z" fill="#3F3D56"/>
<path d="M101.658 292.248H195.344V311.621C163.416 301.431 132.154 300.951 101.658 311.621V292.248Z" fill="#3F3D56"/>
<path d="M101.658 330.993C132.212 342.762 163.468 342.272 195.344 330.993V350.366H101.658V330.993Z" fill="#3F3D56"/>
<path d="M605.174 297.337H671V329.037L665.12 330.876L645.56 336.977L614.872 329.873L584.22 322.773L568.033 319.026L559.951 316.037C566.674 306.817 578.902 299.566 605.174 297.337Z" fill="#3F3D56"/>
<path d="M671 316.037V412.521H559.951C559.916 412.461 559.893 412.407 559.858 412.347V412.342C559.831 412.274 559.8 412.209 559.764 412.146C558.03 408.659 556.476 405.181 555.102 401.712C543.448 372.355 544.713 343.773 559.951 316.037H671Z" fill="#F2F2F2"/>
<path d="M630.216 361.666H607.603V412.519H630.216V361.666Z" fill="#CCCCCC"/>
<path d="M583.373 376.196V368.125H573.682V376.196H582.566H583.373Z" fill="#3F3D56"/>
<path d="M582.566 382.653H573.682V390.726H583.373V382.653H582.566Z" fill="#3F3D56"/>
<path d="M599.526 368.124H589.834V376.196H599.526V368.124Z" fill="#3F3D56"/>
<path d="M599.526 382.653H589.834V390.725H599.526V382.653Z" fill="#3F3D56"/>
<path d="M649.599 376.196V368.125H639.908V376.196H648.792H649.599Z" fill="#3F3D56"/>
<path d="M648.792 382.653H639.908V390.726H649.599V382.653H648.792Z" fill="#3F3D56"/>
<path d="M665.752 368.124H656.061V376.196H665.752V368.124Z" fill="#3F3D56"/>
<path d="M665.752 382.653H656.061V390.725H665.752V382.653Z" fill="#3F3D56"/>
<path d="M584.223 259.877H598.145C611.876 259.877 625.044 265.329 634.753 275.033C644.462 284.736 649.917 297.897 649.917 311.621H584.223V259.877Z" fill="#3F3D56"/>
<path d="M162.564 119.403H176.486C190.217 119.403 203.385 124.855 213.094 134.558C222.804 144.262 228.258 157.423 228.258 171.146H162.564V119.403Z" fill="#3F3D56"/>
<path d="M385.106 249.342H399.028C412.759 249.342 425.927 254.793 435.636 264.497C445.346 274.201 450.8 287.362 450.8 301.085H385.106V249.342Z" fill="#3F3D56"/>
<path d="M649.917 330.993H584.223V350.366H649.917V330.993Z" fill="#3F3D56"/>
<path d="M671 411.718H3.37354V414.06H671V411.718Z" fill="#3F3D56"/>
<path d="M64.948 319.234H62.6055V411.713H64.948V319.234Z" fill="#3F3D56"/>
<path d="M86.5675 331.019C86.7166 363.357 63.9527 389.677 63.9527 389.677C63.9527 389.677 34.8005 363.008 40.7978 331.23C46.8294 299.271 65.6277 272.708 63.4126 272.573C63.4126 272.573 86.4183 298.682 86.5675 331.019Z" fill="#9C59DF"/>
<path d="M299.203 319.234H296.86V411.713H299.203V319.234Z" fill="#3F3D56"/>
<path d="M320.822 331.019C322.934 363.288 298.207 389.677 298.207 389.677C298.207 389.677 275.202 363.568 275.052 331.23C274.903 298.893 297.667 272.573 297.667 272.573C295.448 281.437 319.114 304.91 320.822 331.019Z" fill="#9C59DF"/>
<path d="M147.01 168.907L248.764 163.932L291.448 199.541L283.902 206.351L216.309 204.83L147.01 168.907Z" fill="#3F3D56"/>
<path d="M45.4806 334.159L39.9991 339.111L39.3314 339.708L37.9376 340.973L3.37328 340.2V299.392C2.24885 299.146 1.12442 298.912 0 298.69L2.79936 298.549L3.37328 299.029L8.72601 303.489L23.9526 316.202L40.9595 330.39L45.4806 334.159Z" fill="#3F3D56"/>
<path d="M369.552 303.529L471.306 298.553L513.99 334.163L506.444 340.972L438.851 339.451L369.552 303.529Z" fill="#3F3D56"/>
</g>
<defs>
<clipPath id="clip0_2_2888">
<rect width="671" height="423" fill="white"/>
</clipPath>
</defs>
</svg>
