<svg width="14" height="14" viewBox="0 0 14 14" fill="none" xmlns="http://www.w3.org/2000/svg">
<path d="M13.2222 6.52496C13.3667 6.41728 13.4739 6.26707 13.5288 6.09539C13.5837 5.92371 13.5834 5.73916 13.5281 5.56763C13.4728 5.3961 13.3652 5.24618 13.2203 5.1389C13.0755 5.03161 12.9007 4.97234 12.7205 4.9694L9.22053 4.83718C9.20333 4.83599 9.18683 4.82985 9.17303 4.8195C9.15923 4.80915 9.14872 4.79503 9.14276 4.77884L7.93331 1.51218C7.87255 1.34598 7.76218 1.20247 7.61715 1.10108C7.47212 0.999689 7.29944 0.945313 7.12248 0.945312C6.94552 0.945312 6.77284 0.999689 6.62781 1.10108C6.48278 1.20247 6.37241 1.34598 6.31165 1.51218L5.10609 4.79051C5.10013 4.8067 5.08962 4.82082 5.07582 4.83117C5.06202 4.84152 5.04552 4.84766 5.02831 4.84884L1.52831 4.98107C1.3481 4.98401 1.17333 5.04328 1.02851 5.15056C0.883685 5.25785 0.776069 5.40777 0.720749 5.5793C0.66543 5.75083 0.665182 5.93538 0.72004 6.10706C0.774897 6.27874 0.88211 6.42895 1.02665 6.53662L3.7722 8.69496C3.78594 8.70577 3.79621 8.72037 3.80174 8.73696C3.80727 8.75355 3.80782 8.77139 3.80331 8.78829L2.85831 12.1366C2.80934 12.3071 2.81409 12.4886 2.8719 12.6563C2.92971 12.824 3.03779 12.9698 3.18142 13.074C3.32505 13.1781 3.49727 13.2354 3.67465 13.2382C3.85203 13.2409 4.02595 13.189 4.17276 13.0894L7.07387 11.145C7.08816 11.1351 7.10511 11.1298 7.12248 11.1298C7.13985 11.1298 7.1568 11.1351 7.17109 11.145L10.0722 13.0894C10.217 13.1924 10.3903 13.2477 10.568 13.2477C10.7457 13.2477 10.919 13.1924 11.0639 13.0894C11.2075 12.9863 11.3157 12.8411 11.3735 12.674C11.4313 12.5069 11.4359 12.3259 11.3866 12.1561L10.4339 8.79607C10.4288 8.7792 10.4291 8.76118 10.4347 8.74448C10.4402 8.72778 10.4508 8.7132 10.465 8.70273L13.2222 6.52496Z" fill="#9C59DF"/>
</svg>
